o BMG_OldCrownHouse_MK1
v -4 0 -4
v 4 0 -4
v 4 0 4
v -4 0 4
v -4 5.6 -4
v 4 5.6 -4
v 4 5.6 4
v -4 5.6 4
v -4.4 5.6 -4.4
v 4.4 5.6 -4.4
v 4.4 6.2 -4.4
v -4.4 6.2 -4.4
v -4.4 5.6 4.4
v 4.4 5.6 4.4
v 4.4 6.2 4.4
v -4.4 6.2 4.4
v -0.8 0 4.02
v 0.8 0 4.02
v 0.8 2.4 4.02
v -0.8 2.4 4.02
v -2.7 3.5 4.03
v -1.1 3.5 4.03
v -1.1 4.5 4.03
v -2.7 4.5 4.03
v 1.1 3.5 4.03
v 2.7 3.5 4.03
v 2.7 4.5 4.03
v 1.1 4.5 4.03
f 1 2 6 5
f 2 3 7 6
f 4 1 5 8
f 5 6 7 8
f 9 10 11 12
f 13 16 15 14
f 9 13 14 10
f 10 14 15 11
f 11 15 16 12
f 12 16 13 9
f 4 17 20 8
f 17 18 19 20
f 18 3 7 19
f 21 22 23 24
f 25 26 27 28
