o BMG_SandbagWall
v -1.6 0 0.35
v -0.8 0 0.35
v -0.8 0.35 0.35
v -1.6 0.35 0.35
v -1.6 0 -0.35
v -0.8 0 -0.35
v -0.8 0.35 -0.35
v -1.6 0.35 -0.35
v -0.7 0 0.35
v 0.1 0 0.35
v 0.1 0.35 0.35
v -0.7 0.35 0.35
v -0.7 0 -0.35
v 0.1 0 -0.35
v 0.1 0.35 -0.35
v -0.7 0.35 -0.35
v 0.2 0 0.35
v 1.0 0 0.35
v 1.0 0.35 0.35
v 0.2 0.35 0.35
v 0.2 0 -0.35
v 1.0 0 -0.35
v 1.0 0.35 -0.35
v 0.2 0.35 -0.35
v 1.1 0 0.35
v 1.9 0 0.35
v 1.9 0.35 0.35
v 1.1 0.35 0.35
v 1.1 0 -0.35
v 1.9 0 -0.35
v 1.9 0.35 -0.35
v 1.1 0.35 -0.35
f 1 2 3 4
f 5 8 7 6
f 1 5 6 2
f 4 3 7 8
f 2 6 7 3
f 1 4 8 5
f 9 10 11 12
f 13 16 15 14
f 9 13 14 10
f 12 11 15 16
f 10 14 15 11
f 9 12 16 13
f 17 18 19 20
f 21 24 23 22
f 17 21 22 18
f 20 19 23 24
f 18 22 23 19
f 17 20 24 21
f 25 26 27 28
f 29 32 31 30
f 25 29 30 26
f 28 27 31 32
f 26 30 31 27
f 25 28 32 29
