o BMG_CrownMonument_MK1
v -3.4 0 -3.4
v 3.4 0 -3.4
v 3.4 0 3.4
v -3.4 0 3.4
v -2.6 9.6 -2.6
v 2.6 9.6 -2.6
v 2.6 9.6 2.6
v -2.6 9.6 2.6
v -4.0 9.6 -4.0
v 4.0 9.6 -4.0
v 4.0 10.4 -4.0
v -4.0 10.4 -4.0
v -4.0 9.6 4.0
v 4.0 9.6 4.0
v 4.0 10.4 4.0
v -4.0 10.4 4.0
v -3.6 10.4 -3.6
v -2.0 10.4 -3.6
v -2.0 12.0 -3.6
v -3.6 12.0 -3.6
v -0.8 10.4 -3.6
v 0.8 10.4 -3.6
v 0.8 12.0 -3.6
v -0.8 12.0 -3.6
v 2.0 10.4 -3.6
v 3.6 10.4 -3.6
v 3.6 12.0 -3.6
v 2.0 12.0 -3.6
f 1 2 6 5
f 2 3 7 6
f 3 4 8 7
f 4 1 5 8
f 5 6 7 8
f 9 10 11 12
f 13 16 15 14
f 9 13 14 10
f 10 14 15 11
f 11 15 16 12
f 12 16 13 9
f 17 18 19 20
f 21 22 23 24
f 25 26 27 28
