o BMG_WaterTower_MK1
v -2.4 8 -2.4
v 2.4 8 -2.4
v 2.4 8 2.4
v -2.4 8 2.4
v -2.4 12 -2.4
v 2.4 12 -2.4
v 2.4 12 2.4
v -2.4 12 2.4
v -2.65 12 -2.65
v 2.65 12 -2.65
v 2.65 12.45 -2.65
v -2.65 12.45 -2.65
v -2.65 12 2.65
v 2.65 12 2.65
v 2.65 12.45 2.65
v -2.65 12.45 2.65
v -2.1 0 -2.1
v -1.7 0 -2.1
v -1.7 8 -2.1
v -2.1 8 -2.1
v 1.7 0 -2.1
v 2.1 0 -2.1
v 2.1 8 -2.1
v 1.7 8 -2.1
v -2.1 0 1.7
v -1.7 0 1.7
v -1.7 8 1.7
v -2.1 8 1.7
v 1.7 0 1.7
v 2.1 0 1.7
v 2.1 8 1.7
v 1.7 8 1.7
f 1 2 6 5
f 2 3 7 6
f 3 4 8 7
f 4 1 5 8
f 5 6 7 8
f 9 10 11 12
f 13 16 15 14
f 9 13 14 10
f 10 14 15 11
f 11 15 16 12
f 12 16 13 9
f 17 18 19 20
f 21 22 23 24
f 25 26 27 28
f 29 30 31 32
