# BMG authored industrial saltworks pump
o BMG_SaltPump_MK1
v -0.85 0 -0.85
v 0.85 0 -0.85
v 0.85 0 0.85
v -0.85 0 0.85
v -0.85 1.15 -0.85
v 0.85 1.15 -0.85
v 0.85 1.15 0.85
v -0.85 1.15 0.85
v -0.55 1.15 -0.55
v 0.55 1.15 -0.55
v 0.55 1.85 -0.55
v -0.55 1.85 -0.55
v -0.55 1.15 0.55
v 0.55 1.15 0.55
v 0.55 1.85 0.55
v -0.55 1.85 0.55
v 0.80 0.38 -0.28
v 1.55 0.38 -0.28
v 1.55 0.82 -0.28
v 0.80 0.82 -0.28
v 0.80 0.38 0.28
v 1.55 0.38 0.28
v 1.55 0.82 0.28
v 0.80 0.82 0.28
f 1 2 6 5
f 2 3 7 6
f 3 4 8 7
f 4 1 5 8
f 5 6 7 8
f 9 10 11 12
f 13 16 15 14
f 9 13 14 10
f 10 14 15 11
f 11 15 16 12
f 12 16 13 9
f 17 18 19 20
f 21 24 23 22
f 17 21 22 18
f 18 22 23 19
f 19 23 24 20
f 20 24 21 17
