# BMG authored Old Crown reinforced door
o BMG_OldCrownDoor_MK1
v -0.72 0 -0.08
v 0.72 0 -0.08
v 0.72 2.35 -0.08
v -0.72 2.35 -0.08
v -0.72 0 0.08
v 0.72 0 0.08
v 0.72 2.35 0.08
v -0.72 2.35 0.08
v -0.62 0.18 0.10
v 0.62 0.18 0.10
v 0.62 2.17 0.10
v -0.62 2.17 0.10
v -0.55 1.02 0.13
v 0.55 1.02 0.13
v 0.55 1.15 0.13
v -0.55 1.15 0.13
v 0.42 1.16 0.15
v 0.55 1.16 0.15
v 0.55 1.29 0.15
v 0.42 1.29 0.15
f 1 2 3 4
f 5 8 7 6
f 1 5 6 2
f 2 6 7 3
f 3 7 8 4
f 4 8 5 1
f 9 10 11 12
f 13 14 15 16
f 17 18 19 20
