o BMG_AssaultRifle_MK1
v -0.1000 -0.0700 -0.3500
v 0.1000 -0.0700 -0.3500
v 0.1000 0.0700 -0.3500
v -0.1000 0.0700 -0.3500
v -0.1000 -0.0700 0.3500
v 0.1000 -0.0700 0.3500
v 0.1000 0.0700 0.3500
v -0.1000 0.0700 0.3500
v -0.0750 -0.0500 0.3500
v 0.0750 -0.0500 0.3500
v 0.0750 0.0500 0.3500
v -0.0750 0.0500 0.3500
v -0.0750 -0.0500 0.7800
v 0.0750 -0.0500 0.7800
v 0.0750 0.0500 0.7800
v -0.0750 0.0500 0.7800
v 0.0350 0.0000 0.7800
v 0.0303 0.0175 0.7800
v 0.0175 0.0303 0.7800
v 0.0000 0.0350 0.7800
v -0.0175 0.0303 0.7800
v -0.0303 0.0175 0.7800
v -0.0350 0.0000 0.7800
v -0.0303 -0.0175 0.7800
v -0.0175 -0.0303 0.7800
v -0.0000 -0.0350 0.7800
v 0.0175 -0.0303 0.7800
v 0.0303 -0.0175 0.7800
v 0.0350 0.0000 1.1800
v 0.0303 0.0175 1.1800
v 0.0175 0.0303 1.1800
v 0.0000 0.0350 1.1800
v -0.0175 0.0303 1.1800
v -0.0303 0.0175 1.1800
v -0.0350 0.0000 1.1800
v -0.0303 -0.0175 1.1800
v -0.0175 -0.0303 1.1800
v -0.0000 -0.0350 1.1800
v 0.0175 -0.0303 1.1800
v 0.0303 -0.0175 1.1800
v -0.1100 -0.0600 -0.7000
v 0.1100 -0.0600 -0.7000
v 0.1100 0.0600 -0.7000
v -0.1100 0.0600 -0.7000
v -0.1100 -0.0600 -0.3500
v 0.1100 -0.0600 -0.3500
v 0.1100 0.0600 -0.3500
v -0.1100 0.0600 -0.3500
v -0.0550 -0.0800 -0.0500
v 0.0550 -0.0800 -0.0500
v 0.0550 0.0800 -0.0500
v -0.0550 0.0800 -0.0500
v -0.0550 -0.0800 0.1000
v 0.0550 -0.0800 0.1000
v 0.0550 0.0800 0.1000
v -0.0550 0.0800 0.1000
v -0.0600 -0.1200 0.0500
v 0.0600 -0.1200 0.0500
v 0.0600 -0.0200 0.0500
v -0.0600 -0.0200 0.0500
v -0.0600 -0.1200 0.3000
v 0.0600 -0.1200 0.3000
v 0.0600 -0.0200 0.3000
v -0.0600 -0.0200 0.3000
v -0.0400 0.0700 0.1000
v 0.0400 0.0700 0.1000
v 0.0400 0.1300 0.1000
v -0.0400 0.1300 0.1000
v -0.0400 0.0700 0.3000
v 0.0400 0.0700 0.3000
v 0.0400 0.1300 0.3000
v -0.0400 0.1300 0.3000
v -0.0500 0.0700 0.4500
v 0.0500 0.0700 0.4500
v 0.0500 0.1600 0.4500
v -0.0500 0.1600 0.4500
v -0.0500 0.0700 0.5800
v 0.0500 0.0700 0.5800
v 0.0500 0.1600 0.5800
v -0.0500 0.1600 0.5800
f 1 2 3 4
f 5 8 7 6
f 1 5 6 2
f 2 6 7 3
f 3 7 8 4
f 5 1 4 8
f 9 10 11 12
f 13 16 15 14
f 9 13 14 10
f 10 14 15 11
f 11 15 16 12
f 13 9 12 16
f 17 18 19 20 21 22 23 24 25 26 27 28
f 40 39 38 37 36 35 34 33 32 31 30 29
f 17 18 30 29
f 18 19 31 30
f 19 20 32 31
f 20 21 33 32
f 21 22 34 33
f 22 23 35 34
f 23 24 36 35
f 24 25 37 36
f 25 26 38 37
f 26 27 39 38
f 27 28 40 39
f 28 17 29 40
f 41 42 43 44
f 45 48 47 46
f 41 45 46 42
f 42 46 47 43
f 43 47 48 44
f 45 41 44 48
f 49 50 51 52
f 53 56 55 54
f 49 53 54 50
f 50 54 55 51
f 51 55 56 52
f 53 49 52 56
f 57 58 59 60
f 61 64 63 62
f 57 61 62 58
f 58 62 63 59
f 59 63 64 60
f 61 57 60 64
f 65 66 67 68
f 69 72 71 70
f 65 69 70 66
f 66 70 71 67
f 67 71 72 68
f 69 65 68 72
f 73 74 75 76
f 77 80 79 78
f 73 77 78 74
f 74 78 79 75
f 75 79 80 76
f 77 73 76 80
