o BMG_Buggy_MK1
v -1.00 0.25 -1.55
v 1.00 0.25 -1.55
v 1.00 0.60 -1.55
v -1.00 0.60 -1.55
v -1.00 0.25 1.45
v 1.00 0.25 1.45
v 1.00 0.60 1.45
v -1.00 0.60 1.45
v -0.75 0.60 -0.65
v 0.75 0.60 -0.65
v 0.75 1.35 -0.65
v -0.75 1.35 -0.65
v -0.75 0.60 0.45
v 0.75 0.60 0.45
v 0.75 1.35 0.45
v -0.75 1.35 0.45
v -0.90 0.45 1.35
v 0.90 0.45 1.35
v 0.90 0.65 1.35
v -0.90 0.65 1.35
v -0.90 0.45 1.65
v 0.90 0.45 1.65
v 0.90 0.65 1.65
v -0.90 0.65 1.65
v -0.75 0.25 -1.80
v 0.75 0.25 -1.80
v 0.75 0.55 -1.80
v -0.75 0.55 -1.80
v -0.75 0.25 -1.45
v 0.75 0.25 -1.45
v 0.75 0.55 -1.45
v -0.75 0.55 -1.45
f 1 2 3 4
f 5 8 7 6
f 1 5 6 2
f 2 6 7 3
f 3 7 8 4
f 5 1 4 8
f 9 10 11 12
f 13 16 15 14
f 9 13 14 10
f 10 14 15 11
f 11 15 16 12
f 13 9 12 16
f 17 18 19 20
f 21 24 23 22
f 17 21 22 18
f 18 22 23 19
f 19 23 24 20
f 21 17 20 24
f 25 26 27 28
f 29 32 31 30
f 25 29 30 26
f 26 30 31 27
f 27 31 32 28
f 29 25 28 32
