o BMG_Helmet_MK1
v 0.2200 0.2800 0.0000
v 0.1905 0.2800 0.1155
v 0.1100 0.2800 0.2001
v 0.0000 0.2800 0.2310
v -0.1100 0.2800 0.2001
v -0.1905 0.2800 0.1155
v -0.2200 0.2800 0.0000
v -0.1905 0.2800 -0.1155
v -0.1100 0.2800 -0.2001
v -0.0000 0.2800 -0.2310
v 0.1100 0.2800 -0.2001
v 0.1905 0.2800 -0.1155
v 0.1400 0.3600 0.0000
v 0.1212 0.3600 0.0735
v 0.0700 0.3600 0.1273
v 0.0000 0.3600 0.1470
v -0.0700 0.3600 0.1273
v -0.1212 0.3600 0.0735
v -0.1400 0.3600 0.0000
v -0.1212 0.3600 -0.0735
v -0.0700 0.3600 -0.1273
v -0.0000 0.3600 -0.1470
v 0.0700 0.3600 -0.1273
v 0.1212 0.3600 -0.0735
v 0.0400 0.4000 0.0000
v 0.0346 0.4000 0.0210
v 0.0200 0.4000 0.0364
v 0.0000 0.4000 0.0420
v -0.0200 0.4000 0.0364
v -0.0346 0.4000 0.0210
v -0.0400 0.4000 0.0000
v -0.0346 0.4000 -0.0210
v -0.0200 0.4000 -0.0364
v -0.0000 0.4000 -0.0420
v 0.0200 0.4000 -0.0364
v 0.0346 0.4000 -0.0210
v -0.0600 0.3900 -0.0000
v -0.0520 0.3900 -0.0315
v -0.0300 0.3900 -0.0546
v -0.0000 0.3900 -0.0630
v 0.0300 0.3900 -0.0546
v 0.0520 0.3900 -0.0315
v 0.0600 0.3900 -0.0000
v 0.0520 0.3900 0.0315
v 0.0300 0.3900 0.0546
v 0.0000 0.3900 0.0630
v -0.0300 0.3900 0.0546
v -0.0520 0.3900 0.0315
v 0.0000 0.3200 0.0000
v -0.2800 -0.1000 0.2800
v 0.2800 -0.1000 0.2800
v 0.2800 -0.0200 0.2800
v -0.2800 -0.0200 0.2800
v -0.2800 -0.1000 0.4800
v 0.2800 -0.1000 0.4800
v 0.2800 -0.0200 0.4800
v -0.2800 -0.0200 0.4800
v -0.3400 -0.1000 -0.1500
v 0.3400 -0.1000 -0.1500
v 0.3400 -0.0200 -0.1500
v -0.3400 -0.0200 -0.1500
v -0.3400 -0.1000 0.2000
v 0.3400 -0.1000 0.2000
v 0.3400 -0.0200 0.2000
v -0.3400 -0.0200 0.2000
f 49 1 2
f 49 2 3
f 49 3 4
f 49 4 5
f 49 5 6
f 49 6 7
f 49 7 8
f 49 8 9
f 49 9 10
f 49 10 11
f 49 11 12
f 49 12 1
f 1 13 14 2
f 2 14 15 3
f 3 15 16 4
f 4 16 17 5
f 5 17 18 6
f 6 18 19 7
f 7 19 20 8
f 8 20 21 9
f 9 21 22 10
f 10 22 23 11
f 11 23 24 12
f 12 24 13 1
f 13 25 26 14
f 14 26 27 15
f 15 27 28 16
f 16 28 29 17
f 17 29 30 18
f 18 30 31 19
f 19 31 32 20
f 20 32 33 21
f 21 33 34 22
f 22 34 35 23
f 23 35 36 24
f 24 36 25 13
f 25 37 38 26
f 26 38 39 27
f 27 39 40 28
f 28 40 41 29
f 29 41 42 30
f 30 42 43 31
f 31 43 44 32
f 32 44 45 33
f 33 45 46 34
f 34 46 47 35
f 35 47 48 36
f 36 48 37 25
f 50 51 52 53
f 54 57 56 55
f 50 54 55 51
f 51 55 56 52
f 52 56 57 53
f 54 50 53 57
f 58 59 60 61
f 62 65 64 63
f 58 62 63 59
f 59 63 64 60
f 60 64 65 61
f 62 58 61 65
