# BMG authored industrial pipe segment
o BMG_SaltPipe_MK1
v -3.2 -0.34 -0.34
v 3.2 -0.34 -0.34
v 3.2 0.34 -0.34
v -3.2 0.34 -0.34
v -3.2 -0.34 0.34
v 3.2 -0.34 0.34
v 3.2 0.34 0.34
v -3.2 0.34 0.34
v -2.75 -0.46 -0.46
v -2.45 -0.46 -0.46
v -2.45 0.46 -0.46
v -2.75 0.46 -0.46
v -2.75 -0.46 0.46
v -2.45 -0.46 0.46
v -2.45 0.46 0.46
v -2.75 0.46 0.46
v 2.45 -0.46 -0.46
v 2.75 -0.46 -0.46
v 2.75 0.46 -0.46
v 2.45 0.46 -0.46
v 2.45 -0.46 0.46
v 2.75 -0.46 0.46
v 2.75 0.46 0.46
v 2.45 0.46 0.46
f 1 2 3 4
f 5 8 7 6
f 1 5 6 2
f 2 6 7 3
f 3 7 8 4
f 4 8 5 1
f 9 10 11 12
f 13 16 15 14
f 9 13 14 10
f 10 14 15 11
f 11 15 16 12
f 12 16 13 9
f 17 18 19 20
f 21 24 23 22
f 17 21 22 18
f 18 22 23 19
f 19 23 24 20
f 20 24 21 17
