o BMG_PortCrane_MK1
v -0.55 0 -0.55
v 0.55 0 -0.55
v 0.55 9 -0.55
v -0.55 9 -0.55
v -0.55 0 0.55
v 0.55 0 0.55
v 0.55 9 0.55
v -0.55 9 0.55
v -0.3 8.5 -0.4
v 8.5 8.5 -0.4
v 8.5 9.1 -0.4
v -0.3 9.1 -0.4
v -0.3 8.5 0.4
v 8.5 8.5 0.4
v 8.5 9.1 0.4
v -0.3 9.1 0.4
v 6.8 7.2 -0.18
v 7.2 7.2 -0.18
v 7.2 8.6 -0.18
v 6.8 8.6 -0.18
v 6.8 7.2 0.18
v 7.2 7.2 0.18
v 7.2 8.6 0.18
v 6.8 8.6 0.18
f 1 2 3 4
f 5 8 7 6
f 1 5 6 2
f 2 6 7 3
f 3 7 8 4
f 4 8 5 1
f 9 10 11 12
f 13 16 15 14
f 9 13 14 10
f 10 14 15 11
f 11 15 16 12
f 12 16 13 9
f 17 18 19 20
f 21 24 23 22
f 17 21 22 18
f 18 22 23 19
f 19 23 24 20
f 20 24 21 17
