o bmg_parachute
s 1
v 0.00000 2.25000 0.00000
v 0.00000 2.25000 0.00000
v 0.00000 2.25000 0.00000
v 0.00000 2.25000 0.00000
v 0.00000 2.25000 0.00000
v 0.00000 2.25000 0.00000
v 0.00000 2.25000 0.00000
v 0.00000 2.25000 0.00000
v 0.00000 2.25000 0.00000
v -0.00000 2.25000 0.00000
v -0.00000 2.25000 0.00000
v -0.00000 2.25000 0.00000
v -0.00000 2.25000 0.00000
v -0.00000 2.25000 0.00000
v -0.00000 2.25000 0.00000
v -0.00000 2.25000 0.00000
v -0.00000 2.25000 0.00000
v -0.00000 2.25000 -0.00000
v -0.00000 2.25000 -0.00000
v -0.00000 2.25000 -0.00000
v -0.00000 2.25000 -0.00000
v -0.00000 2.25000 -0.00000
v -0.00000 2.25000 -0.00000
v -0.00000 2.25000 -0.00000
v -0.00000 2.25000 -0.00000
v 0.00000 2.25000 -0.00000
v 0.00000 2.25000 -0.00000
v 0.00000 2.25000 -0.00000
v 0.00000 2.25000 -0.00000
v 0.00000 2.25000 -0.00000
v 0.00000 2.25000 -0.00000
v 0.00000 2.25000 -0.00000
v 0.43895 2.20677 0.00000
v 0.43052 2.20677 0.06166
v 0.40554 2.20677 0.12095
v 0.36498 2.20677 0.17559
v 0.31039 2.20677 0.22348
v 0.24387 2.20677 0.26278
v 0.16798 2.20677 0.29199
v 0.08564 2.20677 0.30997
v 0.00000 2.20677 0.31605
v -0.08564 2.20677 0.30997
v -0.16798 2.20677 0.29199
v -0.24387 2.20677 0.26278
v -0.31039 2.20677 0.22348
v -0.36498 2.20677 0.17559
v -0.40554 2.20677 0.12095
v -0.43052 2.20677 0.06166
v -0.43895 2.20677 0.00000
v -0.43052 2.20677 -0.06166
v -0.40554 2.20677 -0.12095
v -0.36498 2.20677 -0.17559
v -0.31039 2.20677 -0.22348
v -0.24387 2.20677 -0.26278
v -0.16798 2.20677 -0.29199
v -0.08564 2.20677 -0.30997
v -0.00000 2.20677 -0.31605
v 0.08564 2.20677 -0.30997
v 0.16798 2.20677 -0.29199
v 0.24387 2.20677 -0.26278
v 0.31039 2.20677 -0.22348
v 0.36498 2.20677 -0.17559
v 0.40554 2.20677 -0.12095
v 0.43052 2.20677 -0.06166
v 0.86104 2.07873 0.00000
v 0.84449 2.07873 0.12095
v 0.79550 2.07873 0.23724
v 0.71593 2.07873 0.34442
v 0.60885 2.07873 0.43837
v 0.47837 2.07873 0.51547
v 0.32950 2.07873 0.57276
v 0.16798 2.07873 0.60804
v 0.00000 2.07873 0.61995
v -0.16798 2.07873 0.60804
v -0.32950 2.07873 0.57276
v -0.47837 2.07873 0.51547
v -0.60885 2.07873 0.43837
v -0.71593 2.07873 0.34442
v -0.79550 2.07873 0.23724
v -0.84449 2.07873 0.12095
v -0.86104 2.07873 0.00000
v -0.84449 2.07873 -0.12095
v -0.79550 2.07873 -0.23724
v -0.71593 2.07873 -0.34442
v -0.60885 2.07873 -0.43837
v -0.47837 2.07873 -0.51547
v -0.32950 2.07873 -0.57276
v -0.16798 2.07873 -0.60804
v -0.00000 2.07873 -0.61995
v 0.16798 2.07873 -0.60804
v 0.32950 2.07873 -0.57276
v 0.47837 2.07873 -0.51547
v 0.60885 2.07873 -0.43837
v 0.71593 2.07873 -0.34442
v 0.79550 2.07873 -0.23724
v 0.84449 2.07873 -0.12095
v 1.25003 1.87081 0.00000
v 1.22601 1.87081 0.17559
v 1.15488 1.87081 0.34442
v 1.03936 1.87081 0.50003
v 0.88391 1.87081 0.63641
v 0.69448 1.87081 0.74834
v 0.47837 1.87081 0.83151
v 0.24387 1.87081 0.88273
v 0.00000 1.87081 0.90002
v -0.24387 1.87081 0.88273
v -0.47837 1.87081 0.83151
v -0.69448 1.87081 0.74834
v -0.88391 1.87081 0.63641
v -1.03936 1.87081 0.50003
v -1.15488 1.87081 0.34442
v -1.22601 1.87081 0.17559
v -1.25003 1.87081 0.00000
v -1.22601 1.87081 -0.17559
v -1.15488 1.87081 -0.34442
v -1.03936 1.87081 -0.50003
v -0.88391 1.87081 -0.63641
v -0.69448 1.87081 -0.74834
v -0.47837 1.87081 -0.83151
v -0.24387 1.87081 -0.88273
v -0.00000 1.87081 -0.90002
v 0.24387 1.87081 -0.88273
v 0.47837 1.87081 -0.83151
v 0.69448 1.87081 -0.74834
v 0.88391 1.87081 -0.63641
v 1.03936 1.87081 -0.50003
v 1.15488 1.87081 -0.34442
v 1.22601 1.87081 -0.17559
v 1.59099 1.59099 0.00000
v 1.56042 1.59099 0.22348
v 1.46988 1.59099 0.43837
v 1.32286 1.59099 0.63641
v 1.12500 1.59099 0.81000
v 0.88391 1.59099 0.95246
v 0.60885 1.59099 1.05832
v 0.31039 1.59099 1.12350
v 0.00000 1.59099 1.14551
v -0.31039 1.59099 1.12350
v -0.60885 1.59099 1.05832
v -0.88391 1.59099 0.95246
v -1.12500 1.59099 0.81000
v -1.32286 1.59099 0.63641
v -1.46988 1.59099 0.43837
v -1.56042 1.59099 0.22348
v -1.59099 1.59099 0.00000
v -1.56042 1.59099 -0.22348
v -1.46988 1.59099 -0.43837
v -1.32286 1.59099 -0.63641
v -1.12500 1.59099 -0.81000
v -0.88391 1.59099 -0.95246
v -0.60885 1.59099 -1.05832
v -0.31039 1.59099 -1.12350
v -0.00000 1.59099 -1.14551
v 0.31039 1.59099 -1.12350
v 0.60885 1.59099 -1.05832
v 0.88391 1.59099 -0.95246
v 1.12500 1.59099 -0.81000
v 1.32286 1.59099 -0.63641
v 1.46988 1.59099 -0.43837
v 1.56042 1.59099 -0.22348
v 1.87081 1.25003 0.00000
v 1.83486 1.25003 0.26278
v 1.72840 1.25003 0.51547
v 1.55552 1.25003 0.74834
v 1.32286 1.25003 0.95246
v 1.03936 1.25003 1.11997
v 0.71593 1.25003 1.24445
v 0.36498 1.25003 1.32110
v 0.00000 1.25003 1.34698
v -0.36498 1.25003 1.32110
v -0.71593 1.25003 1.24445
v -1.03936 1.25003 1.11997
v -1.32286 1.25003 0.95246
v -1.55552 1.25003 0.74834
v -1.72840 1.25003 0.51547
v -1.83486 1.25003 0.26278
v -1.87081 1.25003 0.00000
v -1.83486 1.25003 -0.26278
v -1.72840 1.25003 -0.51547
v -1.55552 1.25003 -0.74834
v -1.32286 1.25003 -0.95246
v -1.03936 1.25003 -1.11997
v -0.71593 1.25003 -1.24445
v -0.36498 1.25003 -1.32110
v -0.00000 1.25003 -1.34698
v 0.36498 1.25003 -1.32110
v 0.71593 1.25003 -1.24445
v 1.03936 1.25003 -1.11997
v 1.32286 1.25003 -0.95246
v 1.55552 1.25003 -0.74834
v 1.72840 1.25003 -0.51547
v 1.83486 1.25003 -0.26278
v 2.07873 0.86104 0.00000
v 2.03879 0.86104 0.29199
v 1.92050 0.86104 0.57276
v 1.72840 0.86104 0.83151
v 1.46988 0.86104 1.05832
v 1.15488 0.86104 1.24445
v 0.79550 0.86104 1.38276
v 0.40554 0.86104 1.46793
v 0.00000 0.86104 1.49668
v -0.40554 0.86104 1.46793
v -0.79550 0.86104 1.38276
v -1.15488 0.86104 1.24445
v -1.46988 0.86104 1.05832
v -1.72840 0.86104 0.83151
v -1.92050 0.86104 0.57276
v -2.03879 0.86104 0.29199
v -2.07873 0.86104 0.00000
v -2.03879 0.86104 -0.29199
v -1.92050 0.86104 -0.57276
v -1.72840 0.86104 -0.83151
v -1.46988 0.86104 -1.05832
v -1.15488 0.86104 -1.24445
v -0.79550 0.86104 -1.38276
v -0.40554 0.86104 -1.46793
v -0.00000 0.86104 -1.49668
v 0.40554 0.86104 -1.46793
v 0.79550 0.86104 -1.38276
v 1.15488 0.86104 -1.24445
v 1.46988 0.86104 -1.05832
v 1.72840 0.86104 -0.83151
v 1.92050 0.86104 -0.57276
v 2.03879 0.86104 -0.29199
v 2.20677 0.43895 0.00000
v 2.16436 0.43895 0.30997
v 2.03879 0.43895 0.60804
v 1.83486 0.43895 0.88273
v 1.56042 0.43895 1.12350
v 1.22601 0.43895 1.32110
v 0.84449 0.43895 1.46793
v 0.43052 0.43895 1.55834
v 0.00000 0.43895 1.58887
v -0.43052 0.43895 1.55834
v -0.84449 0.43895 1.46793
v -1.22601 0.43895 1.32110
v -1.56042 0.43895 1.12350
v -1.83486 0.43895 0.88273
v -2.03879 0.43895 0.60804
v -2.16436 0.43895 0.30997
v -2.20677 0.43895 0.00000
v -2.16436 0.43895 -0.30997
v -2.03879 0.43895 -0.60804
v -1.83486 0.43895 -0.88273
v -1.56042 0.43895 -1.12350
v -1.22601 0.43895 -1.32110
v -0.84449 0.43895 -1.46793
v -0.43052 0.43895 -1.55834
v -0.00000 0.43895 -1.58887
v 0.43052 0.43895 -1.55834
v 0.84449 0.43895 -1.46793
v 1.22601 0.43895 -1.32110
v 1.56042 0.43895 -1.12350
v 1.83486 0.43895 -0.88273
v 2.03879 0.43895 -0.60804
v 2.16436 0.43895 -0.30997
v 2.25000 0.00000 0.00000
v 2.20677 0.00000 0.31605
v 2.07873 0.00000 0.61995
v 1.87081 0.00000 0.90002
v 1.59099 0.00000 1.14551
v 1.25003 0.00000 1.34698
v 0.86104 0.00000 1.49668
v 0.43895 0.00000 1.58887
v 0.00000 0.00000 1.62000
v -0.43895 0.00000 1.58887
v -0.86104 0.00000 1.49668
v -1.25003 0.00000 1.34698
v -1.59099 0.00000 1.14551
v -1.87081 0.00000 0.90002
v -2.07873 0.00000 0.61995
v -2.20677 0.00000 0.31605
v -2.25000 0.00000 0.00000
v -2.20677 0.00000 -0.31605
v -2.07873 0.00000 -0.61995
v -1.87081 0.00000 -0.90002
v -1.59099 0.00000 -1.14551
v -1.25003 0.00000 -1.34698
v -0.86104 0.00000 -1.49668
v -0.43895 0.00000 -1.58887
v -0.00000 0.00000 -1.62000
v 0.43895 0.00000 -1.58887
v 0.86104 0.00000 -1.49668
v 1.25003 0.00000 -1.34698
v 1.59099 0.00000 -1.14551
v 1.87081 0.00000 -0.90002
v 2.07873 0.00000 -0.61995
v 2.20677 0.00000 -0.31605
v -0.59000 -1.72500 -0.30400
v -0.59000 0.42500 -0.30400
v -0.59527 -1.72500 -0.29127
v -0.59527 0.42500 -0.29127
v -0.60800 -1.72500 -0.28600
v -0.60800 0.42500 -0.28600
v -0.62073 -1.72500 -0.29127
v -0.62073 0.42500 -0.29127
v -0.62600 -1.72500 -0.30400
v -0.62600 0.42500 -0.30400
v -0.62073 -1.72500 -0.31673
v -0.62073 0.42500 -0.31673
v -0.60800 -1.72500 -0.32200
v -0.60800 0.42500 -0.32200
v -0.59527 -1.72500 -0.31673
v -0.59527 0.42500 -0.31673
v 0.62600 -1.72500 -0.30400
v 0.62600 0.42500 -0.30400
v 0.62073 -1.72500 -0.29127
v 0.62073 0.42500 -0.29127
v 0.60800 -1.72500 -0.28600
v 0.60800 0.42500 -0.28600
v 0.59527 -1.72500 -0.29127
v 0.59527 0.42500 -0.29127
v 0.59000 -1.72500 -0.30400
v 0.59000 0.42500 -0.30400
v 0.59527 -1.72500 -0.31673
v 0.59527 0.42500 -0.31673
v 0.60800 -1.72500 -0.32200
v 0.60800 0.42500 -0.32200
v 0.62073 -1.72500 -0.31673
v 0.62073 0.42500 -0.31673
v -0.59000 -1.72500 0.30400
v -0.59000 0.42500 0.30400
v -0.59527 -1.72500 0.31673
v -0.59527 0.42500 0.31673
v -0.60800 -1.72500 0.32200
v -0.60800 0.42500 0.32200
v -0.62073 -1.72500 0.31673
v -0.62073 0.42500 0.31673
v -0.62600 -1.72500 0.30400
v -0.62600 0.42500 0.30400
v -0.62073 -1.72500 0.29127
v -0.62073 0.42500 0.29127
v -0.60800 -1.72500 0.28600
v -0.60800 0.42500 0.28600
v -0.59527 -1.72500 0.29127
v -0.59527 0.42500 0.29127
v 0.62600 -1.72500 0.30400
v 0.62600 0.42500 0.30400
v 0.62073 -1.72500 0.31673
v 0.62073 0.42500 0.31673
v 0.60800 -1.72500 0.32200
v 0.60800 0.42500 0.32200
v 0.59527 -1.72500 0.31673
v 0.59527 0.42500 0.31673
v 0.59000 -1.72500 0.30400
v 0.59000 0.42500 0.30400
v 0.59527 -1.72500 0.29127
v 0.59527 0.42500 0.29127
v 0.60800 -1.72500 0.28600
v 0.60800 0.42500 0.28600
v 0.62073 -1.72500 0.29127
v 0.62073 0.42500 0.29127
f 1 33 34
f 1 34 2
f 2 34 35
f 2 35 3
f 3 35 36
f 3 36 4
f 4 36 37
f 4 37 5
f 5 37 38
f 5 38 6
f 6 38 39
f 6 39 7
f 7 39 40
f 7 40 8
f 8 40 41
f 8 41 9
f 9 41 42
f 9 42 10
f 10 42 43
f 10 43 11
f 11 43 44
f 11 44 12
f 12 44 45
f 12 45 13
f 13 45 46
f 13 46 14
f 14 46 47
f 14 47 15
f 15 47 48
f 15 48 16
f 16 48 49
f 16 49 17
f 17 49 50
f 17 50 18
f 18 50 51
f 18 51 19
f 19 51 52
f 19 52 20
f 20 52 53
f 20 53 21
f 21 53 54
f 21 54 22
f 22 54 55
f 22 55 23
f 23 55 56
f 23 56 24
f 24 56 57
f 24 57 25
f 25 57 58
f 25 58 26
f 26 58 59
f 26 59 27
f 27 59 60
f 27 60 28
f 28 60 61
f 28 61 29
f 29 61 62
f 29 62 30
f 30 62 63
f 30 63 31
f 31 63 64
f 31 64 32
f 32 64 33
f 32 33 1
f 33 65 66
f 33 66 34
f 34 66 67
f 34 67 35
f 35 67 68
f 35 68 36
f 36 68 69
f 36 69 37
f 37 69 70
f 37 70 38
f 38 70 71
f 38 71 39
f 39 71 72
f 39 72 40
f 40 72 73
f 40 73 41
f 41 73 74
f 41 74 42
f 42 74 75
f 42 75 43
f 43 75 76
f 43 76 44
f 44 76 77
f 44 77 45
f 45 77 78
f 45 78 46
f 46 78 79
f 46 79 47
f 47 79 80
f 47 80 48
f 48 80 81
f 48 81 49
f 49 81 82
f 49 82 50
f 50 82 83
f 50 83 51
f 51 83 84
f 51 84 52
f 52 84 85
f 52 85 53
f 53 85 86
f 53 86 54
f 54 86 87
f 54 87 55
f 55 87 88
f 55 88 56
f 56 88 89
f 56 89 57
f 57 89 90
f 57 90 58
f 58 90 91
f 58 91 59
f 59 91 92
f 59 92 60
f 60 92 93
f 60 93 61
f 61 93 94
f 61 94 62
f 62 94 95
f 62 95 63
f 63 95 96
f 63 96 64
f 64 96 65
f 64 65 33
f 65 97 98
f 65 98 66
f 66 98 99
f 66 99 67
f 67 99 100
f 67 100 68
f 68 100 101
f 68 101 69
f 69 101 102
f 69 102 70
f 70 102 103
f 70 103 71
f 71 103 104
f 71 104 72
f 72 104 105
f 72 105 73
f 73 105 106
f 73 106 74
f 74 106 107
f 74 107 75
f 75 107 108
f 75 108 76
f 76 108 109
f 76 109 77
f 77 109 110
f 77 110 78
f 78 110 111
f 78 111 79
f 79 111 112
f 79 112 80
f 80 112 113
f 80 113 81
f 81 113 114
f 81 114 82
f 82 114 115
f 82 115 83
f 83 115 116
f 83 116 84
f 84 116 117
f 84 117 85
f 85 117 118
f 85 118 86
f 86 118 119
f 86 119 87
f 87 119 120
f 87 120 88
f 88 120 121
f 88 121 89
f 89 121 122
f 89 122 90
f 90 122 123
f 90 123 91
f 91 123 124
f 91 124 92
f 92 124 125
f 92 125 93
f 93 125 126
f 93 126 94
f 94 126 127
f 94 127 95
f 95 127 128
f 95 128 96
f 96 128 97
f 96 97 65
f 97 129 130
f 97 130 98
f 98 130 131
f 98 131 99
f 99 131 132
f 99 132 100
f 100 132 133
f 100 133 101
f 101 133 134
f 101 134 102
f 102 134 135
f 102 135 103
f 103 135 136
f 103 136 104
f 104 136 137
f 104 137 105
f 105 137 138
f 105 138 106
f 106 138 139
f 106 139 107
f 107 139 140
f 107 140 108
f 108 140 141
f 108 141 109
f 109 141 142
f 109 142 110
f 110 142 143
f 110 143 111
f 111 143 144
f 111 144 112
f 112 144 145
f 112 145 113
f 113 145 146
f 113 146 114
f 114 146 147
f 114 147 115
f 115 147 148
f 115 148 116
f 116 148 149
f 116 149 117
f 117 149 150
f 117 150 118
f 118 150 151
f 118 151 119
f 119 151 152
f 119 152 120
f 120 152 153
f 120 153 121
f 121 153 154
f 121 154 122
f 122 154 155
f 122 155 123
f 123 155 156
f 123 156 124
f 124 156 157
f 124 157 125
f 125 157 158
f 125 158 126
f 126 158 159
f 126 159 127
f 127 159 160
f 127 160 128
f 128 160 129
f 128 129 97
f 129 161 162
f 129 162 130
f 130 162 163
f 130 163 131
f 131 163 164
f 131 164 132
f 132 164 165
f 132 165 133
f 133 165 166
f 133 166 134
f 134 166 167
f 134 167 135
f 135 167 168
f 135 168 136
f 136 168 169
f 136 169 137
f 137 169 170
f 137 170 138
f 138 170 171
f 138 171 139
f 139 171 172
f 139 172 140
f 140 172 173
f 140 173 141
f 141 173 174
f 141 174 142
f 142 174 175
f 142 175 143
f 143 175 176
f 143 176 144
f 144 176 177
f 144 177 145
f 145 177 178
f 145 178 146
f 146 178 179
f 146 179 147
f 147 179 180
f 147 180 148
f 148 180 181
f 148 181 149
f 149 181 182
f 149 182 150
f 150 182 183
f 150 183 151
f 151 183 184
f 151 184 152
f 152 184 185
f 152 185 153
f 153 185 186
f 153 186 154
f 154 186 187
f 154 187 155
f 155 187 188
f 155 188 156
f 156 188 189
f 156 189 157
f 157 189 190
f 157 190 158
f 158 190 191
f 158 191 159
f 159 191 192
f 159 192 160
f 160 192 161
f 160 161 129
f 161 193 194
f 161 194 162
f 162 194 195
f 162 195 163
f 163 195 196
f 163 196 164
f 164 196 197
f 164 197 165
f 165 197 198
f 165 198 166
f 166 198 199
f 166 199 167
f 167 199 200
f 167 200 168
f 168 200 201
f 168 201 169
f 169 201 202
f 169 202 170
f 170 202 203
f 170 203 171
f 171 203 204
f 171 204 172
f 172 204 205
f 172 205 173
f 173 205 206
f 173 206 174
f 174 206 207
f 174 207 175
f 175 207 208
f 175 208 176
f 176 208 209
f 176 209 177
f 177 209 210
f 177 210 178
f 178 210 211
f 178 211 179
f 179 211 212
f 179 212 180
f 180 212 213
f 180 213 181
f 181 213 214
f 181 214 182
f 182 214 215
f 182 215 183
f 183 215 216
f 183 216 184
f 184 216 217
f 184 217 185
f 185 217 218
f 185 218 186
f 186 218 219
f 186 219 187
f 187 219 220
f 187 220 188
f 188 220 221
f 188 221 189
f 189 221 222
f 189 222 190
f 190 222 223
f 190 223 191
f 191 223 224
f 191 224 192
f 192 224 193
f 192 193 161
f 193 225 226
f 193 226 194
f 194 226 227
f 194 227 195
f 195 227 228
f 195 228 196
f 196 228 229
f 196 229 197
f 197 229 230
f 197 230 198
f 198 230 231
f 198 231 199
f 199 231 232
f 199 232 200
f 200 232 233
f 200 233 201
f 201 233 234
f 201 234 202
f 202 234 235
f 202 235 203
f 203 235 236
f 203 236 204
f 204 236 237
f 204 237 205
f 205 237 238
f 205 238 206
f 206 238 239
f 206 239 207
f 207 239 240
f 207 240 208
f 208 240 241
f 208 241 209
f 209 241 242
f 209 242 210
f 210 242 243
f 210 243 211
f 211 243 244
f 211 244 212
f 212 244 245
f 212 245 213
f 213 245 246
f 213 246 214
f 214 246 247
f 214 247 215
f 215 247 248
f 215 248 216
f 216 248 249
f 216 249 217
f 217 249 250
f 217 250 218
f 218 250 251
f 218 251 219
f 219 251 252
f 219 252 220
f 220 252 253
f 220 253 221
f 221 253 254
f 221 254 222
f 222 254 255
f 222 255 223
f 223 255 256
f 223 256 224
f 224 256 225
f 224 225 193
f 225 257 258
f 225 258 226
f 226 258 259
f 226 259 227
f 227 259 260
f 227 260 228
f 228 260 261
f 228 261 229
f 229 261 262
f 229 262 230
f 230 262 263
f 230 263 231
f 231 263 264
f 231 264 232
f 232 264 265
f 232 265 233
f 233 265 266
f 233 266 234
f 234 266 267
f 234 267 235
f 235 267 268
f 235 268 236
f 236 268 269
f 236 269 237
f 237 269 270
f 237 270 238
f 238 270 271
f 238 271 239
f 239 271 272
f 239 272 240
f 240 272 273
f 240 273 241
f 241 273 274
f 241 274 242
f 242 274 275
f 242 275 243
f 243 275 276
f 243 276 244
f 244 276 277
f 244 277 245
f 245 277 278
f 245 278 246
f 246 278 279
f 246 279 247
f 247 279 280
f 247 280 248
f 248 280 281
f 248 281 249
f 249 281 282
f 249 282 250
f 250 282 283
f 250 283 251
f 251 283 284
f 251 284 252
f 252 284 285
f 252 285 253
f 253 285 286
f 253 286 254
f 254 286 287
f 254 287 255
f 255 287 288
f 255 288 256
f 256 288 257
f 256 257 225
f 289 291 292
f 289 292 290
f 291 293 294
f 291 294 292
f 293 295 296
f 293 296 294
f 295 297 298
f 295 298 296
f 297 299 300
f 297 300 298
f 299 301 302
f 299 302 300
f 301 303 304
f 301 304 302
f 303 289 290
f 303 290 304
f 305 307 308
f 305 308 306
f 307 309 310
f 307 310 308
f 309 311 312
f 309 312 310
f 311 313 314
f 311 314 312
f 313 315 316
f 313 316 314
f 315 317 318
f 315 318 316
f 317 319 320
f 317 320 318
f 319 305 306
f 319 306 320
f 321 323 324
f 321 324 322
f 323 325 326
f 323 326 324
f 325 327 328
f 325 328 326
f 327 329 330
f 327 330 328
f 329 331 332
f 329 332 330
f 331 333 334
f 331 334 332
f 333 335 336
f 333 336 334
f 335 321 322
f 335 322 336
f 337 339 340
f 337 340 338
f 339 341 342
f 339 342 340
f 341 343 344
f 341 344 342
f 343 345 346
f 343 346 344
f 345 347 348
f 345 348 346
f 347 349 350
f 347 350 348
f 349 351 352
f 349 352 350
f 351 337 338
f 351 338 352
