o bmg_assault_rifle
s 1
v -0.09000 -0.11000 -0.22050
v 0.09000 -0.11000 -0.22050
v 0.09000 0.11000 -0.22050
v -0.09000 0.11000 -0.22050
v -0.09000 -0.11000 0.32550
v 0.09000 -0.11000 0.32550
v 0.09000 0.11000 0.32550
v -0.09000 0.11000 0.32550
v -0.08000 -0.07000 -0.53550
v 0.08000 -0.07000 -0.53550
v 0.08000 0.11000 -0.53550
v -0.08000 0.11000 -0.53550
v -0.08000 -0.07000 -0.19950
v 0.08000 -0.07000 -0.19950
v 0.08000 0.11000 -0.19950
v -0.08000 0.11000 -0.19950
v -0.06500 -0.37000 -0.06000
v 0.06500 -0.37000 -0.06000
v 0.06500 -0.03000 -0.06000
v -0.06500 -0.03000 -0.06000
v -0.06500 -0.37000 0.12000
v 0.06500 -0.37000 0.12000
v 0.06500 -0.03000 0.12000
v -0.06500 -0.03000 0.12000
v 0.04500 0.00000 0.23625
v 0.04500 0.00000 0.81375
v 0.04229 0.01539 0.23625
v 0.04229 0.01539 0.81375
v 0.03447 0.02893 0.23625
v 0.03447 0.02893 0.81375
v 0.02250 0.03897 0.23625
v 0.02250 0.03897 0.81375
v 0.00781 0.04432 0.23625
v 0.00781 0.04432 0.81375
v -0.00781 0.04432 0.23625
v -0.00781 0.04432 0.81375
v -0.02250 0.03897 0.23625
v -0.02250 0.03897 0.81375
v -0.03447 0.02893 0.23625
v -0.03447 0.02893 0.81375
v -0.04229 0.01539 0.23625
v -0.04229 0.01539 0.81375
v -0.04500 0.00000 0.23625
v -0.04500 0.00000 0.81375
v -0.04229 -0.01539 0.23625
v -0.04229 -0.01539 0.81375
v -0.03447 -0.02893 0.23625
v -0.03447 -0.02893 0.81375
v -0.02250 -0.03897 0.23625
v -0.02250 -0.03897 0.81375
v -0.00781 -0.04432 0.23625
v -0.00781 -0.04432 0.81375
v 0.00781 -0.04432 0.23625
v 0.00781 -0.04432 0.81375
v 0.02250 -0.03897 0.23625
v 0.02250 -0.03897 0.81375
v 0.03447 -0.02893 0.23625
v 0.03447 -0.02893 0.81375
v 0.04229 -0.01539 0.23625
v 0.04229 -0.01539 0.81375
v 0.06500 0.00000 0.75950
v 0.06500 0.00000 0.89950
v 0.06108 0.02223 0.75950
v 0.06108 0.02223 0.89950
v 0.04979 0.04178 0.75950
v 0.04979 0.04178 0.89950
v 0.03250 0.05629 0.75950
v 0.03250 0.05629 0.89950
v 0.01129 0.06401 0.75950
v 0.01129 0.06401 0.89950
v -0.01129 0.06401 0.75950
v -0.01129 0.06401 0.89950
v -0.03250 0.05629 0.75950
v -0.03250 0.05629 0.89950
v -0.04979 0.04178 0.75950
v -0.04979 0.04178 0.89950
v -0.06108 0.02223 0.75950
v -0.06108 0.02223 0.89950
v -0.06500 0.00000 0.75950
v -0.06500 0.00000 0.89950
v -0.06108 -0.02223 0.75950
v -0.06108 -0.02223 0.89950
v -0.04979 -0.04178 0.75950
v -0.04979 -0.04178 0.89950
v -0.03250 -0.05629 0.75950
v -0.03250 -0.05629 0.89950
v -0.01129 -0.06401 0.75950
v -0.01129 -0.06401 0.89950
v 0.01129 -0.06401 0.75950
v 0.01129 -0.06401 0.89950
v 0.03250 -0.05629 0.75950
v 0.03250 -0.05629 0.89950
v 0.04979 -0.04178 0.75950
v 0.04979 -0.04178 0.89950
v 0.06108 -0.02223 0.75950
v 0.06108 -0.02223 0.89950
v -0.04500 0.12500 -0.12000
v 0.04500 0.12500 -0.12000
v 0.04500 0.19500 -0.12000
v -0.04500 0.19500 -0.12000
v -0.04500 0.12500 0.22000
v 0.04500 0.12500 0.22000
v 0.04500 0.19500 0.22000
v -0.04500 0.19500 0.22000
v 0.07500 0.22000 -0.01000
v 0.07500 0.22000 0.17000
v 0.07048 0.24565 -0.01000
v 0.07048 0.24565 0.17000
v 0.05745 0.26821 -0.01000
v 0.05745 0.26821 0.17000
v 0.03750 0.28495 -0.01000
v 0.03750 0.28495 0.17000
v 0.01302 0.29386 -0.01000
v 0.01302 0.29386 0.17000
v -0.01302 0.29386 -0.01000
v -0.01302 0.29386 0.17000
v -0.03750 0.28495 -0.01000
v -0.03750 0.28495 0.17000
v -0.05745 0.26821 -0.01000
v -0.05745 0.26821 0.17000
v -0.07048 0.24565 -0.01000
v -0.07048 0.24565 0.17000
v -0.07500 0.22000 -0.01000
v -0.07500 0.22000 0.17000
v -0.07048 0.19435 -0.01000
v -0.07048 0.19435 0.17000
v -0.05745 0.17179 -0.01000
v -0.05745 0.17179 0.17000
v -0.03750 0.15505 -0.01000
v -0.03750 0.15505 0.17000
v -0.01302 0.14614 -0.01000
v -0.01302 0.14614 0.17000
v 0.01302 0.14614 -0.01000
v 0.01302 0.14614 0.17000
v 0.03750 0.15505 -0.01000
v 0.03750 0.15505 0.17000
v 0.05745 0.17179 -0.01000
v 0.05745 0.17179 0.17000
v 0.07048 0.19435 -0.01000
v 0.07048 0.19435 0.17000
v -0.05500 -0.31000 0.17650
v 0.05500 -0.31000 0.17650
v 0.05500 -0.01000 0.17650
v -0.05500 -0.01000 0.17650
v -0.05500 -0.31000 0.30650
v 0.05500 -0.31000 0.30650
v 0.05500 -0.01000 0.30650
v -0.05500 -0.01000 0.30650
f 1 2 3
f 1 3 4
f 5 8 7
f 5 7 6
f 1 5 6
f 1 6 2
f 2 6 7
f 2 7 3
f 3 7 8
f 3 8 4
f 5 1 4
f 5 4 8
f 9 10 11
f 9 11 12
f 13 16 15
f 13 15 14
f 9 13 14
f 9 14 10
f 10 14 15
f 10 15 11
f 11 15 16
f 11 16 12
f 13 9 12
f 13 12 16
f 17 18 19
f 17 19 20
f 21 24 23
f 21 23 22
f 17 21 22
f 17 22 18
f 18 22 23
f 18 23 19
f 19 23 24
f 19 24 20
f 21 17 20
f 21 20 24
f 25 27 28
f 25 28 26
f 27 29 30
f 27 30 28
f 29 31 32
f 29 32 30
f 31 33 34
f 31 34 32
f 33 35 36
f 33 36 34
f 35 37 38
f 35 38 36
f 37 39 40
f 37 40 38
f 39 41 42
f 39 42 40
f 41 43 44
f 41 44 42
f 43 45 46
f 43 46 44
f 45 47 48
f 45 48 46
f 47 49 50
f 47 50 48
f 49 51 52
f 49 52 50
f 51 53 54
f 51 54 52
f 53 55 56
f 53 56 54
f 55 57 58
f 55 58 56
f 57 59 60
f 57 60 58
f 59 25 26
f 59 26 60
f 61 63 64
f 61 64 62
f 63 65 66
f 63 66 64
f 65 67 68
f 65 68 66
f 67 69 70
f 67 70 68
f 69 71 72
f 69 72 70
f 71 73 74
f 71 74 72
f 73 75 76
f 73 76 74
f 75 77 78
f 75 78 76
f 77 79 80
f 77 80 78
f 79 81 82
f 79 82 80
f 81 83 84
f 81 84 82
f 83 85 86
f 83 86 84
f 85 87 88
f 85 88 86
f 87 89 90
f 87 90 88
f 89 91 92
f 89 92 90
f 91 93 94
f 91 94 92
f 93 95 96
f 93 96 94
f 95 61 62
f 95 62 96
f 97 98 99
f 97 99 100
f 101 104 103
f 101 103 102
f 97 101 102
f 97 102 98
f 98 102 103
f 98 103 99
f 99 103 104
f 99 104 100
f 101 97 100
f 101 100 104
f 105 107 108
f 105 108 106
f 107 109 110
f 107 110 108
f 109 111 112
f 109 112 110
f 111 113 114
f 111 114 112
f 113 115 116
f 113 116 114
f 115 117 118
f 115 118 116
f 117 119 120
f 117 120 118
f 119 121 122
f 119 122 120
f 121 123 124
f 121 124 122
f 123 125 126
f 123 126 124
f 125 127 128
f 125 128 126
f 127 129 130
f 127 130 128
f 129 131 132
f 129 132 130
f 131 133 134
f 131 134 132
f 133 135 136
f 133 136 134
f 135 137 138
f 135 138 136
f 137 139 140
f 137 140 138
f 139 105 106
f 139 106 140
f 141 142 143
f 141 143 144
f 145 148 147
f 145 147 146
f 141 145 146
f 141 146 142
f 142 146 147
f 142 147 143
f 143 147 148
f 143 148 144
f 145 141 144
f 145 144 148
