o bmg_character_01
s 1
v -0.08500 0.15500 0.00000
v -0.08500 1.20500 0.00000
v -0.09284 0.15500 0.04446
v -0.09284 1.20500 0.04446
v -0.11541 0.15500 0.08356
v -0.11541 1.20500 0.08356
v -0.15000 0.15500 0.11258
v -0.15000 1.20500 0.11258
v -0.19243 0.15500 0.12803
v -0.19243 1.20500 0.12803
v -0.23757 0.15500 0.12803
v -0.23757 1.20500 0.12803
v -0.28000 0.15500 0.11258
v -0.28000 1.20500 0.11258
v -0.31459 0.15500 0.08356
v -0.31459 1.20500 0.08356
v -0.33716 0.15500 0.04446
v -0.33716 1.20500 0.04446
v -0.34500 0.15500 0.00000
v -0.34500 1.20500 0.00000
v -0.33716 0.15500 -0.04446
v -0.33716 1.20500 -0.04446
v -0.31459 0.15500 -0.08356
v -0.31459 1.20500 -0.08356
v -0.28000 0.15500 -0.11258
v -0.28000 1.20500 -0.11258
v -0.23757 0.15500 -0.12803
v -0.23757 1.20500 -0.12803
v -0.19243 0.15500 -0.12803
v -0.19243 1.20500 -0.12803
v -0.15000 0.15500 -0.11258
v -0.15000 1.20500 -0.11258
v -0.11541 0.15500 -0.08356
v -0.11541 1.20500 -0.08356
v -0.09284 0.15500 -0.04446
v -0.09284 1.20500 -0.04446
v -0.06500 0.14000 -0.07000
v -0.06500 0.14000 0.23000
v -0.07405 0.19130 -0.07000
v -0.07405 0.19130 0.23000
v -0.10009 0.23642 -0.07000
v -0.10009 0.23642 0.23000
v -0.14000 0.26990 -0.07000
v -0.14000 0.26990 0.23000
v -0.18895 0.28772 -0.07000
v -0.18895 0.28772 0.23000
v -0.24105 0.28772 -0.07000
v -0.24105 0.28772 0.23000
v -0.29000 0.26990 -0.07000
v -0.29000 0.26990 0.23000
v -0.32991 0.23642 -0.07000
v -0.32991 0.23642 0.23000
v -0.35595 0.19130 -0.07000
v -0.35595 0.19130 0.23000
v -0.36500 0.14000 -0.07000
v -0.36500 0.14000 0.23000
v -0.35595 0.08870 -0.07000
v -0.35595 0.08870 0.23000
v -0.32991 0.04358 -0.07000
v -0.32991 0.04358 0.23000
v -0.29000 0.01010 -0.07000
v -0.29000 0.01010 0.23000
v -0.24105 -0.00772 -0.07000
v -0.24105 -0.00772 0.23000
v -0.18895 -0.00772 -0.07000
v -0.18895 -0.00772 0.23000
v -0.14000 0.01010 -0.07000
v -0.14000 0.01010 0.23000
v -0.10009 0.04358 -0.07000
v -0.10009 0.04358 0.23000
v -0.07405 0.08870 -0.07000
v -0.07405 0.08870 0.23000
v 0.34500 0.15500 0.00000
v 0.34500 1.20500 0.00000
v 0.33716 0.15500 0.04446
v 0.33716 1.20500 0.04446
v 0.31459 0.15500 0.08356
v 0.31459 1.20500 0.08356
v 0.28000 0.15500 0.11258
v 0.28000 1.20500 0.11258
v 0.23757 0.15500 0.12803
v 0.23757 1.20500 0.12803
v 0.19243 0.15500 0.12803
v 0.19243 1.20500 0.12803
v 0.15000 0.15500 0.11258
v 0.15000 1.20500 0.11258
v 0.11541 0.15500 0.08356
v 0.11541 1.20500 0.08356
v 0.09284 0.15500 0.04446
v 0.09284 1.20500 0.04446
v 0.08500 0.15500 0.00000
v 0.08500 1.20500 0.00000
v 0.09284 0.15500 -0.04446
v 0.09284 1.20500 -0.04446
v 0.11541 0.15500 -0.08356
v 0.11541 1.20500 -0.08356
v 0.15000 0.15500 -0.11258
v 0.15000 1.20500 -0.11258
v 0.19243 0.15500 -0.12803
v 0.19243 1.20500 -0.12803
v 0.23757 0.15500 -0.12803
v 0.23757 1.20500 -0.12803
v 0.28000 0.15500 -0.11258
v 0.28000 1.20500 -0.11258
v 0.31459 0.15500 -0.08356
v 0.31459 1.20500 -0.08356
v 0.33716 0.15500 -0.04446
v 0.33716 1.20500 -0.04446
v 0.36500 0.14000 -0.07000
v 0.36500 0.14000 0.23000
v 0.35595 0.19130 -0.07000
v 0.35595 0.19130 0.23000
v 0.32991 0.23642 -0.07000
v 0.32991 0.23642 0.23000
v 0.29000 0.26990 -0.07000
v 0.29000 0.26990 0.23000
v 0.24105 0.28772 -0.07000
v 0.24105 0.28772 0.23000
v 0.18895 0.28772 -0.07000
v 0.18895 0.28772 0.23000
v 0.14000 0.26990 -0.07000
v 0.14000 0.26990 0.23000
v 0.10009 0.23642 -0.07000
v 0.10009 0.23642 0.23000
v 0.07405 0.19130 -0.07000
v 0.07405 0.19130 0.23000
v 0.06500 0.14000 -0.07000
v 0.06500 0.14000 0.23000
v 0.07405 0.08870 -0.07000
v 0.07405 0.08870 0.23000
v 0.10009 0.04358 -0.07000
v 0.10009 0.04358 0.23000
v 0.14000 0.01010 -0.07000
v 0.14000 0.01010 0.23000
v 0.18895 -0.00772 -0.07000
v 0.18895 -0.00772 0.23000
v 0.24105 -0.00772 -0.07000
v 0.24105 -0.00772 0.23000
v 0.29000 0.01010 -0.07000
v 0.29000 0.01010 0.23000
v 0.32991 0.04358 -0.07000
v 0.32991 0.04358 0.23000
v 0.35595 0.08870 -0.07000
v 0.35595 0.08870 0.23000
v 0.15636 1.96154 0.00000
v 0.14871 1.96154 0.02521
v 0.12650 1.96154 0.04795
v 0.09191 1.96154 0.06600
v 0.04832 1.96154 0.07759
v 0.00000 1.96154 0.08158
v -0.04832 1.96154 0.07759
v -0.09191 1.96154 0.06600
v -0.12650 1.96154 0.04795
v -0.14871 1.96154 0.02521
v -0.15636 1.96154 0.00000
v -0.14871 1.96154 -0.02521
v -0.12650 1.96154 -0.04795
v -0.09191 1.96154 -0.06600
v -0.04832 1.96154 -0.07759
v -0.00000 1.96154 -0.08158
v 0.04832 1.96154 -0.07759
v 0.09191 1.96154 -0.06600
v 0.12650 1.96154 -0.04795
v 0.14871 1.96154 -0.02521
v 0.29742 1.87170 0.00000
v 0.28286 1.87170 0.04795
v 0.24062 1.87170 0.09121
v 0.17482 1.87170 0.12554
v 0.09191 1.87170 0.14758
v 0.00000 1.87170 0.15518
v -0.09191 1.87170 0.14758
v -0.17482 1.87170 0.12554
v -0.24062 1.87170 0.09121
v -0.28286 1.87170 0.04795
v -0.29742 1.87170 0.00000
v -0.28286 1.87170 -0.04795
v -0.24062 1.87170 -0.09121
v -0.17482 1.87170 -0.12554
v -0.09191 1.87170 -0.14758
v -0.00000 1.87170 -0.15518
v 0.09191 1.87170 -0.14758
v 0.17482 1.87170 -0.12554
v 0.24062 1.87170 -0.09121
v 0.28286 1.87170 -0.04795
v 0.40936 1.73177 0.00000
v 0.38933 1.73177 0.06600
v 0.33118 1.73177 0.12554
v 0.24062 1.73177 0.17279
v 0.12650 1.73177 0.20313
v 0.00000 1.73177 0.21358
v -0.12650 1.73177 0.20313
v -0.24062 1.73177 0.17279
v -0.33118 1.73177 0.12554
v -0.38933 1.73177 0.06600
v -0.40936 1.73177 0.00000
v -0.38933 1.73177 -0.06600
v -0.33118 1.73177 -0.12554
v -0.24062 1.73177 -0.17279
v -0.12650 1.73177 -0.20313
v -0.00000 1.73177 -0.21358
v 0.12650 1.73177 -0.20313
v 0.24062 1.73177 -0.17279
v 0.33118 1.73177 -0.12554
v 0.38933 1.73177 -0.06600
v 0.48123 1.55545 0.00000
v 0.45768 1.55545 0.07759
v 0.38933 1.55545 0.14758
v 0.28286 1.55545 0.20313
v 0.14871 1.55545 0.23879
v 0.00000 1.55545 0.25108
v -0.14871 1.55545 0.23879
v -0.28286 1.55545 0.20313
v -0.38933 1.55545 0.14758
v -0.45768 1.55545 0.07759
v -0.48123 1.55545 0.00000
v -0.45768 1.55545 -0.07759
v -0.38933 1.55545 -0.14758
v -0.28286 1.55545 -0.20313
v -0.14871 1.55545 -0.23879
v -0.00000 1.55545 -0.25108
v 0.14871 1.55545 -0.23879
v 0.28286 1.55545 -0.20313
v 0.38933 1.55545 -0.14758
v 0.45768 1.55545 -0.07759
v 0.50600 1.36000 0.00000
v 0.48123 1.36000 0.08158
v 0.40936 1.36000 0.15518
v 0.29742 1.36000 0.21358
v 0.15636 1.36000 0.25108
v 0.00000 1.36000 0.26400
v -0.15636 1.36000 0.25108
v -0.29742 1.36000 0.21358
v -0.40936 1.36000 0.15518
v -0.48123 1.36000 0.08158
v -0.50600 1.36000 0.00000
v -0.48123 1.36000 -0.08158
v -0.40936 1.36000 -0.15518
v -0.29742 1.36000 -0.21358
v -0.15636 1.36000 -0.25108
v -0.00000 1.36000 -0.26400
v 0.15636 1.36000 -0.25108
v 0.29742 1.36000 -0.21358
v 0.40936 1.36000 -0.15518
v 0.48123 1.36000 -0.08158
v 0.48123 1.16455 0.00000
v 0.45768 1.16455 0.07759
v 0.38933 1.16455 0.14758
v 0.28286 1.16455 0.20313
v 0.14871 1.16455 0.23879
v 0.00000 1.16455 0.25108
v -0.14871 1.16455 0.23879
v -0.28286 1.16455 0.20313
v -0.38933 1.16455 0.14758
v -0.45768 1.16455 0.07759
v -0.48123 1.16455 0.00000
v -0.45768 1.16455 -0.07759
v -0.38933 1.16455 -0.14758
v -0.28286 1.16455 -0.20313
v -0.14871 1.16455 -0.23879
v -0.00000 1.16455 -0.25108
v 0.14871 1.16455 -0.23879
v 0.28286 1.16455 -0.20313
v 0.38933 1.16455 -0.14758
v 0.45768 1.16455 -0.07759
v 0.40936 0.98823 0.00000
v 0.38933 0.98823 0.06600
v 0.33118 0.98823 0.12554
v 0.24062 0.98823 0.17279
v 0.12650 0.98823 0.20313
v 0.00000 0.98823 0.21358
v -0.12650 0.98823 0.20313
v -0.24062 0.98823 0.17279
v -0.33118 0.98823 0.12554
v -0.38933 0.98823 0.06600
v -0.40936 0.98823 0.00000
v -0.38933 0.98823 -0.06600
v -0.33118 0.98823 -0.12554
v -0.24062 0.98823 -0.17279
v -0.12650 0.98823 -0.20313
v -0.00000 0.98823 -0.21358
v 0.12650 0.98823 -0.20313
v 0.24062 0.98823 -0.17279
v 0.33118 0.98823 -0.12554
v 0.38933 0.98823 -0.06600
v 0.29742 0.84830 0.00000
v 0.28286 0.84830 0.04795
v 0.24062 0.84830 0.09121
v 0.17482 0.84830 0.12554
v 0.09191 0.84830 0.14758
v 0.00000 0.84830 0.15518
v -0.09191 0.84830 0.14758
v -0.17482 0.84830 0.12554
v -0.24062 0.84830 0.09121
v -0.28286 0.84830 0.04795
v -0.29742 0.84830 0.00000
v -0.28286 0.84830 -0.04795
v -0.24062 0.84830 -0.09121
v -0.17482 0.84830 -0.12554
v -0.09191 0.84830 -0.14758
v -0.00000 0.84830 -0.15518
v 0.09191 0.84830 -0.14758
v 0.17482 0.84830 -0.12554
v 0.24062 0.84830 -0.09121
v 0.28286 0.84830 -0.04795
v 0.15636 0.75846 0.00000
v 0.14871 0.75846 0.02521
v 0.12650 0.75846 0.04795
v 0.09191 0.75846 0.06600
v 0.04832 0.75846 0.07759
v 0.00000 0.75846 0.08158
v -0.04832 0.75846 0.07759
v -0.09191 0.75846 0.06600
v -0.12650 0.75846 0.04795
v -0.14871 0.75846 0.02521
v -0.15636 0.75846 0.00000
v -0.14871 0.75846 -0.02521
v -0.12650 0.75846 -0.04795
v -0.09191 0.75846 -0.06600
v -0.04832 0.75846 -0.07759
v -0.00000 0.75846 -0.08158
v 0.04832 0.75846 -0.07759
v 0.09191 0.75846 -0.06600
v 0.12650 0.75846 -0.04795
v 0.14871 0.75846 -0.02521
v 0.00000 1.99250 0.00000
v 0.00000 0.72750 0.00000
v -0.46000 1.07000 -0.16000
v 0.46000 1.07000 -0.16000
v 0.46000 1.69000 -0.16000
v -0.46000 1.69000 -0.16000
v -0.46000 1.07000 0.20000
v 0.46000 1.07000 0.20000
v 0.46000 1.69000 0.20000
v -0.46000 1.69000 0.20000
v -0.41500 0.93000 0.00000
v -0.41500 1.83000 0.00000
v -0.42299 0.93000 0.04018
v -0.42299 1.83000 0.04018
v -0.44575 0.93000 0.07425
v -0.44575 1.83000 0.07425
v -0.47982 0.93000 0.09701
v -0.47982 1.83000 0.09701
v -0.52000 0.93000 0.10500
v -0.52000 1.83000 0.10500
v -0.56018 0.93000 0.09701
v -0.56018 1.83000 0.09701
v -0.59425 0.93000 0.07425
v -0.59425 1.83000 0.07425
v -0.61701 0.93000 0.04018
v -0.61701 1.83000 0.04018
v -0.62500 0.93000 0.00000
v -0.62500 1.83000 0.00000
v -0.61701 0.93000 -0.04018
v -0.61701 1.83000 -0.04018
v -0.59425 0.93000 -0.07425
v -0.59425 1.83000 -0.07425
v -0.56018 0.93000 -0.09701
v -0.56018 1.83000 -0.09701
v -0.52000 0.93000 -0.10500
v -0.52000 1.83000 -0.10500
v -0.47982 0.93000 -0.09701
v -0.47982 1.83000 -0.09701
v -0.44575 0.93000 -0.07425
v -0.44575 1.83000 -0.07425
v -0.42299 0.93000 -0.04018
v -0.42299 1.83000 -0.04018
v -0.46793 1.01812 0.02000
v -0.47309 1.01812 0.04259
v -0.48754 1.01812 0.06071
v -0.50841 1.01812 0.07076
v -0.53159 1.01812 0.07076
v -0.55246 1.01812 0.06071
v -0.56691 1.01812 0.04259
v -0.57207 1.01812 0.02000
v -0.56691 1.01812 -0.00259
v -0.55246 1.01812 -0.02071
v -0.53159 1.01812 -0.03076
v -0.50841 1.01812 -0.03076
v -0.48754 1.01812 -0.02071
v -0.47309 1.01812 -0.00259
v -0.42618 0.98482 0.02000
v -0.43547 0.98482 0.06071
v -0.46150 0.98482 0.09335
v -0.49912 0.98482 0.11147
v -0.54088 0.98482 0.11147
v -0.57850 0.98482 0.09335
v -0.60453 0.98482 0.06071
v -0.61382 0.98482 0.02000
v -0.60453 0.98482 -0.02071
v -0.57850 0.98482 -0.05335
v -0.54088 0.98482 -0.07147
v -0.49912 0.98482 -0.07147
v -0.46150 0.98482 -0.05335
v -0.43547 0.98482 -0.02071
v -0.40301 0.93670 0.02000
v -0.41459 0.93670 0.07076
v -0.44706 0.93670 0.11147
v -0.49397 0.93670 0.13406
v -0.54603 0.93670 0.13406
v -0.59294 0.93670 0.11147
v -0.62541 0.93670 0.07076
v -0.63699 0.93670 0.02000
v -0.62541 0.93670 -0.03076
v -0.59294 0.93670 -0.07147
v -0.54603 0.93670 -0.09406
v -0.49397 0.93670 -0.09406
v -0.44706 0.93670 -0.07147
v -0.41459 0.93670 -0.03076
v -0.40301 0.88330 0.02000
v -0.41459 0.88330 0.07076
v -0.44706 0.88330 0.11147
v -0.49397 0.88330 0.13406
v -0.54603 0.88330 0.13406
v -0.59294 0.88330 0.11147
v -0.62541 0.88330 0.07076
v -0.63699 0.88330 0.02000
v -0.62541 0.88330 -0.03076
v -0.59294 0.88330 -0.07147
v -0.54603 0.88330 -0.09406
v -0.49397 0.88330 -0.09406
v -0.44706 0.88330 -0.07147
v -0.41459 0.88330 -0.03076
v -0.42618 0.83518 0.02000
v -0.43547 0.83518 0.06071
v -0.46150 0.83518 0.09335
v -0.49912 0.83518 0.11147
v -0.54088 0.83518 0.11147
v -0.57850 0.83518 0.09335
v -0.60453 0.83518 0.06071
v -0.61382 0.83518 0.02000
v -0.60453 0.83518 -0.02071
v -0.57850 0.83518 -0.05335
v -0.54088 0.83518 -0.07147
v -0.49912 0.83518 -0.07147
v -0.46150 0.83518 -0.05335
v -0.43547 0.83518 -0.02071
v -0.46793 0.80188 0.02000
v -0.47309 0.80188 0.04259
v -0.48754 0.80188 0.06071
v -0.50841 0.80188 0.07076
v -0.53159 0.80188 0.07076
v -0.55246 0.80188 0.06071
v -0.56691 0.80188 0.04259
v -0.57207 0.80188 0.02000
v -0.56691 0.80188 -0.00259
v -0.55246 0.80188 -0.02071
v -0.53159 0.80188 -0.03076
v -0.50841 0.80188 -0.03076
v -0.48754 0.80188 -0.02071
v -0.47309 0.80188 -0.00259
v -0.52000 1.03000 0.02000
v -0.52000 0.79000 0.02000
v 0.62500 0.93000 0.00000
v 0.62500 1.83000 0.00000
v 0.61701 0.93000 0.04018
v 0.61701 1.83000 0.04018
v 0.59425 0.93000 0.07425
v 0.59425 1.83000 0.07425
v 0.56018 0.93000 0.09701
v 0.56018 1.83000 0.09701
v 0.52000 0.93000 0.10500
v 0.52000 1.83000 0.10500
v 0.47982 0.93000 0.09701
v 0.47982 1.83000 0.09701
v 0.44575 0.93000 0.07425
v 0.44575 1.83000 0.07425
v 0.42299 0.93000 0.04018
v 0.42299 1.83000 0.04018
v 0.41500 0.93000 0.00000
v 0.41500 1.83000 0.00000
v 0.42299 0.93000 -0.04018
v 0.42299 1.83000 -0.04018
v 0.44575 0.93000 -0.07425
v 0.44575 1.83000 -0.07425
v 0.47982 0.93000 -0.09701
v 0.47982 1.83000 -0.09701
v 0.52000 0.93000 -0.10500
v 0.52000 1.83000 -0.10500
v 0.56018 0.93000 -0.09701
v 0.56018 1.83000 -0.09701
v 0.59425 0.93000 -0.07425
v 0.59425 1.83000 -0.07425
v 0.61701 0.93000 -0.04018
v 0.61701 1.83000 -0.04018
v 0.57207 1.01812 0.02000
v 0.56691 1.01812 0.04259
v 0.55246 1.01812 0.06071
v 0.53159 1.01812 0.07076
v 0.50841 1.01812 0.07076
v 0.48754 1.01812 0.06071
v 0.47309 1.01812 0.04259
v 0.46793 1.01812 0.02000
v 0.47309 1.01812 -0.00259
v 0.48754 1.01812 -0.02071
v 0.50841 1.01812 -0.03076
v 0.53159 1.01812 -0.03076
v 0.55246 1.01812 -0.02071
v 0.56691 1.01812 -0.00259
v 0.61382 0.98482 0.02000
v 0.60453 0.98482 0.06071
v 0.57850 0.98482 0.09335
v 0.54088 0.98482 0.11147
v 0.49912 0.98482 0.11147
v 0.46150 0.98482 0.09335
v 0.43547 0.98482 0.06071
v 0.42618 0.98482 0.02000
v 0.43547 0.98482 -0.02071
v 0.46150 0.98482 -0.05335
v 0.49912 0.98482 -0.07147
v 0.54088 0.98482 -0.07147
v 0.57850 0.98482 -0.05335
v 0.60453 0.98482 -0.02071
v 0.63699 0.93670 0.02000
v 0.62541 0.93670 0.07076
v 0.59294 0.93670 0.11147
v 0.54603 0.93670 0.13406
v 0.49397 0.93670 0.13406
v 0.44706 0.93670 0.11147
v 0.41459 0.93670 0.07076
v 0.40301 0.93670 0.02000
v 0.41459 0.93670 -0.03076
v 0.44706 0.93670 -0.07147
v 0.49397 0.93670 -0.09406
v 0.54603 0.93670 -0.09406
v 0.59294 0.93670 -0.07147
v 0.62541 0.93670 -0.03076
v 0.63699 0.88330 0.02000
v 0.62541 0.88330 0.07076
v 0.59294 0.88330 0.11147
v 0.54603 0.88330 0.13406
v 0.49397 0.88330 0.13406
v 0.44706 0.88330 0.11147
v 0.41459 0.88330 0.07076
v 0.40301 0.88330 0.02000
v 0.41459 0.88330 -0.03076
v 0.44706 0.88330 -0.07147
v 0.49397 0.88330 -0.09406
v 0.54603 0.88330 -0.09406
v 0.59294 0.88330 -0.07147
v 0.62541 0.88330 -0.03076
v 0.61382 0.83518 0.02000
v 0.60453 0.83518 0.06071
v 0.57850 0.83518 0.09335
v 0.54088 0.83518 0.11147
v 0.49912 0.83518 0.11147
v 0.46150 0.83518 0.09335
v 0.43547 0.83518 0.06071
v 0.42618 0.83518 0.02000
v 0.43547 0.83518 -0.02071
v 0.46150 0.83518 -0.05335
v 0.49912 0.83518 -0.07147
v 0.54088 0.83518 -0.07147
v 0.57850 0.83518 -0.05335
v 0.60453 0.83518 -0.02071
v 0.57207 0.80188 0.02000
v 0.56691 0.80188 0.04259
v 0.55246 0.80188 0.06071
v 0.53159 0.80188 0.07076
v 0.50841 0.80188 0.07076
v 0.48754 0.80188 0.06071
v 0.47309 0.80188 0.04259
v 0.46793 0.80188 0.02000
v 0.47309 0.80188 -0.00259
v 0.48754 0.80188 -0.02071
v 0.50841 0.80188 -0.03076
v 0.53159 0.80188 -0.03076
v 0.55246 0.80188 -0.02071
v 0.56691 0.80188 -0.00259
v 0.52000 1.03000 0.02000
v 0.52000 0.79000 0.02000
v 0.08343 2.36958 0.00000
v 0.07935 2.36958 0.02578
v 0.06750 2.36958 0.04904
v 0.04904 2.36958 0.06750
v 0.02578 2.36958 0.07935
v 0.00000 2.36958 0.08343
v -0.02578 2.36958 0.07935
v -0.04904 2.36958 0.06750
v -0.06750 2.36958 0.04904
v -0.07935 2.36958 0.02578
v -0.08343 2.36958 0.00000
v -0.07935 2.36958 -0.02578
v -0.06750 2.36958 -0.04904
v -0.04904 2.36958 -0.06750
v -0.02578 2.36958 -0.07935
v -0.00000 2.36958 -0.08343
v 0.02578 2.36958 -0.07935
v 0.04904 2.36958 -0.06750
v 0.06750 2.36958 -0.04904
v 0.07935 2.36958 -0.02578
v 0.15870 2.32484 0.00000
v 0.15093 2.32484 0.04904
v 0.12839 2.32484 0.09328
v 0.09328 2.32484 0.12839
v 0.04904 2.32484 0.15093
v 0.00000 2.32484 0.15870
v -0.04904 2.32484 0.15093
v -0.09328 2.32484 0.12839
v -0.12839 2.32484 0.09328
v -0.15093 2.32484 0.04904
v -0.15870 2.32484 0.00000
v -0.15093 2.32484 -0.04904
v -0.12839 2.32484 -0.09328
v -0.09328 2.32484 -0.12839
v -0.04904 2.32484 -0.15093
v -0.00000 2.32484 -0.15870
v 0.04904 2.32484 -0.15093
v 0.09328 2.32484 -0.12839
v 0.12839 2.32484 -0.09328
v 0.15093 2.32484 -0.04904
v 0.21843 2.25515 0.00000
v 0.20774 2.25515 0.06750
v 0.17672 2.25515 0.12839
v 0.12839 2.25515 0.17672
v 0.06750 2.25515 0.20774
v 0.00000 2.25515 0.21843
v -0.06750 2.25515 0.20774
v -0.12839 2.25515 0.17672
v -0.17672 2.25515 0.12839
v -0.20774 2.25515 0.06750
v -0.21843 2.25515 0.00000
v -0.20774 2.25515 -0.06750
v -0.17672 2.25515 -0.12839
v -0.12839 2.25515 -0.17672
v -0.06750 2.25515 -0.20774
v -0.00000 2.25515 -0.21843
v 0.06750 2.25515 -0.20774
v 0.12839 2.25515 -0.17672
v 0.17672 2.25515 -0.12839
v 0.20774 2.25515 -0.06750
v 0.25679 2.16734 0.00000
v 0.24422 2.16734 0.07935
v 0.20774 2.16734 0.15093
v 0.15093 2.16734 0.20774
v 0.07935 2.16734 0.24422
v 0.00000 2.16734 0.25679
v -0.07935 2.16734 0.24422
v -0.15093 2.16734 0.20774
v -0.20774 2.16734 0.15093
v -0.24422 2.16734 0.07935
v -0.25679 2.16734 0.00000
v -0.24422 2.16734 -0.07935
v -0.20774 2.16734 -0.15093
v -0.15093 2.16734 -0.20774
v -0.07935 2.16734 -0.24422
v -0.00000 2.16734 -0.25679
v 0.07935 2.16734 -0.24422
v 0.15093 2.16734 -0.20774
v 0.20774 2.16734 -0.15093
v 0.24422 2.16734 -0.07935
v 0.27000 2.07000 0.00000
v 0.25679 2.07000 0.08343
v 0.21843 2.07000 0.15870
v 0.15870 2.07000 0.21843
v 0.08343 2.07000 0.25679
v 0.00000 2.07000 0.27000
v -0.08343 2.07000 0.25679
v -0.15870 2.07000 0.21843
v -0.21843 2.07000 0.15870
v -0.25679 2.07000 0.08343
v -0.27000 2.07000 0.00000
v -0.25679 2.07000 -0.08343
v -0.21843 2.07000 -0.15870
v -0.15870 2.07000 -0.21843
v -0.08343 2.07000 -0.25679
v -0.00000 2.07000 -0.27000
v 0.08343 2.07000 -0.25679
v 0.15870 2.07000 -0.21843
v 0.21843 2.07000 -0.15870
v 0.25679 2.07000 -0.08343
v 0.25679 1.97266 0.00000
v 0.24422 1.97266 0.07935
v 0.20774 1.97266 0.15093
v 0.15093 1.97266 0.20774
v 0.07935 1.97266 0.24422
v 0.00000 1.97266 0.25679
v -0.07935 1.97266 0.24422
v -0.15093 1.97266 0.20774
v -0.20774 1.97266 0.15093
v -0.24422 1.97266 0.07935
v -0.25679 1.97266 0.00000
v -0.24422 1.97266 -0.07935
v -0.20774 1.97266 -0.15093
v -0.15093 1.97266 -0.20774
v -0.07935 1.97266 -0.24422
v -0.00000 1.97266 -0.25679
v 0.07935 1.97266 -0.24422
v 0.15093 1.97266 -0.20774
v 0.20774 1.97266 -0.15093
v 0.24422 1.97266 -0.07935
v 0.21843 1.88485 0.00000
v 0.20774 1.88485 0.06750
v 0.17672 1.88485 0.12839
v 0.12839 1.88485 0.17672
v 0.06750 1.88485 0.20774
v 0.00000 1.88485 0.21843
v -0.06750 1.88485 0.20774
v -0.12839 1.88485 0.17672
v -0.17672 1.88485 0.12839
v -0.20774 1.88485 0.06750
v -0.21843 1.88485 0.00000
v -0.20774 1.88485 -0.06750
v -0.17672 1.88485 -0.12839
v -0.12839 1.88485 -0.17672
v -0.06750 1.88485 -0.20774
v -0.00000 1.88485 -0.21843
v 0.06750 1.88485 -0.20774
v 0.12839 1.88485 -0.17672
v 0.17672 1.88485 -0.12839
v 0.20774 1.88485 -0.06750
v 0.15870 1.81516 0.00000
v 0.15093 1.81516 0.04904
v 0.12839 1.81516 0.09328
v 0.09328 1.81516 0.12839
v 0.04904 1.81516 0.15093
v 0.00000 1.81516 0.15870
v -0.04904 1.81516 0.15093
v -0.09328 1.81516 0.12839
v -0.12839 1.81516 0.09328
v -0.15093 1.81516 0.04904
v -0.15870 1.81516 0.00000
v -0.15093 1.81516 -0.04904
v -0.12839 1.81516 -0.09328
v -0.09328 1.81516 -0.12839
v -0.04904 1.81516 -0.15093
v -0.00000 1.81516 -0.15870
v 0.04904 1.81516 -0.15093
v 0.09328 1.81516 -0.12839
v 0.12839 1.81516 -0.09328
v 0.15093 1.81516 -0.04904
v 0.08343 1.77042 0.00000
v 0.07935 1.77042 0.02578
v 0.06750 1.77042 0.04904
v 0.04904 1.77042 0.06750
v 0.02578 1.77042 0.07935
v 0.00000 1.77042 0.08343
v -0.02578 1.77042 0.07935
v -0.04904 1.77042 0.06750
v -0.06750 1.77042 0.04904
v -0.07935 1.77042 0.02578
v -0.08343 1.77042 0.00000
v -0.07935 1.77042 -0.02578
v -0.06750 1.77042 -0.04904
v -0.04904 1.77042 -0.06750
v -0.02578 1.77042 -0.07935
v -0.00000 1.77042 -0.08343
v 0.02578 1.77042 -0.07935
v 0.04904 1.77042 -0.06750
v 0.06750 1.77042 -0.04904
v 0.07935 1.77042 -0.02578
v 0.00000 2.38500 0.00000
v 0.00000 1.75500 0.00000
v 0.11287 2.39055 0.00000
v 0.10734 2.39055 0.03488
v 0.09131 2.39055 0.06634
v 0.06634 2.39055 0.09131
v 0.03488 2.39055 0.10734
v 0.00000 2.39055 0.11287
v -0.03488 2.39055 0.10734
v -0.06634 2.39055 0.09131
v -0.09131 2.39055 0.06634
v -0.10734 2.39055 0.03488
v -0.11287 2.39055 0.00000
v -0.10734 2.39055 -0.03488
v -0.09131 2.39055 -0.06634
v -0.06634 2.39055 -0.09131
v -0.03488 2.39055 -0.10734
v -0.00000 2.39055 -0.11287
v 0.03488 2.39055 -0.10734
v 0.06634 2.39055 -0.09131
v 0.09131 2.39055 -0.06634
v 0.10734 2.39055 -0.03488
v 0.21212 2.35904 0.00000
v 0.20174 2.35904 0.06555
v 0.17161 2.35904 0.12468
v 0.12468 2.35904 0.17161
v 0.06555 2.35904 0.20174
v 0.00000 2.35904 0.21212
v -0.06555 2.35904 0.20174
v -0.12468 2.35904 0.17161
v -0.17161 2.35904 0.12468
v -0.20174 2.35904 0.06555
v -0.21212 2.35904 0.00000
v -0.20174 2.35904 -0.06555
v -0.17161 2.35904 -0.12468
v -0.12468 2.35904 -0.17161
v -0.06555 2.35904 -0.20174
v -0.00000 2.35904 -0.21212
v 0.06555 2.35904 -0.20174
v 0.12468 2.35904 -0.17161
v 0.17161 2.35904 -0.12468
v 0.20174 2.35904 -0.06555
v 0.28579 2.31075 0.00000
v 0.27180 2.31075 0.08831
v 0.23121 2.31075 0.16798
v 0.16798 2.31075 0.23121
v 0.08831 2.31075 0.27180
v 0.00000 2.31075 0.28579
v -0.08831 2.31075 0.27180
v -0.16798 2.31075 0.23121
v -0.23121 2.31075 0.16798
v -0.27180 2.31075 0.08831
v -0.28579 2.31075 0.00000
v -0.27180 2.31075 -0.08831
v -0.23121 2.31075 -0.16798
v -0.16798 2.31075 -0.23121
v -0.08831 2.31075 -0.27180
v -0.00000 2.31075 -0.28579
v 0.08831 2.31075 -0.27180
v 0.16798 2.31075 -0.23121
v 0.23121 2.31075 -0.16798
v 0.27180 2.31075 -0.08831
v 0.32499 2.25152 0.00000
v 0.30908 2.25152 0.10043
v 0.26292 2.25152 0.19102
v 0.19102 2.25152 0.26292
v 0.10043 2.25152 0.30908
v 0.00000 2.25152 0.32499
v -0.10043 2.25152 0.30908
v -0.19102 2.25152 0.26292
v -0.26292 2.25152 0.19102
v -0.30908 2.25152 0.10043
v -0.32499 2.25152 0.00000
v -0.30908 2.25152 -0.10043
v -0.26292 2.25152 -0.19102
v -0.19102 2.25152 -0.26292
v -0.10043 2.25152 -0.30908
v -0.00000 2.25152 -0.32499
v 0.10043 2.25152 -0.30908
v 0.19102 2.25152 -0.26292
v 0.26292 2.25152 -0.19102
v 0.30908 2.25152 -0.10043
v 0.32499 2.18848 0.00000
v 0.30908 2.18848 0.10043
v 0.26292 2.18848 0.19102
v 0.19102 2.18848 0.26292
v 0.10043 2.18848 0.30908
v 0.00000 2.18848 0.32499
v -0.10043 2.18848 0.30908
v -0.19102 2.18848 0.26292
v -0.26292 2.18848 0.19102
v -0.30908 2.18848 0.10043
v -0.32499 2.18848 0.00000
v -0.30908 2.18848 -0.10043
v -0.26292 2.18848 -0.19102
v -0.19102 2.18848 -0.26292
v -0.10043 2.18848 -0.30908
v -0.00000 2.18848 -0.32499
v 0.10043 2.18848 -0.30908
v 0.19102 2.18848 -0.26292
v 0.26292 2.18848 -0.19102
v 0.30908 2.18848 -0.10043
v 0.28579 2.12925 0.00000
v 0.27180 2.12925 0.08831
v 0.23121 2.12925 0.16798
v 0.16798 2.12925 0.23121
v 0.08831 2.12925 0.27180
v 0.00000 2.12925 0.28579
v -0.08831 2.12925 0.27180
v -0.16798 2.12925 0.23121
v -0.23121 2.12925 0.16798
v -0.27180 2.12925 0.08831
v -0.28579 2.12925 0.00000
v -0.27180 2.12925 -0.08831
v -0.23121 2.12925 -0.16798
v -0.16798 2.12925 -0.23121
v -0.08831 2.12925 -0.27180
v -0.00000 2.12925 -0.28579
v 0.08831 2.12925 -0.27180
v 0.16798 2.12925 -0.23121
v 0.23121 2.12925 -0.16798
v 0.27180 2.12925 -0.08831
v 0.21212 2.08096 0.00000
v 0.20174 2.08096 0.06555
v 0.17161 2.08096 0.12468
v 0.12468 2.08096 0.17161
v 0.06555 2.08096 0.20174
v 0.00000 2.08096 0.21212
v -0.06555 2.08096 0.20174
v -0.12468 2.08096 0.17161
v -0.17161 2.08096 0.12468
v -0.20174 2.08096 0.06555
v -0.21212 2.08096 0.00000
v -0.20174 2.08096 -0.06555
v -0.17161 2.08096 -0.12468
v -0.12468 2.08096 -0.17161
v -0.06555 2.08096 -0.20174
v -0.00000 2.08096 -0.21212
v 0.06555 2.08096 -0.20174
v 0.12468 2.08096 -0.17161
v 0.17161 2.08096 -0.12468
v 0.20174 2.08096 -0.06555
v 0.11287 2.04945 0.00000
v 0.10734 2.04945 0.03488
v 0.09131 2.04945 0.06634
v 0.06634 2.04945 0.09131
v 0.03488 2.04945 0.10734
v 0.00000 2.04945 0.11287
v -0.03488 2.04945 0.10734
v -0.06634 2.04945 0.09131
v -0.09131 2.04945 0.06634
v -0.10734 2.04945 0.03488
v -0.11287 2.04945 0.00000
v -0.10734 2.04945 -0.03488
v -0.09131 2.04945 -0.06634
v -0.06634 2.04945 -0.09131
v -0.03488 2.04945 -0.10734
v -0.00000 2.04945 -0.11287
v 0.03488 2.04945 -0.10734
v 0.06634 2.04945 -0.09131
v 0.09131 2.04945 -0.06634
v 0.10734 2.04945 -0.03488
v 0.00000 2.40150 0.00000
v 0.00000 2.03850 0.00000
v -0.30000 1.07000 -0.45000
v 0.30000 1.07000 -0.45000
v 0.30000 1.77000 -0.45000
v -0.30000 1.77000 -0.45000
v -0.30000 1.07000 -0.23000
v 0.30000 1.07000 -0.23000
v 0.30000 1.77000 -0.23000
v -0.30000 1.77000 -0.23000
v -0.39000 1.02000 -0.02000
v 0.39000 1.02000 -0.02000
v 0.39000 1.16000 -0.02000
v -0.39000 1.16000 -0.02000
v -0.39000 1.02000 0.26000
v 0.39000 1.02000 0.26000
v 0.39000 1.16000 0.26000
v -0.39000 1.16000 0.26000
v -0.35000 0.93000 0.19000
v -0.17000 0.93000 0.19000
v -0.17000 1.15000 0.19000
v -0.35000 1.15000 0.19000
v -0.35000 0.93000 0.31000
v -0.17000 0.93000 0.31000
v -0.17000 1.15000 0.31000
v -0.35000 1.15000 0.31000
v -0.09000 0.93000 0.19000
v 0.09000 0.93000 0.19000
v 0.09000 1.15000 0.19000
v -0.09000 1.15000 0.19000
v -0.09000 0.93000 0.31000
v 0.09000 0.93000 0.31000
v 0.09000 1.15000 0.31000
v -0.09000 1.15000 0.31000
v 0.17000 0.93000 0.19000
v 0.35000 0.93000 0.19000
v 0.35000 1.15000 0.19000
v 0.17000 1.15000 0.19000
v 0.17000 0.93000 0.31000
v 0.35000 0.93000 0.31000
v 0.35000 1.15000 0.31000
v 0.17000 1.15000 0.31000
f 1 3 4
f 1 4 2
f 3 5 6
f 3 6 4
f 5 7 8
f 5 8 6
f 7 9 10
f 7 10 8
f 9 11 12
f 9 12 10
f 11 13 14
f 11 14 12
f 13 15 16
f 13 16 14
f 15 17 18
f 15 18 16
f 17 19 20
f 17 20 18
f 19 21 22
f 19 22 20
f 21 23 24
f 21 24 22
f 23 25 26
f 23 26 24
f 25 27 28
f 25 28 26
f 27 29 30
f 27 30 28
f 29 31 32
f 29 32 30
f 31 33 34
f 31 34 32
f 33 35 36
f 33 36 34
f 35 1 2
f 35 2 36
f 37 39 40
f 37 40 38
f 39 41 42
f 39 42 40
f 41 43 44
f 41 44 42
f 43 45 46
f 43 46 44
f 45 47 48
f 45 48 46
f 47 49 50
f 47 50 48
f 49 51 52
f 49 52 50
f 51 53 54
f 51 54 52
f 53 55 56
f 53 56 54
f 55 57 58
f 55 58 56
f 57 59 60
f 57 60 58
f 59 61 62
f 59 62 60
f 61 63 64
f 61 64 62
f 63 65 66
f 63 66 64
f 65 67 68
f 65 68 66
f 67 69 70
f 67 70 68
f 69 71 72
f 69 72 70
f 71 37 38
f 71 38 72
f 73 75 76
f 73 76 74
f 75 77 78
f 75 78 76
f 77 79 80
f 77 80 78
f 79 81 82
f 79 82 80
f 81 83 84
f 81 84 82
f 83 85 86
f 83 86 84
f 85 87 88
f 85 88 86
f 87 89 90
f 87 90 88
f 89 91 92
f 89 92 90
f 91 93 94
f 91 94 92
f 93 95 96
f 93 96 94
f 95 97 98
f 95 98 96
f 97 99 100
f 97 100 98
f 99 101 102
f 99 102 100
f 101 103 104
f 101 104 102
f 103 105 106
f 103 106 104
f 105 107 108
f 105 108 106
f 107 73 74
f 107 74 108
f 109 111 112
f 109 112 110
f 111 113 114
f 111 114 112
f 113 115 116
f 113 116 114
f 115 117 118
f 115 118 116
f 117 119 120
f 117 120 118
f 119 121 122
f 119 122 120
f 121 123 124
f 121 124 122
f 123 125 126
f 123 126 124
f 125 127 128
f 125 128 126
f 127 129 130
f 127 130 128
f 129 131 132
f 129 132 130
f 131 133 134
f 131 134 132
f 133 135 136
f 133 136 134
f 135 137 138
f 135 138 136
f 137 139 140
f 137 140 138
f 139 141 142
f 139 142 140
f 141 143 144
f 141 144 142
f 143 109 110
f 143 110 144
f 325 145 146
f 326 306 305
f 325 146 147
f 326 307 306
f 325 147 148
f 326 308 307
f 325 148 149
f 326 309 308
f 325 149 150
f 326 310 309
f 325 150 151
f 326 311 310
f 325 151 152
f 326 312 311
f 325 152 153
f 326 313 312
f 325 153 154
f 326 314 313
f 325 154 155
f 326 315 314
f 325 155 156
f 326 316 315
f 325 156 157
f 326 317 316
f 325 157 158
f 326 318 317
f 325 158 159
f 326 319 318
f 325 159 160
f 326 320 319
f 325 160 161
f 326 321 320
f 325 161 162
f 326 322 321
f 325 162 163
f 326 323 322
f 325 163 164
f 326 324 323
f 325 164 145
f 326 305 324
f 145 165 166
f 145 166 146
f 146 166 167
f 146 167 147
f 147 167 168
f 147 168 148
f 148 168 169
f 148 169 149
f 149 169 170
f 149 170 150
f 150 170 171
f 150 171 151
f 151 171 172
f 151 172 152
f 152 172 173
f 152 173 153
f 153 173 174
f 153 174 154
f 154 174 175
f 154 175 155
f 155 175 176
f 155 176 156
f 156 176 177
f 156 177 157
f 157 177 178
f 157 178 158
f 158 178 179
f 158 179 159
f 159 179 180
f 159 180 160
f 160 180 181
f 160 181 161
f 161 181 182
f 161 182 162
f 162 182 183
f 162 183 163
f 163 183 184
f 163 184 164
f 164 184 165
f 164 165 145
f 165 185 186
f 165 186 166
f 166 186 187
f 166 187 167
f 167 187 188
f 167 188 168
f 168 188 189
f 168 189 169
f 169 189 190
f 169 190 170
f 170 190 191
f 170 191 171
f 171 191 192
f 171 192 172
f 172 192 193
f 172 193 173
f 173 193 194
f 173 194 174
f 174 194 195
f 174 195 175
f 175 195 196
f 175 196 176
f 176 196 197
f 176 197 177
f 177 197 198
f 177 198 178
f 178 198 199
f 178 199 179
f 179 199 200
f 179 200 180
f 180 200 201
f 180 201 181
f 181 201 202
f 181 202 182
f 182 202 203
f 182 203 183
f 183 203 204
f 183 204 184
f 184 204 185
f 184 185 165
f 185 205 206
f 185 206 186
f 186 206 207
f 186 207 187
f 187 207 208
f 187 208 188
f 188 208 209
f 188 209 189
f 189 209 210
f 189 210 190
f 190 210 211
f 190 211 191
f 191 211 212
f 191 212 192
f 192 212 213
f 192 213 193
f 193 213 214
f 193 214 194
f 194 214 215
f 194 215 195
f 195 215 216
f 195 216 196
f 196 216 217
f 196 217 197
f 197 217 218
f 197 218 198
f 198 218 219
f 198 219 199
f 199 219 220
f 199 220 200
f 200 220 221
f 200 221 201
f 201 221 222
f 201 222 202
f 202 222 223
f 202 223 203
f 203 223 224
f 203 224 204
f 204 224 205
f 204 205 185
f 205 225 226
f 205 226 206
f 206 226 227
f 206 227 207
f 207 227 228
f 207 228 208
f 208 228 229
f 208 229 209
f 209 229 230
f 209 230 210
f 210 230 231
f 210 231 211
f 211 231 232
f 211 232 212
f 212 232 233
f 212 233 213
f 213 233 234
f 213 234 214
f 214 234 235
f 214 235 215
f 215 235 236
f 215 236 216
f 216 236 237
f 216 237 217
f 217 237 238
f 217 238 218
f 218 238 239
f 218 239 219
f 219 239 240
f 219 240 220
f 220 240 241
f 220 241 221
f 221 241 242
f 221 242 222
f 222 242 243
f 222 243 223
f 223 243 244
f 223 244 224
f 224 244 225
f 224 225 205
f 225 245 246
f 225 246 226
f 226 246 247
f 226 247 227
f 227 247 248
f 227 248 228
f 228 248 249
f 228 249 229
f 229 249 250
f 229 250 230
f 230 250 251
f 230 251 231
f 231 251 252
f 231 252 232
f 232 252 253
f 232 253 233
f 233 253 254
f 233 254 234
f 234 254 255
f 234 255 235
f 235 255 256
f 235 256 236
f 236 256 257
f 236 257 237
f 237 257 258
f 237 258 238
f 238 258 259
f 238 259 239
f 239 259 260
f 239 260 240
f 240 260 261
f 240 261 241
f 241 261 262
f 241 262 242
f 242 262 263
f 242 263 243
f 243 263 264
f 243 264 244
f 244 264 245
f 244 245 225
f 245 265 266
f 245 266 246
f 246 266 267
f 246 267 247
f 247 267 268
f 247 268 248
f 248 268 269
f 248 269 249
f 249 269 270
f 249 270 250
f 250 270 271
f 250 271 251
f 251 271 272
f 251 272 252
f 252 272 273
f 252 273 253
f 253 273 274
f 253 274 254
f 254 274 275
f 254 275 255
f 255 275 276
f 255 276 256
f 256 276 277
f 256 277 257
f 257 277 278
f 257 278 258
f 258 278 279
f 258 279 259
f 259 279 280
f 259 280 260
f 260 280 281
f 260 281 261
f 261 281 282
f 261 282 262
f 262 282 283
f 262 283 263
f 263 283 284
f 263 284 264
f 264 284 265
f 264 265 245
f 265 285 286
f 265 286 266
f 266 286 287
f 266 287 267
f 267 287 288
f 267 288 268
f 268 288 289
f 268 289 269
f 269 289 290
f 269 290 270
f 270 290 291
f 270 291 271
f 271 291 292
f 271 292 272
f 272 292 293
f 272 293 273
f 273 293 294
f 273 294 274
f 274 294 295
f 274 295 275
f 275 295 296
f 275 296 276
f 276 296 297
f 276 297 277
f 277 297 298
f 277 298 278
f 278 298 299
f 278 299 279
f 279 299 300
f 279 300 280
f 280 300 301
f 280 301 281
f 281 301 302
f 281 302 282
f 282 302 303
f 282 303 283
f 283 303 304
f 283 304 284
f 284 304 285
f 284 285 265
f 285 305 306
f 285 306 286
f 286 306 307
f 286 307 287
f 287 307 308
f 287 308 288
f 288 308 309
f 288 309 289
f 289 309 310
f 289 310 290
f 290 310 311
f 290 311 291
f 291 311 312
f 291 312 292
f 292 312 313
f 292 313 293
f 293 313 314
f 293 314 294
f 294 314 315
f 294 315 295
f 295 315 316
f 295 316 296
f 296 316 317
f 296 317 297
f 297 317 318
f 297 318 298
f 298 318 319
f 298 319 299
f 299 319 320
f 299 320 300
f 300 320 321
f 300 321 301
f 301 321 322
f 301 322 302
f 302 322 323
f 302 323 303
f 303 323 324
f 303 324 304
f 304 324 305
f 304 305 285
f 327 328 329
f 327 329 330
f 331 334 333
f 331 333 332
f 327 331 332
f 327 332 328
f 328 332 333
f 328 333 329
f 329 333 334
f 329 334 330
f 331 327 330
f 331 330 334
f 335 337 338
f 335 338 336
f 337 339 340
f 337 340 338
f 339 341 342
f 339 342 340
f 341 343 344
f 341 344 342
f 343 345 346
f 343 346 344
f 345 347 348
f 345 348 346
f 347 349 350
f 347 350 348
f 349 351 352
f 349 352 350
f 351 353 354
f 351 354 352
f 353 355 356
f 353 356 354
f 355 357 358
f 355 358 356
f 357 359 360
f 357 360 358
f 359 361 362
f 359 362 360
f 361 363 364
f 361 364 362
f 363 365 366
f 363 366 364
f 365 335 336
f 365 336 366
f 451 367 368
f 452 438 437
f 451 368 369
f 452 439 438
f 451 369 370
f 452 440 439
f 451 370 371
f 452 441 440
f 451 371 372
f 452 442 441
f 451 372 373
f 452 443 442
f 451 373 374
f 452 444 443
f 451 374 375
f 452 445 444
f 451 375 376
f 452 446 445
f 451 376 377
f 452 447 446
f 451 377 378
f 452 448 447
f 451 378 379
f 452 449 448
f 451 379 380
f 452 450 449
f 451 380 367
f 452 437 450
f 367 381 382
f 367 382 368
f 368 382 383
f 368 383 369
f 369 383 384
f 369 384 370
f 370 384 385
f 370 385 371
f 371 385 386
f 371 386 372
f 372 386 387
f 372 387 373
f 373 387 388
f 373 388 374
f 374 388 389
f 374 389 375
f 375 389 390
f 375 390 376
f 376 390 391
f 376 391 377
f 377 391 392
f 377 392 378
f 378 392 393
f 378 393 379
f 379 393 394
f 379 394 380
f 380 394 381
f 380 381 367
f 381 395 396
f 381 396 382
f 382 396 397
f 382 397 383
f 383 397 398
f 383 398 384
f 384 398 399
f 384 399 385
f 385 399 400
f 385 400 386
f 386 400 401
f 386 401 387
f 387 401 402
f 387 402 388
f 388 402 403
f 388 403 389
f 389 403 404
f 389 404 390
f 390 404 405
f 390 405 391
f 391 405 406
f 391 406 392
f 392 406 407
f 392 407 393
f 393 407 408
f 393 408 394
f 394 408 395
f 394 395 381
f 395 409 410
f 395 410 396
f 396 410 411
f 396 411 397
f 397 411 412
f 397 412 398
f 398 412 413
f 398 413 399
f 399 413 414
f 399 414 400
f 400 414 415
f 400 415 401
f 401 415 416
f 401 416 402
f 402 416 417
f 402 417 403
f 403 417 418
f 403 418 404
f 404 418 419
f 404 419 405
f 405 419 420
f 405 420 406
f 406 420 421
f 406 421 407
f 407 421 422
f 407 422 408
f 408 422 409
f 408 409 395
f 409 423 424
f 409 424 410
f 410 424 425
f 410 425 411
f 411 425 426
f 411 426 412
f 412 426 427
f 412 427 413
f 413 427 428
f 413 428 414
f 414 428 429
f 414 429 415
f 415 429 430
f 415 430 416
f 416 430 431
f 416 431 417
f 417 431 432
f 417 432 418
f 418 432 433
f 418 433 419
f 419 433 434
f 419 434 420
f 420 434 435
f 420 435 421
f 421 435 436
f 421 436 422
f 422 436 423
f 422 423 409
f 423 437 438
f 423 438 424
f 424 438 439
f 424 439 425
f 425 439 440
f 425 440 426
f 426 440 441
f 426 441 427
f 427 441 442
f 427 442 428
f 428 442 443
f 428 443 429
f 429 443 444
f 429 444 430
f 430 444 445
f 430 445 431
f 431 445 446
f 431 446 432
f 432 446 447
f 432 447 433
f 433 447 448
f 433 448 434
f 434 448 449
f 434 449 435
f 435 449 450
f 435 450 436
f 436 450 437
f 436 437 423
f 453 455 456
f 453 456 454
f 455 457 458
f 455 458 456
f 457 459 460
f 457 460 458
f 459 461 462
f 459 462 460
f 461 463 464
f 461 464 462
f 463 465 466
f 463 466 464
f 465 467 468
f 465 468 466
f 467 469 470
f 467 470 468
f 469 471 472
f 469 472 470
f 471 473 474
f 471 474 472
f 473 475 476
f 473 476 474
f 475 477 478
f 475 478 476
f 477 479 480
f 477 480 478
f 479 481 482
f 479 482 480
f 481 483 484
f 481 484 482
f 483 453 454
f 483 454 484
f 569 485 486
f 570 556 555
f 569 486 487
f 570 557 556
f 569 487 488
f 570 558 557
f 569 488 489
f 570 559 558
f 569 489 490
f 570 560 559
f 569 490 491
f 570 561 560
f 569 491 492
f 570 562 561
f 569 492 493
f 570 563 562
f 569 493 494
f 570 564 563
f 569 494 495
f 570 565 564
f 569 495 496
f 570 566 565
f 569 496 497
f 570 567 566
f 569 497 498
f 570 568 567
f 569 498 485
f 570 555 568
f 485 499 500
f 485 500 486
f 486 500 501
f 486 501 487
f 487 501 502
f 487 502 488
f 488 502 503
f 488 503 489
f 489 503 504
f 489 504 490
f 490 504 505
f 490 505 491
f 491 505 506
f 491 506 492
f 492 506 507
f 492 507 493
f 493 507 508
f 493 508 494
f 494 508 509
f 494 509 495
f 495 509 510
f 495 510 496
f 496 510 511
f 496 511 497
f 497 511 512
f 497 512 498
f 498 512 499
f 498 499 485
f 499 513 514
f 499 514 500
f 500 514 515
f 500 515 501
f 501 515 516
f 501 516 502
f 502 516 517
f 502 517 503
f 503 517 518
f 503 518 504
f 504 518 519
f 504 519 505
f 505 519 520
f 505 520 506
f 506 520 521
f 506 521 507
f 507 521 522
f 507 522 508
f 508 522 523
f 508 523 509
f 509 523 524
f 509 524 510
f 510 524 525
f 510 525 511
f 511 525 526
f 511 526 512
f 512 526 513
f 512 513 499
f 513 527 528
f 513 528 514
f 514 528 529
f 514 529 515
f 515 529 530
f 515 530 516
f 516 530 531
f 516 531 517
f 517 531 532
f 517 532 518
f 518 532 533
f 518 533 519
f 519 533 534
f 519 534 520
f 520 534 535
f 520 535 521
f 521 535 536
f 521 536 522
f 522 536 537
f 522 537 523
f 523 537 538
f 523 538 524
f 524 538 539
f 524 539 525
f 525 539 540
f 525 540 526
f 526 540 527
f 526 527 513
f 527 541 542
f 527 542 528
f 528 542 543
f 528 543 529
f 529 543 544
f 529 544 530
f 530 544 545
f 530 545 531
f 531 545 546
f 531 546 532
f 532 546 547
f 532 547 533
f 533 547 548
f 533 548 534
f 534 548 549
f 534 549 535
f 535 549 550
f 535 550 536
f 536 550 551
f 536 551 537
f 537 551 552
f 537 552 538
f 538 552 553
f 538 553 539
f 539 553 554
f 539 554 540
f 540 554 541
f 540 541 527
f 541 555 556
f 541 556 542
f 542 556 557
f 542 557 543
f 543 557 558
f 543 558 544
f 544 558 559
f 544 559 545
f 545 559 560
f 545 560 546
f 546 560 561
f 546 561 547
f 547 561 562
f 547 562 548
f 548 562 563
f 548 563 549
f 549 563 564
f 549 564 550
f 550 564 565
f 550 565 551
f 551 565 566
f 551 566 552
f 552 566 567
f 552 567 553
f 553 567 568
f 553 568 554
f 554 568 555
f 554 555 541
f 751 571 572
f 752 732 731
f 751 572 573
f 752 733 732
f 751 573 574
f 752 734 733
f 751 574 575
f 752 735 734
f 751 575 576
f 752 736 735
f 751 576 577
f 752 737 736
f 751 577 578
f 752 738 737
f 751 578 579
f 752 739 738
f 751 579 580
f 752 740 739
f 751 580 581
f 752 741 740
f 751 581 582
f 752 742 741
f 751 582 583
f 752 743 742
f 751 583 584
f 752 744 743
f 751 584 585
f 752 745 744
f 751 585 586
f 752 746 745
f 751 586 587
f 752 747 746
f 751 587 588
f 752 748 747
f 751 588 589
f 752 749 748
f 751 589 590
f 752 750 749
f 751 590 571
f 752 731 750
f 571 591 592
f 571 592 572
f 572 592 593
f 572 593 573
f 573 593 594
f 573 594 574
f 574 594 595
f 574 595 575
f 575 595 596
f 575 596 576
f 576 596 597
f 576 597 577
f 577 597 598
f 577 598 578
f 578 598 599
f 578 599 579
f 579 599 600
f 579 600 580
f 580 600 601
f 580 601 581
f 581 601 602
f 581 602 582
f 582 602 603
f 582 603 583
f 583 603 604
f 583 604 584
f 584 604 605
f 584 605 585
f 585 605 606
f 585 606 586
f 586 606 607
f 586 607 587
f 587 607 608
f 587 608 588
f 588 608 609
f 588 609 589
f 589 609 610
f 589 610 590
f 590 610 591
f 590 591 571
f 591 611 612
f 591 612 592
f 592 612 613
f 592 613 593
f 593 613 614
f 593 614 594
f 594 614 615
f 594 615 595
f 595 615 616
f 595 616 596
f 596 616 617
f 596 617 597
f 597 617 618
f 597 618 598
f 598 618 619
f 598 619 599
f 599 619 620
f 599 620 600
f 600 620 621
f 600 621 601
f 601 621 622
f 601 622 602
f 602 622 623
f 602 623 603
f 603 623 624
f 603 624 604
f 604 624 625
f 604 625 605
f 605 625 626
f 605 626 606
f 606 626 627
f 606 627 607
f 607 627 628
f 607 628 608
f 608 628 629
f 608 629 609
f 609 629 630
f 609 630 610
f 610 630 611
f 610 611 591
f 611 631 632
f 611 632 612
f 612 632 633
f 612 633 613
f 613 633 634
f 613 634 614
f 614 634 635
f 614 635 615
f 615 635 636
f 615 636 616
f 616 636 637
f 616 637 617
f 617 637 638
f 617 638 618
f 618 638 639
f 618 639 619
f 619 639 640
f 619 640 620
f 620 640 641
f 620 641 621
f 621 641 642
f 621 642 622
f 622 642 643
f 622 643 623
f 623 643 644
f 623 644 624
f 624 644 645
f 624 645 625
f 625 645 646
f 625 646 626
f 626 646 647
f 626 647 627
f 627 647 648
f 627 648 628
f 628 648 649
f 628 649 629
f 629 649 650
f 629 650 630
f 630 650 631
f 630 631 611
f 631 651 652
f 631 652 632
f 632 652 653
f 632 653 633
f 633 653 654
f 633 654 634
f 634 654 655
f 634 655 635
f 635 655 656
f 635 656 636
f 636 656 657
f 636 657 637
f 637 657 658
f 637 658 638
f 638 658 659
f 638 659 639
f 639 659 660
f 639 660 640
f 640 660 661
f 640 661 641
f 641 661 662
f 641 662 642
f 642 662 663
f 642 663 643
f 643 663 664
f 643 664 644
f 644 664 665
f 644 665 645
f 645 665 666
f 645 666 646
f 646 666 667
f 646 667 647
f 647 667 668
f 647 668 648
f 648 668 669
f 648 669 649
f 649 669 670
f 649 670 650
f 650 670 651
f 650 651 631
f 651 671 672
f 651 672 652
f 652 672 673
f 652 673 653
f 653 673 674
f 653 674 654
f 654 674 675
f 654 675 655
f 655 675 676
f 655 676 656
f 656 676 677
f 656 677 657
f 657 677 678
f 657 678 658
f 658 678 679
f 658 679 659
f 659 679 680
f 659 680 660
f 660 680 681
f 660 681 661
f 661 681 682
f 661 682 662
f 662 682 683
f 662 683 663
f 663 683 684
f 663 684 664
f 664 684 685
f 664 685 665
f 665 685 686
f 665 686 666
f 666 686 687
f 666 687 667
f 667 687 688
f 667 688 668
f 668 688 689
f 668 689 669
f 669 689 690
f 669 690 670
f 670 690 671
f 670 671 651
f 671 691 692
f 671 692 672
f 672 692 693
f 672 693 673
f 673 693 694
f 673 694 674
f 674 694 695
f 674 695 675
f 675 695 696
f 675 696 676
f 676 696 697
f 676 697 677
f 677 697 698
f 677 698 678
f 678 698 699
f 678 699 679
f 679 699 700
f 679 700 680
f 680 700 701
f 680 701 681
f 681 701 702
f 681 702 682
f 682 702 703
f 682 703 683
f 683 703 704
f 683 704 684
f 684 704 705
f 684 705 685
f 685 705 706
f 685 706 686
f 686 706 707
f 686 707 687
f 687 707 708
f 687 708 688
f 688 708 709
f 688 709 689
f 689 709 710
f 689 710 690
f 690 710 691
f 690 691 671
f 691 711 712
f 691 712 692
f 692 712 713
f 692 713 693
f 693 713 714
f 693 714 694
f 694 714 715
f 694 715 695
f 695 715 716
f 695 716 696
f 696 716 717
f 696 717 697
f 697 717 718
f 697 718 698
f 698 718 719
f 698 719 699
f 699 719 720
f 699 720 700
f 700 720 721
f 700 721 701
f 701 721 722
f 701 722 702
f 702 722 723
f 702 723 703
f 703 723 724
f 703 724 704
f 704 724 725
f 704 725 705
f 705 725 726
f 705 726 706
f 706 726 727
f 706 727 707
f 707 727 728
f 707 728 708
f 708 728 729
f 708 729 709
f 709 729 730
f 709 730 710
f 710 730 711
f 710 711 691
f 711 731 732
f 711 732 712
f 712 732 733
f 712 733 713
f 713 733 734
f 713 734 714
f 714 734 735
f 714 735 715
f 715 735 736
f 715 736 716
f 716 736 737
f 716 737 717
f 717 737 738
f 717 738 718
f 718 738 739
f 718 739 719
f 719 739 740
f 719 740 720
f 720 740 741
f 720 741 721
f 721 741 742
f 721 742 722
f 722 742 743
f 722 743 723
f 723 743 744
f 723 744 724
f 724 744 745
f 724 745 725
f 725 745 746
f 725 746 726
f 726 746 747
f 726 747 727
f 727 747 748
f 727 748 728
f 728 748 749
f 728 749 729
f 729 749 750
f 729 750 730
f 730 750 731
f 730 731 711
f 913 753 754
f 914 894 893
f 913 754 755
f 914 895 894
f 913 755 756
f 914 896 895
f 913 756 757
f 914 897 896
f 913 757 758
f 914 898 897
f 913 758 759
f 914 899 898
f 913 759 760
f 914 900 899
f 913 760 761
f 914 901 900
f 913 761 762
f 914 902 901
f 913 762 763
f 914 903 902
f 913 763 764
f 914 904 903
f 913 764 765
f 914 905 904
f 913 765 766
f 914 906 905
f 913 766 767
f 914 907 906
f 913 767 768
f 914 908 907
f 913 768 769
f 914 909 908
f 913 769 770
f 914 910 909
f 913 770 771
f 914 911 910
f 913 771 772
f 914 912 911
f 913 772 753
f 914 893 912
f 753 773 774
f 753 774 754
f 754 774 775
f 754 775 755
f 755 775 776
f 755 776 756
f 756 776 777
f 756 777 757
f 757 777 778
f 757 778 758
f 758 778 779
f 758 779 759
f 759 779 780
f 759 780 760
f 760 780 781
f 760 781 761
f 761 781 782
f 761 782 762
f 762 782 783
f 762 783 763
f 763 783 784
f 763 784 764
f 764 784 785
f 764 785 765
f 765 785 786
f 765 786 766
f 766 786 787
f 766 787 767
f 767 787 788
f 767 788 768
f 768 788 789
f 768 789 769
f 769 789 790
f 769 790 770
f 770 790 791
f 770 791 771
f 771 791 792
f 771 792 772
f 772 792 773
f 772 773 753
f 773 793 794
f 773 794 774
f 774 794 795
f 774 795 775
f 775 795 796
f 775 796 776
f 776 796 797
f 776 797 777
f 777 797 798
f 777 798 778
f 778 798 799
f 778 799 779
f 779 799 800
f 779 800 780
f 780 800 801
f 780 801 781
f 781 801 802
f 781 802 782
f 782 802 803
f 782 803 783
f 783 803 804
f 783 804 784
f 784 804 805
f 784 805 785
f 785 805 806
f 785 806 786
f 786 806 807
f 786 807 787
f 787 807 808
f 787 808 788
f 788 808 809
f 788 809 789
f 789 809 810
f 789 810 790
f 790 810 811
f 790 811 791
f 791 811 812
f 791 812 792
f 792 812 793
f 792 793 773
f 793 813 814
f 793 814 794
f 794 814 815
f 794 815 795
f 795 815 816
f 795 816 796
f 796 816 817
f 796 817 797
f 797 817 818
f 797 818 798
f 798 818 819
f 798 819 799
f 799 819 820
f 799 820 800
f 800 820 821
f 800 821 801
f 801 821 822
f 801 822 802
f 802 822 823
f 802 823 803
f 803 823 824
f 803 824 804
f 804 824 825
f 804 825 805
f 805 825 826
f 805 826 806
f 806 826 827
f 806 827 807
f 807 827 828
f 807 828 808
f 808 828 829
f 808 829 809
f 809 829 830
f 809 830 810
f 810 830 831
f 810 831 811
f 811 831 832
f 811 832 812
f 812 832 813
f 812 813 793
f 813 833 834
f 813 834 814
f 814 834 835
f 814 835 815
f 815 835 836
f 815 836 816
f 816 836 837
f 816 837 817
f 817 837 838
f 817 838 818
f 818 838 839
f 818 839 819
f 819 839 840
f 819 840 820
f 820 840 841
f 820 841 821
f 821 841 842
f 821 842 822
f 822 842 843
f 822 843 823
f 823 843 844
f 823 844 824
f 824 844 845
f 824 845 825
f 825 845 846
f 825 846 826
f 826 846 847
f 826 847 827
f 827 847 848
f 827 848 828
f 828 848 849
f 828 849 829
f 829 849 850
f 829 850 830
f 830 850 851
f 830 851 831
f 831 851 852
f 831 852 832
f 832 852 833
f 832 833 813
f 833 853 854
f 833 854 834
f 834 854 855
f 834 855 835
f 835 855 856
f 835 856 836
f 836 856 857
f 836 857 837
f 837 857 858
f 837 858 838
f 838 858 859
f 838 859 839
f 839 859 860
f 839 860 840
f 840 860 861
f 840 861 841
f 841 861 862
f 841 862 842
f 842 862 863
f 842 863 843
f 843 863 864
f 843 864 844
f 844 864 865
f 844 865 845
f 845 865 866
f 845 866 846
f 846 866 867
f 846 867 847
f 847 867 868
f 847 868 848
f 848 868 869
f 848 869 849
f 849 869 870
f 849 870 850
f 850 870 871
f 850 871 851
f 851 871 872
f 851 872 852
f 852 872 853
f 852 853 833
f 853 873 874
f 853 874 854
f 854 874 875
f 854 875 855
f 855 875 876
f 855 876 856
f 856 876 877
f 856 877 857
f 857 877 878
f 857 878 858
f 858 878 879
f 858 879 859
f 859 879 880
f 859 880 860
f 860 880 881
f 860 881 861
f 861 881 882
f 861 882 862
f 862 882 883
f 862 883 863
f 863 883 884
f 863 884 864
f 864 884 885
f 864 885 865
f 865 885 886
f 865 886 866
f 866 886 887
f 866 887 867
f 867 887 888
f 867 888 868
f 868 888 889
f 868 889 869
f 869 889 890
f 869 890 870
f 870 890 891
f 870 891 871
f 871 891 892
f 871 892 872
f 872 892 873
f 872 873 853
f 873 893 894
f 873 894 874
f 874 894 895
f 874 895 875
f 875 895 896
f 875 896 876
f 876 896 897
f 876 897 877
f 877 897 898
f 877 898 878
f 878 898 899
f 878 899 879
f 879 899 900
f 879 900 880
f 880 900 901
f 880 901 881
f 881 901 902
f 881 902 882
f 882 902 903
f 882 903 883
f 883 903 904
f 883 904 884
f 884 904 905
f 884 905 885
f 885 905 906
f 885 906 886
f 886 906 907
f 886 907 887
f 887 907 908
f 887 908 888
f 888 908 909
f 888 909 889
f 889 909 910
f 889 910 890
f 890 910 911
f 890 911 891
f 891 911 912
f 891 912 892
f 892 912 893
f 892 893 873
f 915 916 917
f 915 917 918
f 919 922 921
f 919 921 920
f 915 919 920
f 915 920 916
f 916 920 921
f 916 921 917
f 917 921 922
f 917 922 918
f 919 915 918
f 919 918 922
f 923 924 925
f 923 925 926
f 927 930 929
f 927 929 928
f 923 927 928
f 923 928 924
f 924 928 929
f 924 929 925
f 925 929 930
f 925 930 926
f 927 923 926
f 927 926 930
f 931 932 933
f 931 933 934
f 935 938 937
f 935 937 936
f 931 935 936
f 931 936 932
f 932 936 937
f 932 937 933
f 933 937 938
f 933 938 934
f 935 931 934
f 935 934 938
f 939 940 941
f 939 941 942
f 943 946 945
f 943 945 944
f 939 943 944
f 939 944 940
f 940 944 945
f 940 945 941
f 941 945 946
f 941 946 942
f 943 939 942
f 943 942 946
f 947 948 949
f 947 949 950
f 951 954 953
f 951 953 952
f 947 951 952
f 947 952 948
f 948 952 953
f 948 953 949
f 949 953 954
f 949 954 950
f 951 947 950
f 951 950 954
