o bmg_buggy
s 1
v -0.95000 0.37000 -1.50000
v 0.95000 0.37000 -1.50000
v 0.95000 0.73000 -1.50000
v -0.95000 0.73000 -1.50000
v -0.95000 0.37000 1.50000
v 0.95000 0.37000 1.50000
v 0.95000 0.73000 1.50000
v -0.95000 0.73000 1.50000
v -0.77500 0.67500 -1.12500
v 0.77500 0.67500 -1.12500
v 0.77500 1.52500 -1.12500
v -0.77500 1.52500 -1.12500
v -0.77500 0.67500 0.62500
v 0.77500 0.67500 0.62500
v 0.77500 1.52500 0.62500
v -0.77500 1.52500 0.62500
v -0.67500 0.67500 -0.72000
v -0.67500 2.02500 -0.72000
v -0.68103 0.67500 -0.69750
v -0.68103 2.02500 -0.69750
v -0.69750 0.67500 -0.68103
v -0.69750 2.02500 -0.68103
v -0.72000 0.67500 -0.67500
v -0.72000 2.02500 -0.67500
v -0.74250 0.67500 -0.68103
v -0.74250 2.02500 -0.68103
v -0.75897 0.67500 -0.69750
v -0.75897 2.02500 -0.69750
v -0.76500 0.67500 -0.72000
v -0.76500 2.02500 -0.72000
v -0.75897 0.67500 -0.74250
v -0.75897 2.02500 -0.74250
v -0.74250 0.67500 -0.75897
v -0.74250 2.02500 -0.75897
v -0.72000 0.67500 -0.76500
v -0.72000 2.02500 -0.76500
v -0.69750 0.67500 -0.75897
v -0.69750 2.02500 -0.75897
v -0.68103 0.67500 -0.74250
v -0.68103 2.02500 -0.74250
v -0.67500 0.67500 0.58000
v -0.67500 2.02500 0.58000
v -0.68103 0.67500 0.60250
v -0.68103 2.02500 0.60250
v -0.69750 0.67500 0.61897
v -0.69750 2.02500 0.61897
v -0.72000 0.67500 0.62500
v -0.72000 2.02500 0.62500
v -0.74250 0.67500 0.61897
v -0.74250 2.02500 0.61897
v -0.75897 0.67500 0.60250
v -0.75897 2.02500 0.60250
v -0.76500 0.67500 0.58000
v -0.76500 2.02500 0.58000
v -0.75897 0.67500 0.55750
v -0.75897 2.02500 0.55750
v -0.74250 0.67500 0.54103
v -0.74250 2.02500 0.54103
v -0.72000 0.67500 0.53500
v -0.72000 2.02500 0.53500
v -0.69750 0.67500 0.54103
v -0.69750 2.02500 0.54103
v -0.68103 0.67500 0.55750
v -0.68103 2.02500 0.55750
v 0.76500 0.67500 -0.72000
v 0.76500 2.02500 -0.72000
v 0.75897 0.67500 -0.69750
v 0.75897 2.02500 -0.69750
v 0.74250 0.67500 -0.68103
v 0.74250 2.02500 -0.68103
v 0.72000 0.67500 -0.67500
v 0.72000 2.02500 -0.67500
v 0.69750 0.67500 -0.68103
v 0.69750 2.02500 -0.68103
v 0.68103 0.67500 -0.69750
v 0.68103 2.02500 -0.69750
v 0.67500 0.67500 -0.72000
v 0.67500 2.02500 -0.72000
v 0.68103 0.67500 -0.74250
v 0.68103 2.02500 -0.74250
v 0.69750 0.67500 -0.75897
v 0.69750 2.02500 -0.75897
v 0.72000 0.67500 -0.76500
v 0.72000 2.02500 -0.76500
v 0.74250 0.67500 -0.75897
v 0.74250 2.02500 -0.75897
v 0.75897 0.67500 -0.74250
v 0.75897 2.02500 -0.74250
v 0.76500 0.67500 0.58000
v 0.76500 2.02500 0.58000
v 0.75897 0.67500 0.60250
v 0.75897 2.02500 0.60250
v 0.74250 0.67500 0.61897
v 0.74250 2.02500 0.61897
v 0.72000 0.67500 0.62500
v 0.72000 2.02500 0.62500
v 0.69750 0.67500 0.61897
v 0.69750 2.02500 0.61897
v 0.68103 0.67500 0.60250
v 0.68103 2.02500 0.60250
v 0.67500 0.67500 0.58000
v 0.67500 2.02500 0.58000
v 0.68103 0.67500 0.55750
v 0.68103 2.02500 0.55750
v 0.69750 0.67500 0.54103
v 0.69750 2.02500 0.54103
v 0.72000 0.67500 0.53500
v 0.72000 2.02500 0.53500
v 0.74250 0.67500 0.54103
v 0.74250 2.02500 0.54103
v 0.75897 0.67500 0.55750
v 0.75897 2.02500 0.55750
v -1.17000 0.83000 -1.05000
v -0.83000 0.83000 -1.05000
v -1.17000 0.81140 -0.93257
v -0.83000 0.81140 -0.93257
v -1.17000 0.75743 -0.82664
v -0.83000 0.75743 -0.82664
v -1.17000 0.67336 -0.74257
v -0.83000 0.67336 -0.74257
v -1.17000 0.56743 -0.68860
v -0.83000 0.56743 -0.68860
v -1.17000 0.45000 -0.67000
v -0.83000 0.45000 -0.67000
v -1.17000 0.33257 -0.68860
v -0.83000 0.33257 -0.68860
v -1.17000 0.22664 -0.74257
v -0.83000 0.22664 -0.74257
v -1.17000 0.14257 -0.82664
v -0.83000 0.14257 -0.82664
v -1.17000 0.08860 -0.93257
v -0.83000 0.08860 -0.93257
v -1.17000 0.07000 -1.05000
v -0.83000 0.07000 -1.05000
v -1.17000 0.08860 -1.16743
v -0.83000 0.08860 -1.16743
v -1.17000 0.14257 -1.27336
v -0.83000 0.14257 -1.27336
v -1.17000 0.22664 -1.35743
v -0.83000 0.22664 -1.35743
v -1.17000 0.33257 -1.41140
v -0.83000 0.33257 -1.41140
v -1.17000 0.45000 -1.43000
v -0.83000 0.45000 -1.43000
v -1.17000 0.56743 -1.41140
v -0.83000 0.56743 -1.41140
v -1.17000 0.67336 -1.35743
v -0.83000 0.67336 -1.35743
v -1.17000 0.75743 -1.27336
v -0.83000 0.75743 -1.27336
v -1.17000 0.81140 -1.16743
v -0.83000 0.81140 -1.16743
v -1.17000 0.83000 1.05000
v -0.83000 0.83000 1.05000
v -1.17000 0.81140 1.16743
v -0.83000 0.81140 1.16743
v -1.17000 0.75743 1.27336
v -0.83000 0.75743 1.27336
v -1.17000 0.67336 1.35743
v -0.83000 0.67336 1.35743
v -1.17000 0.56743 1.41140
v -0.83000 0.56743 1.41140
v -1.17000 0.45000 1.43000
v -0.83000 0.45000 1.43000
v -1.17000 0.33257 1.41140
v -0.83000 0.33257 1.41140
v -1.17000 0.22664 1.35743
v -0.83000 0.22664 1.35743
v -1.17000 0.14257 1.27336
v -0.83000 0.14257 1.27336
v -1.17000 0.08860 1.16743
v -0.83000 0.08860 1.16743
v -1.17000 0.07000 1.05000
v -0.83000 0.07000 1.05000
v -1.17000 0.08860 0.93257
v -0.83000 0.08860 0.93257
v -1.17000 0.14257 0.82664
v -0.83000 0.14257 0.82664
v -1.17000 0.22664 0.74257
v -0.83000 0.22664 0.74257
v -1.17000 0.33257 0.68860
v -0.83000 0.33257 0.68860
v -1.17000 0.45000 0.67000
v -0.83000 0.45000 0.67000
v -1.17000 0.56743 0.68860
v -0.83000 0.56743 0.68860
v -1.17000 0.67336 0.74257
v -0.83000 0.67336 0.74257
v -1.17000 0.75743 0.82664
v -0.83000 0.75743 0.82664
v -1.17000 0.81140 0.93257
v -0.83000 0.81140 0.93257
v 0.83000 0.83000 -1.05000
v 1.17000 0.83000 -1.05000
v 0.83000 0.81140 -0.93257
v 1.17000 0.81140 -0.93257
v 0.83000 0.75743 -0.82664
v 1.17000 0.75743 -0.82664
v 0.83000 0.67336 -0.74257
v 1.17000 0.67336 -0.74257
v 0.83000 0.56743 -0.68860
v 1.17000 0.56743 -0.68860
v 0.83000 0.45000 -0.67000
v 1.17000 0.45000 -0.67000
v 0.83000 0.33257 -0.68860
v 1.17000 0.33257 -0.68860
v 0.83000 0.22664 -0.74257
v 1.17000 0.22664 -0.74257
v 0.83000 0.14257 -0.82664
v 1.17000 0.14257 -0.82664
v 0.83000 0.08860 -0.93257
v 1.17000 0.08860 -0.93257
v 0.83000 0.07000 -1.05000
v 1.17000 0.07000 -1.05000
v 0.83000 0.08860 -1.16743
v 1.17000 0.08860 -1.16743
v 0.83000 0.14257 -1.27336
v 1.17000 0.14257 -1.27336
v 0.83000 0.22664 -1.35743
v 1.17000 0.22664 -1.35743
v 0.83000 0.33257 -1.41140
v 1.17000 0.33257 -1.41140
v 0.83000 0.45000 -1.43000
v 1.17000 0.45000 -1.43000
v 0.83000 0.56743 -1.41140
v 1.17000 0.56743 -1.41140
v 0.83000 0.67336 -1.35743
v 1.17000 0.67336 -1.35743
v 0.83000 0.75743 -1.27336
v 1.17000 0.75743 -1.27336
v 0.83000 0.81140 -1.16743
v 1.17000 0.81140 -1.16743
v 0.83000 0.83000 1.05000
v 1.17000 0.83000 1.05000
v 0.83000 0.81140 1.16743
v 1.17000 0.81140 1.16743
v 0.83000 0.75743 1.27336
v 1.17000 0.75743 1.27336
v 0.83000 0.67336 1.35743
v 1.17000 0.67336 1.35743
v 0.83000 0.56743 1.41140
v 1.17000 0.56743 1.41140
v 0.83000 0.45000 1.43000
v 1.17000 0.45000 1.43000
v 0.83000 0.33257 1.41140
v 1.17000 0.33257 1.41140
v 0.83000 0.22664 1.35743
v 1.17000 0.22664 1.35743
v 0.83000 0.14257 1.27336
v 1.17000 0.14257 1.27336
v 0.83000 0.08860 1.16743
v 1.17000 0.08860 1.16743
v 0.83000 0.07000 1.05000
v 1.17000 0.07000 1.05000
v 0.83000 0.08860 0.93257
v 1.17000 0.08860 0.93257
v 0.83000 0.14257 0.82664
v 1.17000 0.14257 0.82664
v 0.83000 0.22664 0.74257
v 1.17000 0.22664 0.74257
v 0.83000 0.33257 0.68860
v 1.17000 0.33257 0.68860
v 0.83000 0.45000 0.67000
v 1.17000 0.45000 0.67000
v 0.83000 0.56743 0.68860
v 1.17000 0.56743 0.68860
v 0.83000 0.67336 0.74257
v 1.17000 0.67336 0.74257
v 0.83000 0.75743 0.82664
v 1.17000 0.75743 0.82664
v 0.83000 0.81140 0.93257
v 1.17000 0.81140 0.93257
v -0.87500 0.39000 1.46000
v 0.87500 0.39000 1.46000
v 0.87500 0.57000 1.46000
v -0.87500 0.57000 1.46000
v -0.87500 0.39000 1.64000
v 0.87500 0.39000 1.64000
v 0.87500 0.57000 1.64000
v -0.87500 0.57000 1.64000
v -0.87500 0.39000 -1.64000
v 0.87500 0.39000 -1.64000
v 0.87500 0.57000 -1.64000
v -0.87500 0.57000 -1.64000
v -0.87500 0.39000 -1.46000
v 0.87500 0.39000 -1.46000
v 0.87500 0.57000 -1.46000
v -0.87500 0.57000 -1.46000
v -0.43000 0.78000 1.44000
v -0.43000 0.78000 1.52000
v -0.43913 0.82592 1.44000
v -0.43913 0.82592 1.52000
v -0.46515 0.86485 1.44000
v -0.46515 0.86485 1.52000
v -0.50408 0.89087 1.44000
v -0.50408 0.89087 1.52000
v -0.55000 0.90000 1.44000
v -0.55000 0.90000 1.52000
v -0.59592 0.89087 1.44000
v -0.59592 0.89087 1.52000
v -0.63485 0.86485 1.44000
v -0.63485 0.86485 1.52000
v -0.66087 0.82592 1.44000
v -0.66087 0.82592 1.52000
v -0.67000 0.78000 1.44000
v -0.67000 0.78000 1.52000
v -0.66087 0.73408 1.44000
v -0.66087 0.73408 1.52000
v -0.63485 0.69515 1.44000
v -0.63485 0.69515 1.52000
v -0.59592 0.66913 1.44000
v -0.59592 0.66913 1.52000
v -0.55000 0.66000 1.44000
v -0.55000 0.66000 1.52000
v -0.50408 0.66913 1.44000
v -0.50408 0.66913 1.52000
v -0.46515 0.69515 1.44000
v -0.46515 0.69515 1.52000
v -0.43913 0.73408 1.44000
v -0.43913 0.73408 1.52000
v 0.67000 0.78000 1.44000
v 0.67000 0.78000 1.52000
v 0.66087 0.82592 1.44000
v 0.66087 0.82592 1.52000
v 0.63485 0.86485 1.44000
v 0.63485 0.86485 1.52000
v 0.59592 0.89087 1.44000
v 0.59592 0.89087 1.52000
v 0.55000 0.90000 1.44000
v 0.55000 0.90000 1.52000
v 0.50408 0.89087 1.44000
v 0.50408 0.89087 1.52000
v 0.46515 0.86485 1.44000
v 0.46515 0.86485 1.52000
v 0.43913 0.82592 1.44000
v 0.43913 0.82592 1.52000
v 0.43000 0.78000 1.44000
v 0.43000 0.78000 1.52000
v 0.43913 0.73408 1.44000
v 0.43913 0.73408 1.52000
v 0.46515 0.69515 1.44000
v 0.46515 0.69515 1.52000
v 0.50408 0.66913 1.44000
v 0.50408 0.66913 1.52000
v 0.55000 0.66000 1.44000
v 0.55000 0.66000 1.52000
v 0.59592 0.66913 1.44000
v 0.59592 0.66913 1.52000
v 0.63485 0.69515 1.44000
v 0.63485 0.69515 1.52000
v 0.66087 0.73408 1.44000
v 0.66087 0.73408 1.52000
f 1 2 3
f 1 3 4
f 5 8 7
f 5 7 6
f 1 5 6
f 1 6 2
f 2 6 7
f 2 7 3
f 3 7 8
f 3 8 4
f 5 1 4
f 5 4 8
f 9 10 11
f 9 11 12
f 13 16 15
f 13 15 14
f 9 13 14
f 9 14 10
f 10 14 15
f 10 15 11
f 11 15 16
f 11 16 12
f 13 9 12
f 13 12 16
f 17 19 20
f 17 20 18
f 19 21 22
f 19 22 20
f 21 23 24
f 21 24 22
f 23 25 26
f 23 26 24
f 25 27 28
f 25 28 26
f 27 29 30
f 27 30 28
f 29 31 32
f 29 32 30
f 31 33 34
f 31 34 32
f 33 35 36
f 33 36 34
f 35 37 38
f 35 38 36
f 37 39 40
f 37 40 38
f 39 17 18
f 39 18 40
f 41 43 44
f 41 44 42
f 43 45 46
f 43 46 44
f 45 47 48
f 45 48 46
f 47 49 50
f 47 50 48
f 49 51 52
f 49 52 50
f 51 53 54
f 51 54 52
f 53 55 56
f 53 56 54
f 55 57 58
f 55 58 56
f 57 59 60
f 57 60 58
f 59 61 62
f 59 62 60
f 61 63 64
f 61 64 62
f 63 41 42
f 63 42 64
f 65 67 68
f 65 68 66
f 67 69 70
f 67 70 68
f 69 71 72
f 69 72 70
f 71 73 74
f 71 74 72
f 73 75 76
f 73 76 74
f 75 77 78
f 75 78 76
f 77 79 80
f 77 80 78
f 79 81 82
f 79 82 80
f 81 83 84
f 81 84 82
f 83 85 86
f 83 86 84
f 85 87 88
f 85 88 86
f 87 65 66
f 87 66 88
f 89 91 92
f 89 92 90
f 91 93 94
f 91 94 92
f 93 95 96
f 93 96 94
f 95 97 98
f 95 98 96
f 97 99 100
f 97 100 98
f 99 101 102
f 99 102 100
f 101 103 104
f 101 104 102
f 103 105 106
f 103 106 104
f 105 107 108
f 105 108 106
f 107 109 110
f 107 110 108
f 109 111 112
f 109 112 110
f 111 89 90
f 111 90 112
f 113 115 116
f 113 116 114
f 115 117 118
f 115 118 116
f 117 119 120
f 117 120 118
f 119 121 122
f 119 122 120
f 121 123 124
f 121 124 122
f 123 125 126
f 123 126 124
f 125 127 128
f 125 128 126
f 127 129 130
f 127 130 128
f 129 131 132
f 129 132 130
f 131 133 134
f 131 134 132
f 133 135 136
f 133 136 134
f 135 137 138
f 135 138 136
f 137 139 140
f 137 140 138
f 139 141 142
f 139 142 140
f 141 143 144
f 141 144 142
f 143 145 146
f 143 146 144
f 145 147 148
f 145 148 146
f 147 149 150
f 147 150 148
f 149 151 152
f 149 152 150
f 151 113 114
f 151 114 152
f 153 155 156
f 153 156 154
f 155 157 158
f 155 158 156
f 157 159 160
f 157 160 158
f 159 161 162
f 159 162 160
f 161 163 164
f 161 164 162
f 163 165 166
f 163 166 164
f 165 167 168
f 165 168 166
f 167 169 170
f 167 170 168
f 169 171 172
f 169 172 170
f 171 173 174
f 171 174 172
f 173 175 176
f 173 176 174
f 175 177 178
f 175 178 176
f 177 179 180
f 177 180 178
f 179 181 182
f 179 182 180
f 181 183 184
f 181 184 182
f 183 185 186
f 183 186 184
f 185 187 188
f 185 188 186
f 187 189 190
f 187 190 188
f 189 191 192
f 189 192 190
f 191 153 154
f 191 154 192
f 193 195 196
f 193 196 194
f 195 197 198
f 195 198 196
f 197 199 200
f 197 200 198
f 199 201 202
f 199 202 200
f 201 203 204
f 201 204 202
f 203 205 206
f 203 206 204
f 205 207 208
f 205 208 206
f 207 209 210
f 207 210 208
f 209 211 212
f 209 212 210
f 211 213 214
f 211 214 212
f 213 215 216
f 213 216 214
f 215 217 218
f 215 218 216
f 217 219 220
f 217 220 218
f 219 221 222
f 219 222 220
f 221 223 224
f 221 224 222
f 223 225 226
f 223 226 224
f 225 227 228
f 225 228 226
f 227 229 230
f 227 230 228
f 229 231 232
f 229 232 230
f 231 193 194
f 231 194 232
f 233 235 236
f 233 236 234
f 235 237 238
f 235 238 236
f 237 239 240
f 237 240 238
f 239 241 242
f 239 242 240
f 241 243 244
f 241 244 242
f 243 245 246
f 243 246 244
f 245 247 248
f 245 248 246
f 247 249 250
f 247 250 248
f 249 251 252
f 249 252 250
f 251 253 254
f 251 254 252
f 253 255 256
f 253 256 254
f 255 257 258
f 255 258 256
f 257 259 260
f 257 260 258
f 259 261 262
f 259 262 260
f 261 263 264
f 261 264 262
f 263 265 266
f 263 266 264
f 265 267 268
f 265 268 266
f 267 269 270
f 267 270 268
f 269 271 272
f 269 272 270
f 271 233 234
f 271 234 272
f 273 274 275
f 273 275 276
f 277 280 279
f 277 279 278
f 273 277 278
f 273 278 274
f 274 278 279
f 274 279 275
f 275 279 280
f 275 280 276
f 277 273 276
f 277 276 280
f 281 282 283
f 281 283 284
f 285 288 287
f 285 287 286
f 281 285 286
f 281 286 282
f 282 286 287
f 282 287 283
f 283 287 288
f 283 288 284
f 285 281 284
f 285 284 288
f 289 291 292
f 289 292 290
f 291 293 294
f 291 294 292
f 293 295 296
f 293 296 294
f 295 297 298
f 295 298 296
f 297 299 300
f 297 300 298
f 299 301 302
f 299 302 300
f 301 303 304
f 301 304 302
f 303 305 306
f 303 306 304
f 305 307 308
f 305 308 306
f 307 309 310
f 307 310 308
f 309 311 312
f 309 312 310
f 311 313 314
f 311 314 312
f 313 315 316
f 313 316 314
f 315 317 318
f 315 318 316
f 317 319 320
f 317 320 318
f 319 289 290
f 319 290 320
f 321 323 324
f 321 324 322
f 323 325 326
f 323 326 324
f 325 327 328
f 325 328 326
f 327 329 330
f 327 330 328
f 329 331 332
f 329 332 330
f 331 333 334
f 331 334 332
f 333 335 336
f 333 336 334
f 335 337 338
f 335 338 336
f 337 339 340
f 337 340 338
f 339 341 342
f 339 342 340
f 341 343 344
f 341 344 342
f 343 345 346
f 343 346 344
f 345 347 348
f 345 348 346
f 347 349 350
f 347 350 348
f 349 351 352
f 349 352 350
f 351 321 322
f 351 322 352
