o bmg_transport_plane
s 1
v 0.72000 0.00000 -3.60000
v 0.72000 0.00000 3.60000
v 0.69547 0.18635 -3.60000
v 0.69547 0.18635 3.60000
v 0.62354 0.36000 -3.60000
v 0.62354 0.36000 3.60000
v 0.50912 0.50912 -3.60000
v 0.50912 0.50912 3.60000
v 0.36000 0.62354 -3.60000
v 0.36000 0.62354 3.60000
v 0.18635 0.69547 -3.60000
v 0.18635 0.69547 3.60000
v 0.00000 0.72000 -3.60000
v 0.00000 0.72000 3.60000
v -0.18635 0.69547 -3.60000
v -0.18635 0.69547 3.60000
v -0.36000 0.62354 -3.60000
v -0.36000 0.62354 3.60000
v -0.50912 0.50912 -3.60000
v -0.50912 0.50912 3.60000
v -0.62354 0.36000 -3.60000
v -0.62354 0.36000 3.60000
v -0.69547 0.18635 -3.60000
v -0.69547 0.18635 3.60000
v -0.72000 0.00000 -3.60000
v -0.72000 0.00000 3.60000
v -0.69547 -0.18635 -3.60000
v -0.69547 -0.18635 3.60000
v -0.62354 -0.36000 -3.60000
v -0.62354 -0.36000 3.60000
v -0.50912 -0.50912 -3.60000
v -0.50912 -0.50912 3.60000
v -0.36000 -0.62354 -3.60000
v -0.36000 -0.62354 3.60000
v -0.18635 -0.69547 -3.60000
v -0.18635 -0.69547 3.60000
v -0.00000 -0.72000 -3.60000
v -0.00000 -0.72000 3.60000
v 0.18635 -0.69547 -3.60000
v 0.18635 -0.69547 3.60000
v 0.36000 -0.62354 -3.60000
v 0.36000 -0.62354 3.60000
v 0.50912 -0.50912 -3.60000
v 0.50912 -0.50912 3.60000
v 0.62354 -0.36000 -3.60000
v 0.62354 -0.36000 3.60000
v 0.69547 -0.18635 -3.60000
v 0.69547 -0.18635 3.60000
v 0.24103 0.74182 3.55000
v 0.23282 0.74182 3.59991
v 0.20874 0.74182 3.64641
v 0.17044 0.74182 3.68635
v 0.12052 0.74182 3.71699
v 0.06238 0.74182 3.73626
v 0.00000 0.74182 3.74283
v -0.06238 0.74182 3.73626
v -0.12052 0.74182 3.71699
v -0.17044 0.74182 3.68635
v -0.20874 0.74182 3.64641
v -0.23282 0.74182 3.59991
v -0.24103 0.74182 3.55000
v -0.23282 0.74182 3.50009
v -0.20874 0.74182 3.45359
v -0.17044 0.74182 3.41365
v -0.12052 0.74182 3.38301
v -0.06238 0.74182 3.36374
v -0.00000 0.74182 3.35717
v 0.06238 0.74182 3.36374
v 0.12052 0.74182 3.38301
v 0.17044 0.74182 3.41365
v 0.20874 0.74182 3.45359
v 0.23282 0.74182 3.50009
v 0.45847 0.63103 3.55000
v 0.44285 0.63103 3.64493
v 0.39705 0.63103 3.73339
v 0.32419 0.63103 3.80935
v 0.22924 0.63103 3.86764
v 0.11866 0.63103 3.90428
v 0.00000 0.63103 3.91678
v -0.11866 0.63103 3.90428
v -0.22924 0.63103 3.86764
v -0.32419 0.63103 3.80935
v -0.39705 0.63103 3.73339
v -0.44285 0.63103 3.64493
v -0.45847 0.63103 3.55000
v -0.44285 0.63103 3.45507
v -0.39705 0.63103 3.36661
v -0.32419 0.63103 3.29065
v -0.22924 0.63103 3.23236
v -0.11866 0.63103 3.19572
v -0.00000 0.63103 3.18322
v 0.11866 0.63103 3.19572
v 0.22924 0.63103 3.23236
v 0.32419 0.63103 3.29065
v 0.39705 0.63103 3.36661
v 0.44285 0.63103 3.45507
v 0.63103 0.45847 3.55000
v 0.60953 0.45847 3.68066
v 0.54649 0.45847 3.80241
v 0.44621 0.45847 3.90697
v 0.31552 0.45847 3.98719
v 0.16332 0.45847 4.03763
v 0.00000 0.45847 4.05483
v -0.16332 0.45847 4.03763
v -0.31552 0.45847 3.98719
v -0.44621 0.45847 3.90697
v -0.54649 0.45847 3.80241
v -0.60953 0.45847 3.68066
v -0.63103 0.45847 3.55000
v -0.60953 0.45847 3.41934
v -0.54649 0.45847 3.29759
v -0.44621 0.45847 3.19303
v -0.31552 0.45847 3.11281
v -0.16332 0.45847 3.06237
v -0.00000 0.45847 3.04517
v 0.16332 0.45847 3.06237
v 0.31552 0.45847 3.11281
v 0.44621 0.45847 3.19303
v 0.54649 0.45847 3.29759
v 0.60953 0.45847 3.41934
v 0.74182 0.24103 3.55000
v 0.71655 0.24103 3.70360
v 0.64244 0.24103 3.84673
v 0.52455 0.24103 3.96964
v 0.37091 0.24103 4.06395
v 0.19200 0.24103 4.12324
v 0.00000 0.24103 4.14346
v -0.19200 0.24103 4.12324
v -0.37091 0.24103 4.06395
v -0.52455 0.24103 3.96964
v -0.64244 0.24103 3.84673
v -0.71655 0.24103 3.70360
v -0.74182 0.24103 3.55000
v -0.71655 0.24103 3.39640
v -0.64244 0.24103 3.25327
v -0.52455 0.24103 3.13036
v -0.37091 0.24103 3.03605
v -0.19200 0.24103 2.97676
v -0.00000 0.24103 2.95654
v 0.19200 0.24103 2.97676
v 0.37091 0.24103 3.03605
v 0.52455 0.24103 3.13036
v 0.64244 0.24103 3.25327
v 0.71655 0.24103 3.39640
v 0.78000 0.00000 3.55000
v 0.75342 0.00000 3.71150
v 0.67550 0.00000 3.86200
v 0.55154 0.00000 3.99123
v 0.39000 0.00000 4.09040
v 0.20188 0.00000 4.15274
v 0.00000 0.00000 4.17400
v -0.20188 0.00000 4.15274
v -0.39000 0.00000 4.09040
v -0.55154 0.00000 3.99123
v -0.67550 0.00000 3.86200
v -0.75342 0.00000 3.71150
v -0.78000 0.00000 3.55000
v -0.75342 0.00000 3.38850
v -0.67550 0.00000 3.23800
v -0.55154 0.00000 3.10877
v -0.39000 0.00000 3.00960
v -0.20188 0.00000 2.94726
v -0.00000 0.00000 2.92600
v 0.20188 0.00000 2.94726
v 0.39000 0.00000 3.00960
v 0.55154 0.00000 3.10877
v 0.67550 0.00000 3.23800
v 0.75342 0.00000 3.38850
v 0.74182 -0.24103 3.55000
v 0.71655 -0.24103 3.70360
v 0.64244 -0.24103 3.84673
v 0.52455 -0.24103 3.96964
v 0.37091 -0.24103 4.06395
v 0.19200 -0.24103 4.12324
v 0.00000 -0.24103 4.14346
v -0.19200 -0.24103 4.12324
v -0.37091 -0.24103 4.06395
v -0.52455 -0.24103 3.96964
v -0.64244 -0.24103 3.84673
v -0.71655 -0.24103 3.70360
v -0.74182 -0.24103 3.55000
v -0.71655 -0.24103 3.39640
v -0.64244 -0.24103 3.25327
v -0.52455 -0.24103 3.13036
v -0.37091 -0.24103 3.03605
v -0.19200 -0.24103 2.97676
v -0.00000 -0.24103 2.95654
v 0.19200 -0.24103 2.97676
v 0.37091 -0.24103 3.03605
v 0.52455 -0.24103 3.13036
v 0.64244 -0.24103 3.25327
v 0.71655 -0.24103 3.39640
v 0.63103 -0.45847 3.55000
v 0.60953 -0.45847 3.68066
v 0.54649 -0.45847 3.80241
v 0.44621 -0.45847 3.90697
v 0.31552 -0.45847 3.98719
v 0.16332 -0.45847 4.03763
v 0.00000 -0.45847 4.05483
v -0.16332 -0.45847 4.03763
v -0.31552 -0.45847 3.98719
v -0.44621 -0.45847 3.90697
v -0.54649 -0.45847 3.80241
v -0.60953 -0.45847 3.68066
v -0.63103 -0.45847 3.55000
v -0.60953 -0.45847 3.41934
v -0.54649 -0.45847 3.29759
v -0.44621 -0.45847 3.19303
v -0.31552 -0.45847 3.11281
v -0.16332 -0.45847 3.06237
v -0.00000 -0.45847 3.04517
v 0.16332 -0.45847 3.06237
v 0.31552 -0.45847 3.11281
v 0.44621 -0.45847 3.19303
v 0.54649 -0.45847 3.29759
v 0.60953 -0.45847 3.41934
v 0.45847 -0.63103 3.55000
v 0.44285 -0.63103 3.64493
v 0.39705 -0.63103 3.73339
v 0.32419 -0.63103 3.80935
v 0.22924 -0.63103 3.86764
v 0.11866 -0.63103 3.90428
v 0.00000 -0.63103 3.91678
v -0.11866 -0.63103 3.90428
v -0.22924 -0.63103 3.86764
v -0.32419 -0.63103 3.80935
v -0.39705 -0.63103 3.73339
v -0.44285 -0.63103 3.64493
v -0.45847 -0.63103 3.55000
v -0.44285 -0.63103 3.45507
v -0.39705 -0.63103 3.36661
v -0.32419 -0.63103 3.29065
v -0.22924 -0.63103 3.23236
v -0.11866 -0.63103 3.19572
v -0.00000 -0.63103 3.18322
v 0.11866 -0.63103 3.19572
v 0.22924 -0.63103 3.23236
v 0.32419 -0.63103 3.29065
v 0.39705 -0.63103 3.36661
v 0.44285 -0.63103 3.45507
v 0.24103 -0.74182 3.55000
v 0.23282 -0.74182 3.59991
v 0.20874 -0.74182 3.64641
v 0.17044 -0.74182 3.68635
v 0.12052 -0.74182 3.71699
v 0.06238 -0.74182 3.73626
v 0.00000 -0.74182 3.74283
v -0.06238 -0.74182 3.73626
v -0.12052 -0.74182 3.71699
v -0.17044 -0.74182 3.68635
v -0.20874 -0.74182 3.64641
v -0.23282 -0.74182 3.59991
v -0.24103 -0.74182 3.55000
v -0.23282 -0.74182 3.50009
v -0.20874 -0.74182 3.45359
v -0.17044 -0.74182 3.41365
v -0.12052 -0.74182 3.38301
v -0.06238 -0.74182 3.36374
v -0.00000 -0.74182 3.35717
v 0.06238 -0.74182 3.36374
v 0.12052 -0.74182 3.38301
v 0.17044 -0.74182 3.41365
v 0.20874 -0.74182 3.45359
v 0.23282 -0.74182 3.50009
v 0.00000 0.78000 3.55000
v 0.00000 -0.78000 3.55000
v 0.18811 0.51683 -3.65000
v 0.17890 0.51683 -3.56281
v 0.15219 0.51683 -3.48415
v 0.11057 0.51683 -3.42172
v 0.05813 0.51683 -3.38164
v 0.00000 0.51683 -3.36783
v -0.05813 0.51683 -3.38164
v -0.11057 0.51683 -3.42172
v -0.15219 0.51683 -3.48415
v -0.17890 0.51683 -3.56281
v -0.18811 0.51683 -3.65000
v -0.17890 0.51683 -3.73719
v -0.15219 0.51683 -3.81585
v -0.11057 0.51683 -3.87828
v -0.05813 0.51683 -3.91836
v -0.00000 0.51683 -3.93217
v 0.05813 0.51683 -3.91836
v 0.11057 0.51683 -3.87828
v 0.15219 0.51683 -3.81585
v 0.17890 0.51683 -3.73719
v 0.35353 0.42132 -3.65000
v 0.33623 0.42132 -3.48613
v 0.28601 0.42132 -3.33830
v 0.20780 0.42132 -3.22098
v 0.10925 0.42132 -3.14565
v 0.00000 0.42132 -3.11970
v -0.10925 0.42132 -3.14565
v -0.20780 0.42132 -3.22098
v -0.28601 0.42132 -3.33830
v -0.33623 0.42132 -3.48613
v -0.35353 0.42132 -3.65000
v -0.33623 0.42132 -3.81387
v -0.28601 0.42132 -3.96170
v -0.20780 0.42132 -4.07902
v -0.10925 0.42132 -4.15435
v -0.00000 0.42132 -4.18030
v 0.10925 0.42132 -4.15435
v 0.20780 0.42132 -4.07902
v 0.28601 0.42132 -3.96170
v 0.33623 0.42132 -3.81387
v 0.47631 0.27500 -3.65000
v 0.45300 0.27500 -3.42922
v 0.38535 0.27500 -3.23004
v 0.27997 0.27500 -3.07198
v 0.14719 0.27500 -2.97050
v 0.00000 0.27500 -2.93553
v -0.14719 0.27500 -2.97050
v -0.27997 0.27500 -3.07198
v -0.38535 0.27500 -3.23004
v -0.45300 0.27500 -3.42922
v -0.47631 0.27500 -3.65000
v -0.45300 0.27500 -3.87078
v -0.38535 0.27500 -4.06996
v -0.27997 0.27500 -4.22802
v -0.14719 0.27500 -4.32950
v -0.00000 0.27500 -4.36447
v 0.14719 0.27500 -4.32950
v 0.27997 0.27500 -4.22802
v 0.38535 0.27500 -4.06996
v 0.45300 0.27500 -3.87078
v 0.54164 0.09551 -3.65000
v 0.51513 0.09551 -3.39893
v 0.43820 0.09551 -3.17244
v 0.31837 0.09551 -2.99270
v 0.16738 0.09551 -2.87730
v 0.00000 0.09551 -2.83753
v -0.16738 0.09551 -2.87730
v -0.31837 0.09551 -2.99270
v -0.43820 0.09551 -3.17244
v -0.51513 0.09551 -3.39893
v -0.54164 0.09551 -3.65000
v -0.51513 0.09551 -3.90107
v -0.43820 0.09551 -4.12756
v -0.31837 0.09551 -4.30730
v -0.16738 0.09551 -4.42270
v -0.00000 0.09551 -4.46247
v 0.16738 0.09551 -4.42270
v 0.31837 0.09551 -4.30730
v 0.43820 0.09551 -4.12756
v 0.51513 0.09551 -3.90107
v 0.54164 -0.09551 -3.65000
v 0.51513 -0.09551 -3.39893
v 0.43820 -0.09551 -3.17244
v 0.31837 -0.09551 -2.99270
v 0.16738 -0.09551 -2.87730
v 0.00000 -0.09551 -2.83753
v -0.16738 -0.09551 -2.87730
v -0.31837 -0.09551 -2.99270
v -0.43820 -0.09551 -3.17244
v -0.51513 -0.09551 -3.39893
v -0.54164 -0.09551 -3.65000
v -0.51513 -0.09551 -3.90107
v -0.43820 -0.09551 -4.12756
v -0.31837 -0.09551 -4.30730
v -0.16738 -0.09551 -4.42270
v -0.00000 -0.09551 -4.46247
v 0.16738 -0.09551 -4.42270
v 0.31837 -0.09551 -4.30730
v 0.43820 -0.09551 -4.12756
v 0.51513 -0.09551 -3.90107
v 0.47631 -0.27500 -3.65000
v 0.45300 -0.27500 -3.42922
v 0.38535 -0.27500 -3.23004
v 0.27997 -0.27500 -3.07198
v 0.14719 -0.27500 -2.97050
v 0.00000 -0.27500 -2.93553
v -0.14719 -0.27500 -2.97050
v -0.27997 -0.27500 -3.07198
v -0.38535 -0.27500 -3.23004
v -0.45300 -0.27500 -3.42922
v -0.47631 -0.27500 -3.65000
v -0.45300 -0.27500 -3.87078
v -0.38535 -0.27500 -4.06996
v -0.27997 -0.27500 -4.22802
v -0.14719 -0.27500 -4.32950
v -0.00000 -0.27500 -4.36447
v 0.14719 -0.27500 -4.32950
v 0.27997 -0.27500 -4.22802
v 0.38535 -0.27500 -4.06996
v 0.45300 -0.27500 -3.87078
v 0.35353 -0.42132 -3.65000
v 0.33623 -0.42132 -3.48613
v 0.28601 -0.42132 -3.33830
v 0.20780 -0.42132 -3.22098
v 0.10925 -0.42132 -3.14565
v 0.00000 -0.42132 -3.11970
v -0.10925 -0.42132 -3.14565
v -0.20780 -0.42132 -3.22098
v -0.28601 -0.42132 -3.33830
v -0.33623 -0.42132 -3.48613
v -0.35353 -0.42132 -3.65000
v -0.33623 -0.42132 -3.81387
v -0.28601 -0.42132 -3.96170
v -0.20780 -0.42132 -4.07902
v -0.10925 -0.42132 -4.15435
v -0.00000 -0.42132 -4.18030
v 0.10925 -0.42132 -4.15435
v 0.20780 -0.42132 -4.07902
v 0.28601 -0.42132 -3.96170
v 0.33623 -0.42132 -3.81387
v 0.18811 -0.51683 -3.65000
v 0.17890 -0.51683 -3.56281
v 0.15219 -0.51683 -3.48415
v 0.11057 -0.51683 -3.42172
v 0.05813 -0.51683 -3.38164
v 0.00000 -0.51683 -3.36783
v -0.05813 -0.51683 -3.38164
v -0.11057 -0.51683 -3.42172
v -0.15219 -0.51683 -3.48415
v -0.17890 -0.51683 -3.56281
v -0.18811 -0.51683 -3.65000
v -0.17890 -0.51683 -3.73719
v -0.15219 -0.51683 -3.81585
v -0.11057 -0.51683 -3.87828
v -0.05813 -0.51683 -3.91836
v -0.00000 -0.51683 -3.93217
v 0.05813 -0.51683 -3.91836
v 0.11057 -0.51683 -3.87828
v 0.15219 -0.51683 -3.81585
v 0.17890 -0.51683 -3.73719
v 0.00000 0.55000 -3.65000
v 0.00000 -0.55000 -3.65000
v -4.75000 -0.11000 -0.42500
v 4.75000 -0.11000 -0.42500
v 4.75000 0.07000 -0.42500
v -4.75000 0.07000 -0.42500
v -4.75000 -0.11000 0.72500
v 4.75000 -0.11000 0.72500
v 4.75000 0.07000 0.72500
v -4.75000 0.07000 0.72500
v -1.70000 0.07500 -3.21000
v 1.70000 0.07500 -3.21000
v 1.70000 0.22500 -3.21000
v -1.70000 0.22500 -3.21000
v -1.70000 0.07500 -2.49000
v 1.70000 0.07500 -2.49000
v 1.70000 0.22500 -2.49000
v -1.70000 0.22500 -2.49000
v -0.08000 -0.05500 -3.51000
v 0.08000 -0.05500 -3.51000
v 0.08000 1.49500 -3.51000
v -0.08000 1.49500 -3.51000
v -0.08000 -0.05500 -2.79000
v 0.08000 -0.05500 -2.79000
v 0.08000 1.49500 -2.79000
v -0.08000 1.49500 -2.79000
v -2.12000 -0.30000 -0.42500
v -2.12000 -0.30000 1.12500
v -2.13860 -0.18257 -0.42500
v -2.13860 -0.18257 1.12500
v -2.19257 -0.07664 -0.42500
v -2.19257 -0.07664 1.12500
v -2.27664 0.00743 -0.42500
v -2.27664 0.00743 1.12500
v -2.38257 0.06140 -0.42500
v -2.38257 0.06140 1.12500
v -2.50000 0.08000 -0.42500
v -2.50000 0.08000 1.12500
v -2.61743 0.06140 -0.42500
v -2.61743 0.06140 1.12500
v -2.72336 0.00743 -0.42500
v -2.72336 0.00743 1.12500
v -2.80743 -0.07664 -0.42500
v -2.80743 -0.07664 1.12500
v -2.86140 -0.18257 -0.42500
v -2.86140 -0.18257 1.12500
v -2.88000 -0.30000 -0.42500
v -2.88000 -0.30000 1.12500
v -2.86140 -0.41743 -0.42500
v -2.86140 -0.41743 1.12500
v -2.80743 -0.52336 -0.42500
v -2.80743 -0.52336 1.12500
v -2.72336 -0.60743 -0.42500
v -2.72336 -0.60743 1.12500
v -2.61743 -0.66140 -0.42500
v -2.61743 -0.66140 1.12500
v -2.50000 -0.68000 -0.42500
v -2.50000 -0.68000 1.12500
v -2.38257 -0.66140 -0.42500
v -2.38257 -0.66140 1.12500
v -2.27664 -0.60743 -0.42500
v -2.27664 -0.60743 1.12500
v -2.19257 -0.52336 -0.42500
v -2.19257 -0.52336 1.12500
v -2.13860 -0.41743 -0.42500
v -2.13860 -0.41743 1.12500
v -2.35075 0.06031 1.10000
v -2.35975 0.06031 1.13063
v -2.38567 0.06031 1.15756
v -2.42538 0.06031 1.17755
v -2.47408 0.06031 1.18819
v -2.52592 0.06031 1.18819
v -2.57462 0.06031 1.17755
v -2.61433 0.06031 1.15756
v -2.64025 0.06031 1.13063
v -2.64925 0.06031 1.10000
v -2.64025 0.06031 1.06937
v -2.61433 0.06031 1.04244
v -2.57462 0.06031 1.02245
v -2.52592 0.06031 1.01181
v -2.47408 0.06031 1.01181
v -2.42538 0.06031 1.02245
v -2.38567 0.06031 1.04244
v -2.35975 0.06031 1.06937
v -2.22423 -0.02423 1.10000
v -2.24086 -0.02423 1.15659
v -2.28875 -0.02423 1.20636
v -2.36211 -0.02423 1.24330
v -2.45211 -0.02423 1.26295
v -2.54789 -0.02423 1.26295
v -2.63789 -0.02423 1.24330
v -2.71125 -0.02423 1.20636
v -2.75914 -0.02423 1.15659
v -2.77577 -0.02423 1.10000
v -2.75914 -0.02423 1.04341
v -2.71125 -0.02423 0.99364
v -2.63789 -0.02423 0.95670
v -2.54789 -0.02423 0.93705
v -2.45211 -0.02423 0.93705
v -2.36211 -0.02423 0.95670
v -2.28875 -0.02423 0.99364
v -2.24086 -0.02423 1.04341
v -2.13969 -0.15075 1.10000
v -2.16142 -0.15075 1.17394
v -2.22398 -0.15075 1.23896
v -2.31984 -0.15075 1.28722
v -2.43743 -0.15075 1.31290
v -2.56257 -0.15075 1.31290
v -2.68016 -0.15075 1.28722
v -2.77602 -0.15075 1.23896
v -2.83858 -0.15075 1.17394
v -2.86031 -0.15075 1.10000
v -2.83858 -0.15075 1.02606
v -2.77602 -0.15075 0.96104
v -2.68016 -0.15075 0.91278
v -2.56257 -0.15075 0.88710
v -2.43743 -0.15075 0.88710
v -2.31984 -0.15075 0.91278
v -2.22398 -0.15075 0.96104
v -2.16142 -0.15075 1.02606
v -2.11000 -0.30000 1.10000
v -2.13352 -0.30000 1.18003
v -2.20124 -0.30000 1.25041
v -2.30500 -0.30000 1.30265
v -2.43228 -0.30000 1.33045
v -2.56772 -0.30000 1.33045
v -2.69500 -0.30000 1.30265
v -2.79876 -0.30000 1.25041
v -2.86648 -0.30000 1.18003
v -2.89000 -0.30000 1.10000
v -2.86648 -0.30000 1.01997
v -2.79876 -0.30000 0.94959
v -2.69500 -0.30000 0.89735
v -2.56772 -0.30000 0.86955
v -2.43228 -0.30000 0.86955
v -2.30500 -0.30000 0.89735
v -2.20124 -0.30000 0.94959
v -2.13352 -0.30000 1.01997
v -2.13969 -0.44925 1.10000
v -2.16142 -0.44925 1.17394
v -2.22398 -0.44925 1.23896
v -2.31984 -0.44925 1.28722
v -2.43743 -0.44925 1.31290
v -2.56257 -0.44925 1.31290
v -2.68016 -0.44925 1.28722
v -2.77602 -0.44925 1.23896
v -2.83858 -0.44925 1.17394
v -2.86031 -0.44925 1.10000
v -2.83858 -0.44925 1.02606
v -2.77602 -0.44925 0.96104
v -2.68016 -0.44925 0.91278
v -2.56257 -0.44925 0.88710
v -2.43743 -0.44925 0.88710
v -2.31984 -0.44925 0.91278
v -2.22398 -0.44925 0.96104
v -2.16142 -0.44925 1.02606
v -2.22423 -0.57577 1.10000
v -2.24086 -0.57577 1.15659
v -2.28875 -0.57577 1.20636
v -2.36211 -0.57577 1.24330
v -2.45211 -0.57577 1.26295
v -2.54789 -0.57577 1.26295
v -2.63789 -0.57577 1.24330
v -2.71125 -0.57577 1.20636
v -2.75914 -0.57577 1.15659
v -2.77577 -0.57577 1.10000
v -2.75914 -0.57577 1.04341
v -2.71125 -0.57577 0.99364
v -2.63789 -0.57577 0.95670
v -2.54789 -0.57577 0.93705
v -2.45211 -0.57577 0.93705
v -2.36211 -0.57577 0.95670
v -2.28875 -0.57577 0.99364
v -2.24086 -0.57577 1.04341
v -2.35075 -0.66031 1.10000
v -2.35975 -0.66031 1.13063
v -2.38567 -0.66031 1.15756
v -2.42538 -0.66031 1.17755
v -2.47408 -0.66031 1.18819
v -2.52592 -0.66031 1.18819
v -2.57462 -0.66031 1.17755
v -2.61433 -0.66031 1.15756
v -2.64025 -0.66031 1.13063
v -2.64925 -0.66031 1.10000
v -2.64025 -0.66031 1.06937
v -2.61433 -0.66031 1.04244
v -2.57462 -0.66031 1.02245
v -2.52592 -0.66031 1.01181
v -2.47408 -0.66031 1.01181
v -2.42538 -0.66031 1.02245
v -2.38567 -0.66031 1.04244
v -2.35975 -0.66031 1.06937
v -2.50000 0.09000 1.10000
v -2.50000 -0.69000 1.10000
v 2.88000 -0.30000 -0.42500
v 2.88000 -0.30000 1.12500
v 2.86140 -0.18257 -0.42500
v 2.86140 -0.18257 1.12500
v 2.80743 -0.07664 -0.42500
v 2.80743 -0.07664 1.12500
v 2.72336 0.00743 -0.42500
v 2.72336 0.00743 1.12500
v 2.61743 0.06140 -0.42500
v 2.61743 0.06140 1.12500
v 2.50000 0.08000 -0.42500
v 2.50000 0.08000 1.12500
v 2.38257 0.06140 -0.42500
v 2.38257 0.06140 1.12500
v 2.27664 0.00743 -0.42500
v 2.27664 0.00743 1.12500
v 2.19257 -0.07664 -0.42500
v 2.19257 -0.07664 1.12500
v 2.13860 -0.18257 -0.42500
v 2.13860 -0.18257 1.12500
v 2.12000 -0.30000 -0.42500
v 2.12000 -0.30000 1.12500
v 2.13860 -0.41743 -0.42500
v 2.13860 -0.41743 1.12500
v 2.19257 -0.52336 -0.42500
v 2.19257 -0.52336 1.12500
v 2.27664 -0.60743 -0.42500
v 2.27664 -0.60743 1.12500
v 2.38257 -0.66140 -0.42500
v 2.38257 -0.66140 1.12500
v 2.50000 -0.68000 -0.42500
v 2.50000 -0.68000 1.12500
v 2.61743 -0.66140 -0.42500
v 2.61743 -0.66140 1.12500
v 2.72336 -0.60743 -0.42500
v 2.72336 -0.60743 1.12500
v 2.80743 -0.52336 -0.42500
v 2.80743 -0.52336 1.12500
v 2.86140 -0.41743 -0.42500
v 2.86140 -0.41743 1.12500
v 2.64925 0.06031 1.10000
v 2.64025 0.06031 1.13063
v 2.61433 0.06031 1.15756
v 2.57462 0.06031 1.17755
v 2.52592 0.06031 1.18819
v 2.47408 0.06031 1.18819
v 2.42538 0.06031 1.17755
v 2.38567 0.06031 1.15756
v 2.35975 0.06031 1.13063
v 2.35075 0.06031 1.10000
v 2.35975 0.06031 1.06937
v 2.38567 0.06031 1.04244
v 2.42538 0.06031 1.02245
v 2.47408 0.06031 1.01181
v 2.52592 0.06031 1.01181
v 2.57462 0.06031 1.02245
v 2.61433 0.06031 1.04244
v 2.64025 0.06031 1.06937
v 2.77577 -0.02423 1.10000
v 2.75914 -0.02423 1.15659
v 2.71125 -0.02423 1.20636
v 2.63789 -0.02423 1.24330
v 2.54789 -0.02423 1.26295
v 2.45211 -0.02423 1.26295
v 2.36211 -0.02423 1.24330
v 2.28875 -0.02423 1.20636
v 2.24086 -0.02423 1.15659
v 2.22423 -0.02423 1.10000
v 2.24086 -0.02423 1.04341
v 2.28875 -0.02423 0.99364
v 2.36211 -0.02423 0.95670
v 2.45211 -0.02423 0.93705
v 2.54789 -0.02423 0.93705
v 2.63789 -0.02423 0.95670
v 2.71125 -0.02423 0.99364
v 2.75914 -0.02423 1.04341
v 2.86031 -0.15075 1.10000
v 2.83858 -0.15075 1.17394
v 2.77602 -0.15075 1.23896
v 2.68016 -0.15075 1.28722
v 2.56257 -0.15075 1.31290
v 2.43743 -0.15075 1.31290
v 2.31984 -0.15075 1.28722
v 2.22398 -0.15075 1.23896
v 2.16142 -0.15075 1.17394
v 2.13969 -0.15075 1.10000
v 2.16142 -0.15075 1.02606
v 2.22398 -0.15075 0.96104
v 2.31984 -0.15075 0.91278
v 2.43743 -0.15075 0.88710
v 2.56257 -0.15075 0.88710
v 2.68016 -0.15075 0.91278
v 2.77602 -0.15075 0.96104
v 2.83858 -0.15075 1.02606
v 2.89000 -0.30000 1.10000
v 2.86648 -0.30000 1.18003
v 2.79876 -0.30000 1.25041
v 2.69500 -0.30000 1.30265
v 2.56772 -0.30000 1.33045
v 2.43228 -0.30000 1.33045
v 2.30500 -0.30000 1.30265
v 2.20124 -0.30000 1.25041
v 2.13352 -0.30000 1.18003
v 2.11000 -0.30000 1.10000
v 2.13352 -0.30000 1.01997
v 2.20124 -0.30000 0.94959
v 2.30500 -0.30000 0.89735
v 2.43228 -0.30000 0.86955
v 2.56772 -0.30000 0.86955
v 2.69500 -0.30000 0.89735
v 2.79876 -0.30000 0.94959
v 2.86648 -0.30000 1.01997
v 2.86031 -0.44925 1.10000
v 2.83858 -0.44925 1.17394
v 2.77602 -0.44925 1.23896
v 2.68016 -0.44925 1.28722
v 2.56257 -0.44925 1.31290
v 2.43743 -0.44925 1.31290
v 2.31984 -0.44925 1.28722
v 2.22398 -0.44925 1.23896
v 2.16142 -0.44925 1.17394
v 2.13969 -0.44925 1.10000
v 2.16142 -0.44925 1.02606
v 2.22398 -0.44925 0.96104
v 2.31984 -0.44925 0.91278
v 2.43743 -0.44925 0.88710
v 2.56257 -0.44925 0.88710
v 2.68016 -0.44925 0.91278
v 2.77602 -0.44925 0.96104
v 2.83858 -0.44925 1.02606
v 2.77577 -0.57577 1.10000
v 2.75914 -0.57577 1.15659
v 2.71125 -0.57577 1.20636
v 2.63789 -0.57577 1.24330
v 2.54789 -0.57577 1.26295
v 2.45211 -0.57577 1.26295
v 2.36211 -0.57577 1.24330
v 2.28875 -0.57577 1.20636
v 2.24086 -0.57577 1.15659
v 2.22423 -0.57577 1.10000
v 2.24086 -0.57577 1.04341
v 2.28875 -0.57577 0.99364
v 2.36211 -0.57577 0.95670
v 2.45211 -0.57577 0.93705
v 2.54789 -0.57577 0.93705
v 2.63789 -0.57577 0.95670
v 2.71125 -0.57577 0.99364
v 2.75914 -0.57577 1.04341
v 2.64925 -0.66031 1.10000
v 2.64025 -0.66031 1.13063
v 2.61433 -0.66031 1.15756
v 2.57462 -0.66031 1.17755
v 2.52592 -0.66031 1.18819
v 2.47408 -0.66031 1.18819
v 2.42538 -0.66031 1.17755
v 2.38567 -0.66031 1.15756
v 2.35975 -0.66031 1.13063
v 2.35075 -0.66031 1.10000
v 2.35975 -0.66031 1.06937
v 2.38567 -0.66031 1.04244
v 2.42538 -0.66031 1.02245
v 2.47408 -0.66031 1.01181
v 2.52592 -0.66031 1.01181
v 2.57462 -0.66031 1.02245
v 2.61433 -0.66031 1.04244
v 2.64025 -0.66031 1.06937
v 2.50000 0.09000 1.10000
v 2.50000 -0.69000 1.10000
f 1 3 4
f 1 4 2
f 3 5 6
f 3 6 4
f 5 7 8
f 5 8 6
f 7 9 10
f 7 10 8
f 9 11 12
f 9 12 10
f 11 13 14
f 11 14 12
f 13 15 16
f 13 16 14
f 15 17 18
f 15 18 16
f 17 19 20
f 17 20 18
f 19 21 22
f 19 22 20
f 21 23 24
f 21 24 22
f 23 25 26
f 23 26 24
f 25 27 28
f 25 28 26
f 27 29 30
f 27 30 28
f 29 31 32
f 29 32 30
f 31 33 34
f 31 34 32
f 33 35 36
f 33 36 34
f 35 37 38
f 35 38 36
f 37 39 40
f 37 40 38
f 39 41 42
f 39 42 40
f 41 43 44
f 41 44 42
f 43 45 46
f 43 46 44
f 45 47 48
f 45 48 46
f 47 1 2
f 47 2 48
f 265 49 50
f 266 242 241
f 265 50 51
f 266 243 242
f 265 51 52
f 266 244 243
f 265 52 53
f 266 245 244
f 265 53 54
f 266 246 245
f 265 54 55
f 266 247 246
f 265 55 56
f 266 248 247
f 265 56 57
f 266 249 248
f 265 57 58
f 266 250 249
f 265 58 59
f 266 251 250
f 265 59 60
f 266 252 251
f 265 60 61
f 266 253 252
f 265 61 62
f 266 254 253
f 265 62 63
f 266 255 254
f 265 63 64
f 266 256 255
f 265 64 65
f 266 257 256
f 265 65 66
f 266 258 257
f 265 66 67
f 266 259 258
f 265 67 68
f 266 260 259
f 265 68 69
f 266 261 260
f 265 69 70
f 266 262 261
f 265 70 71
f 266 263 262
f 265 71 72
f 266 264 263
f 265 72 49
f 266 241 264
f 49 73 74
f 49 74 50
f 50 74 75
f 50 75 51
f 51 75 76
f 51 76 52
f 52 76 77
f 52 77 53
f 53 77 78
f 53 78 54
f 54 78 79
f 54 79 55
f 55 79 80
f 55 80 56
f 56 80 81
f 56 81 57
f 57 81 82
f 57 82 58
f 58 82 83
f 58 83 59
f 59 83 84
f 59 84 60
f 60 84 85
f 60 85 61
f 61 85 86
f 61 86 62
f 62 86 87
f 62 87 63
f 63 87 88
f 63 88 64
f 64 88 89
f 64 89 65
f 65 89 90
f 65 90 66
f 66 90 91
f 66 91 67
f 67 91 92
f 67 92 68
f 68 92 93
f 68 93 69
f 69 93 94
f 69 94 70
f 70 94 95
f 70 95 71
f 71 95 96
f 71 96 72
f 72 96 73
f 72 73 49
f 73 97 98
f 73 98 74
f 74 98 99
f 74 99 75
f 75 99 100
f 75 100 76
f 76 100 101
f 76 101 77
f 77 101 102
f 77 102 78
f 78 102 103
f 78 103 79
f 79 103 104
f 79 104 80
f 80 104 105
f 80 105 81
f 81 105 106
f 81 106 82
f 82 106 107
f 82 107 83
f 83 107 108
f 83 108 84
f 84 108 109
f 84 109 85
f 85 109 110
f 85 110 86
f 86 110 111
f 86 111 87
f 87 111 112
f 87 112 88
f 88 112 113
f 88 113 89
f 89 113 114
f 89 114 90
f 90 114 115
f 90 115 91
f 91 115 116
f 91 116 92
f 92 116 117
f 92 117 93
f 93 117 118
f 93 118 94
f 94 118 119
f 94 119 95
f 95 119 120
f 95 120 96
f 96 120 97
f 96 97 73
f 97 121 122
f 97 122 98
f 98 122 123
f 98 123 99
f 99 123 124
f 99 124 100
f 100 124 125
f 100 125 101
f 101 125 126
f 101 126 102
f 102 126 127
f 102 127 103
f 103 127 128
f 103 128 104
f 104 128 129
f 104 129 105
f 105 129 130
f 105 130 106
f 106 130 131
f 106 131 107
f 107 131 132
f 107 132 108
f 108 132 133
f 108 133 109
f 109 133 134
f 109 134 110
f 110 134 135
f 110 135 111
f 111 135 136
f 111 136 112
f 112 136 137
f 112 137 113
f 113 137 138
f 113 138 114
f 114 138 139
f 114 139 115
f 115 139 140
f 115 140 116
f 116 140 141
f 116 141 117
f 117 141 142
f 117 142 118
f 118 142 143
f 118 143 119
f 119 143 144
f 119 144 120
f 120 144 121
f 120 121 97
f 121 145 146
f 121 146 122
f 122 146 147
f 122 147 123
f 123 147 148
f 123 148 124
f 124 148 149
f 124 149 125
f 125 149 150
f 125 150 126
f 126 150 151
f 126 151 127
f 127 151 152
f 127 152 128
f 128 152 153
f 128 153 129
f 129 153 154
f 129 154 130
f 130 154 155
f 130 155 131
f 131 155 156
f 131 156 132
f 132 156 157
f 132 157 133
f 133 157 158
f 133 158 134
f 134 158 159
f 134 159 135
f 135 159 160
f 135 160 136
f 136 160 161
f 136 161 137
f 137 161 162
f 137 162 138
f 138 162 163
f 138 163 139
f 139 163 164
f 139 164 140
f 140 164 165
f 140 165 141
f 141 165 166
f 141 166 142
f 142 166 167
f 142 167 143
f 143 167 168
f 143 168 144
f 144 168 145
f 144 145 121
f 145 169 170
f 145 170 146
f 146 170 171
f 146 171 147
f 147 171 172
f 147 172 148
f 148 172 173
f 148 173 149
f 149 173 174
f 149 174 150
f 150 174 175
f 150 175 151
f 151 175 176
f 151 176 152
f 152 176 177
f 152 177 153
f 153 177 178
f 153 178 154
f 154 178 179
f 154 179 155
f 155 179 180
f 155 180 156
f 156 180 181
f 156 181 157
f 157 181 182
f 157 182 158
f 158 182 183
f 158 183 159
f 159 183 184
f 159 184 160
f 160 184 185
f 160 185 161
f 161 185 186
f 161 186 162
f 162 186 187
f 162 187 163
f 163 187 188
f 163 188 164
f 164 188 189
f 164 189 165
f 165 189 190
f 165 190 166
f 166 190 191
f 166 191 167
f 167 191 192
f 167 192 168
f 168 192 169
f 168 169 145
f 169 193 194
f 169 194 170
f 170 194 195
f 170 195 171
f 171 195 196
f 171 196 172
f 172 196 197
f 172 197 173
f 173 197 198
f 173 198 174
f 174 198 199
f 174 199 175
f 175 199 200
f 175 200 176
f 176 200 201
f 176 201 177
f 177 201 202
f 177 202 178
f 178 202 203
f 178 203 179
f 179 203 204
f 179 204 180
f 180 204 205
f 180 205 181
f 181 205 206
f 181 206 182
f 182 206 207
f 182 207 183
f 183 207 208
f 183 208 184
f 184 208 209
f 184 209 185
f 185 209 210
f 185 210 186
f 186 210 211
f 186 211 187
f 187 211 212
f 187 212 188
f 188 212 213
f 188 213 189
f 189 213 214
f 189 214 190
f 190 214 215
f 190 215 191
f 191 215 216
f 191 216 192
f 192 216 193
f 192 193 169
f 193 217 218
f 193 218 194
f 194 218 219
f 194 219 195
f 195 219 220
f 195 220 196
f 196 220 221
f 196 221 197
f 197 221 222
f 197 222 198
f 198 222 223
f 198 223 199
f 199 223 224
f 199 224 200
f 200 224 225
f 200 225 201
f 201 225 226
f 201 226 202
f 202 226 227
f 202 227 203
f 203 227 228
f 203 228 204
f 204 228 229
f 204 229 205
f 205 229 230
f 205 230 206
f 206 230 231
f 206 231 207
f 207 231 232
f 207 232 208
f 208 232 233
f 208 233 209
f 209 233 234
f 209 234 210
f 210 234 235
f 210 235 211
f 211 235 236
f 211 236 212
f 212 236 237
f 212 237 213
f 213 237 238
f 213 238 214
f 214 238 239
f 214 239 215
f 215 239 240
f 215 240 216
f 216 240 217
f 216 217 193
f 217 241 242
f 217 242 218
f 218 242 243
f 218 243 219
f 219 243 244
f 219 244 220
f 220 244 245
f 220 245 221
f 221 245 246
f 221 246 222
f 222 246 247
f 222 247 223
f 223 247 248
f 223 248 224
f 224 248 249
f 224 249 225
f 225 249 250
f 225 250 226
f 226 250 251
f 226 251 227
f 227 251 252
f 227 252 228
f 228 252 253
f 228 253 229
f 229 253 254
f 229 254 230
f 230 254 255
f 230 255 231
f 231 255 256
f 231 256 232
f 232 256 257
f 232 257 233
f 233 257 258
f 233 258 234
f 234 258 259
f 234 259 235
f 235 259 260
f 235 260 236
f 236 260 261
f 236 261 237
f 237 261 262
f 237 262 238
f 238 262 263
f 238 263 239
f 239 263 264
f 239 264 240
f 240 264 241
f 240 241 217
f 427 267 268
f 428 408 407
f 427 268 269
f 428 409 408
f 427 269 270
f 428 410 409
f 427 270 271
f 428 411 410
f 427 271 272
f 428 412 411
f 427 272 273
f 428 413 412
f 427 273 274
f 428 414 413
f 427 274 275
f 428 415 414
f 427 275 276
f 428 416 415
f 427 276 277
f 428 417 416
f 427 277 278
f 428 418 417
f 427 278 279
f 428 419 418
f 427 279 280
f 428 420 419
f 427 280 281
f 428 421 420
f 427 281 282
f 428 422 421
f 427 282 283
f 428 423 422
f 427 283 284
f 428 424 423
f 427 284 285
f 428 425 424
f 427 285 286
f 428 426 425
f 427 286 267
f 428 407 426
f 267 287 288
f 267 288 268
f 268 288 289
f 268 289 269
f 269 289 290
f 269 290 270
f 270 290 291
f 270 291 271
f 271 291 292
f 271 292 272
f 272 292 293
f 272 293 273
f 273 293 294
f 273 294 274
f 274 294 295
f 274 295 275
f 275 295 296
f 275 296 276
f 276 296 297
f 276 297 277
f 277 297 298
f 277 298 278
f 278 298 299
f 278 299 279
f 279 299 300
f 279 300 280
f 280 300 301
f 280 301 281
f 281 301 302
f 281 302 282
f 282 302 303
f 282 303 283
f 283 303 304
f 283 304 284
f 284 304 305
f 284 305 285
f 285 305 306
f 285 306 286
f 286 306 287
f 286 287 267
f 287 307 308
f 287 308 288
f 288 308 309
f 288 309 289
f 289 309 310
f 289 310 290
f 290 310 311
f 290 311 291
f 291 311 312
f 291 312 292
f 292 312 313
f 292 313 293
f 293 313 314
f 293 314 294
f 294 314 315
f 294 315 295
f 295 315 316
f 295 316 296
f 296 316 317
f 296 317 297
f 297 317 318
f 297 318 298
f 298 318 319
f 298 319 299
f 299 319 320
f 299 320 300
f 300 320 321
f 300 321 301
f 301 321 322
f 301 322 302
f 302 322 323
f 302 323 303
f 303 323 324
f 303 324 304
f 304 324 325
f 304 325 305
f 305 325 326
f 305 326 306
f 306 326 307
f 306 307 287
f 307 327 328
f 307 328 308
f 308 328 329
f 308 329 309
f 309 329 330
f 309 330 310
f 310 330 331
f 310 331 311
f 311 331 332
f 311 332 312
f 312 332 333
f 312 333 313
f 313 333 334
f 313 334 314
f 314 334 335
f 314 335 315
f 315 335 336
f 315 336 316
f 316 336 337
f 316 337 317
f 317 337 338
f 317 338 318
f 318 338 339
f 318 339 319
f 319 339 340
f 319 340 320
f 320 340 341
f 320 341 321
f 321 341 342
f 321 342 322
f 322 342 343
f 322 343 323
f 323 343 344
f 323 344 324
f 324 344 345
f 324 345 325
f 325 345 346
f 325 346 326
f 326 346 327
f 326 327 307
f 327 347 348
f 327 348 328
f 328 348 349
f 328 349 329
f 329 349 350
f 329 350 330
f 330 350 351
f 330 351 331
f 331 351 352
f 331 352 332
f 332 352 353
f 332 353 333
f 333 353 354
f 333 354 334
f 334 354 355
f 334 355 335
f 335 355 356
f 335 356 336
f 336 356 357
f 336 357 337
f 337 357 358
f 337 358 338
f 338 358 359
f 338 359 339
f 339 359 360
f 339 360 340
f 340 360 361
f 340 361 341
f 341 361 362
f 341 362 342
f 342 362 363
f 342 363 343
f 343 363 364
f 343 364 344
f 344 364 365
f 344 365 345
f 345 365 366
f 345 366 346
f 346 366 347
f 346 347 327
f 347 367 368
f 347 368 348
f 348 368 369
f 348 369 349
f 349 369 370
f 349 370 350
f 350 370 371
f 350 371 351
f 351 371 372
f 351 372 352
f 352 372 373
f 352 373 353
f 353 373 374
f 353 374 354
f 354 374 375
f 354 375 355
f 355 375 376
f 355 376 356
f 356 376 377
f 356 377 357
f 357 377 378
f 357 378 358
f 358 378 379
f 358 379 359
f 359 379 380
f 359 380 360
f 360 380 381
f 360 381 361
f 361 381 382
f 361 382 362
f 362 382 383
f 362 383 363
f 363 383 384
f 363 384 364
f 364 384 385
f 364 385 365
f 365 385 386
f 365 386 366
f 366 386 367
f 366 367 347
f 367 387 388
f 367 388 368
f 368 388 389
f 368 389 369
f 369 389 390
f 369 390 370
f 370 390 391
f 370 391 371
f 371 391 392
f 371 392 372
f 372 392 393
f 372 393 373
f 373 393 394
f 373 394 374
f 374 394 395
f 374 395 375
f 375 395 396
f 375 396 376
f 376 396 397
f 376 397 377
f 377 397 398
f 377 398 378
f 378 398 399
f 378 399 379
f 379 399 400
f 379 400 380
f 380 400 401
f 380 401 381
f 381 401 402
f 381 402 382
f 382 402 403
f 382 403 383
f 383 403 404
f 383 404 384
f 384 404 405
f 384 405 385
f 385 405 406
f 385 406 386
f 386 406 387
f 386 387 367
f 387 407 408
f 387 408 388
f 388 408 409
f 388 409 389
f 389 409 410
f 389 410 390
f 390 410 411
f 390 411 391
f 391 411 412
f 391 412 392
f 392 412 413
f 392 413 393
f 393 413 414
f 393 414 394
f 394 414 415
f 394 415 395
f 395 415 416
f 395 416 396
f 396 416 417
f 396 417 397
f 397 417 418
f 397 418 398
f 398 418 419
f 398 419 399
f 399 419 420
f 399 420 400
f 400 420 421
f 400 421 401
f 401 421 422
f 401 422 402
f 402 422 423
f 402 423 403
f 403 423 424
f 403 424 404
f 404 424 425
f 404 425 405
f 405 425 426
f 405 426 406
f 406 426 407
f 406 407 387
f 429 430 431
f 429 431 432
f 433 436 435
f 433 435 434
f 429 433 434
f 429 434 430
f 430 434 435
f 430 435 431
f 431 435 436
f 431 436 432
f 433 429 432
f 433 432 436
f 437 438 439
f 437 439 440
f 441 444 443
f 441 443 442
f 437 441 442
f 437 442 438
f 438 442 443
f 438 443 439
f 439 443 444
f 439 444 440
f 441 437 440
f 441 440 444
f 445 446 447
f 445 447 448
f 449 452 451
f 449 451 450
f 445 449 450
f 445 450 446
f 446 450 451
f 446 451 447
f 447 451 452
f 447 452 448
f 449 445 448
f 449 448 452
f 453 455 456
f 453 456 454
f 455 457 458
f 455 458 456
f 457 459 460
f 457 460 458
f 459 461 462
f 459 462 460
f 461 463 464
f 461 464 462
f 463 465 466
f 463 466 464
f 465 467 468
f 465 468 466
f 467 469 470
f 467 470 468
f 469 471 472
f 469 472 470
f 471 473 474
f 471 474 472
f 473 475 476
f 473 476 474
f 475 477 478
f 475 478 476
f 477 479 480
f 477 480 478
f 479 481 482
f 479 482 480
f 481 483 484
f 481 484 482
f 483 485 486
f 483 486 484
f 485 487 488
f 485 488 486
f 487 489 490
f 487 490 488
f 489 491 492
f 489 492 490
f 491 453 454
f 491 454 492
f 619 493 494
f 620 602 601
f 619 494 495
f 620 603 602
f 619 495 496
f 620 604 603
f 619 496 497
f 620 605 604
f 619 497 498
f 620 606 605
f 619 498 499
f 620 607 606
f 619 499 500
f 620 608 607
f 619 500 501
f 620 609 608
f 619 501 502
f 620 610 609
f 619 502 503
f 620 611 610
f 619 503 504
f 620 612 611
f 619 504 505
f 620 613 612
f 619 505 506
f 620 614 613
f 619 506 507
f 620 615 614
f 619 507 508
f 620 616 615
f 619 508 509
f 620 617 616
f 619 509 510
f 620 618 617
f 619 510 493
f 620 601 618
f 493 511 512
f 493 512 494
f 494 512 513
f 494 513 495
f 495 513 514
f 495 514 496
f 496 514 515
f 496 515 497
f 497 515 516
f 497 516 498
f 498 516 517
f 498 517 499
f 499 517 518
f 499 518 500
f 500 518 519
f 500 519 501
f 501 519 520
f 501 520 502
f 502 520 521
f 502 521 503
f 503 521 522
f 503 522 504
f 504 522 523
f 504 523 505
f 505 523 524
f 505 524 506
f 506 524 525
f 506 525 507
f 507 525 526
f 507 526 508
f 508 526 527
f 508 527 509
f 509 527 528
f 509 528 510
f 510 528 511
f 510 511 493
f 511 529 530
f 511 530 512
f 512 530 531
f 512 531 513
f 513 531 532
f 513 532 514
f 514 532 533
f 514 533 515
f 515 533 534
f 515 534 516
f 516 534 535
f 516 535 517
f 517 535 536
f 517 536 518
f 518 536 537
f 518 537 519
f 519 537 538
f 519 538 520
f 520 538 539
f 520 539 521
f 521 539 540
f 521 540 522
f 522 540 541
f 522 541 523
f 523 541 542
f 523 542 524
f 524 542 543
f 524 543 525
f 525 543 544
f 525 544 526
f 526 544 545
f 526 545 527
f 527 545 546
f 527 546 528
f 528 546 529
f 528 529 511
f 529 547 548
f 529 548 530
f 530 548 549
f 530 549 531
f 531 549 550
f 531 550 532
f 532 550 551
f 532 551 533
f 533 551 552
f 533 552 534
f 534 552 553
f 534 553 535
f 535 553 554
f 535 554 536
f 536 554 555
f 536 555 537
f 537 555 556
f 537 556 538
f 538 556 557
f 538 557 539
f 539 557 558
f 539 558 540
f 540 558 559
f 540 559 541
f 541 559 560
f 541 560 542
f 542 560 561
f 542 561 543
f 543 561 562
f 543 562 544
f 544 562 563
f 544 563 545
f 545 563 564
f 545 564 546
f 546 564 547
f 546 547 529
f 547 565 566
f 547 566 548
f 548 566 567
f 548 567 549
f 549 567 568
f 549 568 550
f 550 568 569
f 550 569 551
f 551 569 570
f 551 570 552
f 552 570 571
f 552 571 553
f 553 571 572
f 553 572 554
f 554 572 573
f 554 573 555
f 555 573 574
f 555 574 556
f 556 574 575
f 556 575 557
f 557 575 576
f 557 576 558
f 558 576 577
f 558 577 559
f 559 577 578
f 559 578 560
f 560 578 579
f 560 579 561
f 561 579 580
f 561 580 562
f 562 580 581
f 562 581 563
f 563 581 582
f 563 582 564
f 564 582 565
f 564 565 547
f 565 583 584
f 565 584 566
f 566 584 585
f 566 585 567
f 567 585 586
f 567 586 568
f 568 586 587
f 568 587 569
f 569 587 588
f 569 588 570
f 570 588 589
f 570 589 571
f 571 589 590
f 571 590 572
f 572 590 591
f 572 591 573
f 573 591 592
f 573 592 574
f 574 592 593
f 574 593 575
f 575 593 594
f 575 594 576
f 576 594 595
f 576 595 577
f 577 595 596
f 577 596 578
f 578 596 597
f 578 597 579
f 579 597 598
f 579 598 580
f 580 598 599
f 580 599 581
f 581 599 600
f 581 600 582
f 582 600 583
f 582 583 565
f 583 601 602
f 583 602 584
f 584 602 603
f 584 603 585
f 585 603 604
f 585 604 586
f 586 604 605
f 586 605 587
f 587 605 606
f 587 606 588
f 588 606 607
f 588 607 589
f 589 607 608
f 589 608 590
f 590 608 609
f 590 609 591
f 591 609 610
f 591 610 592
f 592 610 611
f 592 611 593
f 593 611 612
f 593 612 594
f 594 612 613
f 594 613 595
f 595 613 614
f 595 614 596
f 596 614 615
f 596 615 597
f 597 615 616
f 597 616 598
f 598 616 617
f 598 617 599
f 599 617 618
f 599 618 600
f 600 618 601
f 600 601 583
f 621 623 624
f 621 624 622
f 623 625 626
f 623 626 624
f 625 627 628
f 625 628 626
f 627 629 630
f 627 630 628
f 629 631 632
f 629 632 630
f 631 633 634
f 631 634 632
f 633 635 636
f 633 636 634
f 635 637 638
f 635 638 636
f 637 639 640
f 637 640 638
f 639 641 642
f 639 642 640
f 641 643 644
f 641 644 642
f 643 645 646
f 643 646 644
f 645 647 648
f 645 648 646
f 647 649 650
f 647 650 648
f 649 651 652
f 649 652 650
f 651 653 654
f 651 654 652
f 653 655 656
f 653 656 654
f 655 657 658
f 655 658 656
f 657 659 660
f 657 660 658
f 659 621 622
f 659 622 660
f 787 661 662
f 788 770 769
f 787 662 663
f 788 771 770
f 787 663 664
f 788 772 771
f 787 664 665
f 788 773 772
f 787 665 666
f 788 774 773
f 787 666 667
f 788 775 774
f 787 667 668
f 788 776 775
f 787 668 669
f 788 777 776
f 787 669 670
f 788 778 777
f 787 670 671
f 788 779 778
f 787 671 672
f 788 780 779
f 787 672 673
f 788 781 780
f 787 673 674
f 788 782 781
f 787 674 675
f 788 783 782
f 787 675 676
f 788 784 783
f 787 676 677
f 788 785 784
f 787 677 678
f 788 786 785
f 787 678 661
f 788 769 786
f 661 679 680
f 661 680 662
f 662 680 681
f 662 681 663
f 663 681 682
f 663 682 664
f 664 682 683
f 664 683 665
f 665 683 684
f 665 684 666
f 666 684 685
f 666 685 667
f 667 685 686
f 667 686 668
f 668 686 687
f 668 687 669
f 669 687 688
f 669 688 670
f 670 688 689
f 670 689 671
f 671 689 690
f 671 690 672
f 672 690 691
f 672 691 673
f 673 691 692
f 673 692 674
f 674 692 693
f 674 693 675
f 675 693 694
f 675 694 676
f 676 694 695
f 676 695 677
f 677 695 696
f 677 696 678
f 678 696 679
f 678 679 661
f 679 697 698
f 679 698 680
f 680 698 699
f 680 699 681
f 681 699 700
f 681 700 682
f 682 700 701
f 682 701 683
f 683 701 702
f 683 702 684
f 684 702 703
f 684 703 685
f 685 703 704
f 685 704 686
f 686 704 705
f 686 705 687
f 687 705 706
f 687 706 688
f 688 706 707
f 688 707 689
f 689 707 708
f 689 708 690
f 690 708 709
f 690 709 691
f 691 709 710
f 691 710 692
f 692 710 711
f 692 711 693
f 693 711 712
f 693 712 694
f 694 712 713
f 694 713 695
f 695 713 714
f 695 714 696
f 696 714 697
f 696 697 679
f 697 715 716
f 697 716 698
f 698 716 717
f 698 717 699
f 699 717 718
f 699 718 700
f 700 718 719
f 700 719 701
f 701 719 720
f 701 720 702
f 702 720 721
f 702 721 703
f 703 721 722
f 703 722 704
f 704 722 723
f 704 723 705
f 705 723 724
f 705 724 706
f 706 724 725
f 706 725 707
f 707 725 726
f 707 726 708
f 708 726 727
f 708 727 709
f 709 727 728
f 709 728 710
f 710 728 729
f 710 729 711
f 711 729 730
f 711 730 712
f 712 730 731
f 712 731 713
f 713 731 732
f 713 732 714
f 714 732 715
f 714 715 697
f 715 733 734
f 715 734 716
f 716 734 735
f 716 735 717
f 717 735 736
f 717 736 718
f 718 736 737
f 718 737 719
f 719 737 738
f 719 738 720
f 720 738 739
f 720 739 721
f 721 739 740
f 721 740 722
f 722 740 741
f 722 741 723
f 723 741 742
f 723 742 724
f 724 742 743
f 724 743 725
f 725 743 744
f 725 744 726
f 726 744 745
f 726 745 727
f 727 745 746
f 727 746 728
f 728 746 747
f 728 747 729
f 729 747 748
f 729 748 730
f 730 748 749
f 730 749 731
f 731 749 750
f 731 750 732
f 732 750 733
f 732 733 715
f 733 751 752
f 733 752 734
f 734 752 753
f 734 753 735
f 735 753 754
f 735 754 736
f 736 754 755
f 736 755 737
f 737 755 756
f 737 756 738
f 738 756 757
f 738 757 739
f 739 757 758
f 739 758 740
f 740 758 759
f 740 759 741
f 741 759 760
f 741 760 742
f 742 760 761
f 742 761 743
f 743 761 762
f 743 762 744
f 744 762 763
f 744 763 745
f 745 763 764
f 745 764 746
f 746 764 765
f 746 765 747
f 747 765 766
f 747 766 748
f 748 766 767
f 748 767 749
f 749 767 768
f 749 768 750
f 750 768 751
f 750 751 733
f 751 769 770
f 751 770 752
f 752 770 771
f 752 771 753
f 753 771 772
f 753 772 754
f 754 772 773
f 754 773 755
f 755 773 774
f 755 774 756
f 756 774 775
f 756 775 757
f 757 775 776
f 757 776 758
f 758 776 777
f 758 777 759
f 759 777 778
f 759 778 760
f 760 778 779
f 760 779 761
f 761 779 780
f 761 780 762
f 762 780 781
f 762 781 763
f 763 781 782
f 763 782 764
f 764 782 783
f 764 783 765
f 765 783 784
f 765 784 766
f 766 784 785
f 766 785 767
f 767 785 786
f 767 786 768
f 768 786 769
f 768 769 751
